<?xml version="1.0" encoding="utf-8"?>
<!-- Generator: Adobe Illustrator 16.0.0, SVG Export Plug-In . SVG Version: 6.00 Build 0)  -->
<!DOCTYPE svg PUBLIC "-//W3C//DTD SVG 1.1//EN" "http://www.w3.org/Graphics/SVG/1.1/DTD/svg11.dtd">
<svg version="1.1" id="Layer_1" xmlns="http://www.w3.org/2000/svg" xmlns:xlink="http://www.w3.org/1999/xlink" x="0px" y="0px"
	 width="82.622px" height="82.624px" viewBox="306.374 0 82.622 82.624" enable-background="new 306.374 0 82.622 82.624"
	 xml:space="preserve">
<path fill="#FFDD00" d="M386.958,40.293h-30.439l22.121-22.122c1.596-1.594,1.596-4.178,0.003-5.772
	c-1.596-1.593-4.182-1.594-5.774,0L352.785,32.48V4.082c0-2.254-1.828-4.082-4.08-4.082c-2.256,0-4.082,1.828-4.082,4.082v31.285
	L323.1,13.842c-0.799-0.797-2.089-0.797-2.886,0c-0.797,0.797-0.797,2.089,0,2.887l21.522,21.525h-31.279
	c-2.255,0-4.083,1.827-4.083,4.082c0,2.252,1.828,4.081,4.083,4.081h31.279l-21.524,21.521c-0.797,0.799-0.797,2.09,0,2.887
	c0.397,0.398,0.922,0.598,1.442,0.598c0.524,0,1.045-0.199,1.444-0.598l23.564-23.563v33.323c0,1.125,0.912,2.039,2.04,2.039
	s2.04-0.914,2.04-2.039V50.146l22.122,22.121c0.799,0.798,1.843,1.195,2.888,1.195s2.089-0.397,2.888-1.197
	c1.593-1.592,1.593-4.177-0.003-5.771l-22.121-22.121h30.439c1.127,0,2.041-0.913,2.041-2.039
	C388.999,41.208,388.085,40.293,386.958,40.293z"/>
</svg>
