<?xml version="1.0" encoding="utf-8"?>
<!-- Generator: Adobe Illustrator 16.0.0, SVG Export Plug-In . SVG Version: 6.00 Build 0)  -->
<!DOCTYPE svg PUBLIC "-//W3C//DTD SVG 1.1//EN" "http://www.w3.org/Graphics/SVG/1.1/DTD/svg11.dtd">
<svg version="1.1" id="Layer_1" xmlns="http://www.w3.org/2000/svg" xmlns:xlink="http://www.w3.org/1999/xlink" x="0px" y="0px"
	 width="56.59px" height="56.69px" viewBox="21.705 21.655 56.59 56.69" enable-background="new 21.705 21.655 56.59 56.69"
	 xml:space="preserve">
<g id="Clock">
</g>
<g id="Calendar">
</g>
<g id="Document">
</g>
<g id="Bin">
</g>
<g id="Setting">
</g>
<g id="Layer_6">
	<g>
		<path d="M70.424,67.557h-39.53c-2.356,0-4.274-2.097-4.274-4.676V38.606c0-2.577,1.918-4.676,4.274-4.676h39.53
			c2.357,0,4.275,2.098,4.275,4.676v24.274C74.699,65.459,72.781,67.557,70.424,67.557z M30.894,38.08
			c-0.488,0-0.788,0.341-0.788,0.526V62.88c0,0.186,0.3,0.526,0.788,0.526h39.53c0.488,0,0.789-0.341,0.789-0.526V38.606
			c0-0.185-0.301-0.526-0.789-0.526L30.894,38.08L30.894,38.08z"/>
	</g>
	<polygon points="72.07,37.231 50.641,49.731 29.628,37.237 27.283,40.355 50.592,54.215 74.389,40.368 	"/>
</g>
</svg>
