<?xml version="1.0" encoding="utf-8"?>
<!-- Generator: Adobe Illustrator 16.0.0, SVG Export Plug-In . SVG Version: 6.00 Build 0)  -->
<!DOCTYPE svg PUBLIC "-//W3C//DTD SVG 1.1//EN" "http://www.w3.org/Graphics/SVG/1.1/DTD/svg11.dtd">
<svg version="1.1" id="Layer_1" xmlns="http://www.w3.org/2000/svg" xmlns:xlink="http://www.w3.org/1999/xlink" x="0px" y="0px"
	 width="24.375px" height="41px" viewBox="0 0 24.375 41" enable-background="new 0 0 24.375 41" xml:space="preserve">
<path fill="#FCDB00" d="M12.375,0H12C5.373,0,0,5.373,0,12v17c0,6.627,5.373,12,12,12h0.375c6.627,0,12-5.373,12-12V12
	C24.375,5.373,19.002,0,12.375,0z M23.156,28.15c0,5.964-4.835,10.8-10.8,10.8h-0.338c-5.964,0-10.8-4.836-10.8-10.8V12.85
	c0-5.964,4.835-10.799,10.8-10.799h0.338c5.964,0,10.8,4.835,10.8,10.799V28.15z"/>
<path fill="#FCDB00" d="M10.969,12.656c0,0.673,0.546,1.219,1.219,1.219l0,0c0.673,0,1.219-0.546,1.219-1.219V6.844
	c0-0.673-0.546-1.219-1.219-1.219l0,0c-0.673,0-1.219,0.546-1.219,1.219V12.656z"/>
</svg>
