<?xml version="1.0" encoding="utf-8"?>
<!-- Generator: Adobe Illustrator 16.0.0, SVG Export Plug-In . SVG Version: 6.00 Build 0)  -->
<!DOCTYPE svg PUBLIC "-//W3C//DTD SVG 1.1//EN" "http://www.w3.org/Graphics/SVG/1.1/DTD/svg11.dtd">
<svg version="1.1" id="Layer_1" xmlns="http://www.w3.org/2000/svg" xmlns:xlink="http://www.w3.org/1999/xlink" x="0px" y="0px"
	 width="56.693px" height="56.693px" viewBox="0 0 56.693 56.693" enable-background="new 0 0 56.693 56.693" xml:space="preserve">
<g>
	<path d="M43.911,28.21H12.782c-4.948,0-8.959,4.016-8.959,8.962v7.201c0,4.947,4.011,8.961,8.959,8.961h31.129
		c4.947,0,8.959-4.014,8.959-8.961v-7.201C52.87,32.225,48.858,28.21,43.911,28.21z M19.322,33.816h-2.894v14.38h-2.797v-14.38
		H10.74V31.37h8.582V33.816z M27.497,48.196h-2.479v-1.36c-0.461,0.503-0.937,0.888-1.433,1.146c-0.496,0.27-0.975,0.396-1.44,0.396
		c-0.576,0-1.004-0.183-1.297-0.555c-0.288-0.371-0.436-0.921-0.436-1.664V35.782h2.48v9.523c0,0.294,0.055,0.505,0.153,0.636
		c0.107,0.135,0.277,0.197,0.511,0.197c0.18,0,0.411-0.087,0.69-0.261c0.281-0.176,0.537-0.396,0.771-0.668v-9.429h2.479V48.196z
		 M36.501,45.633c0,0.877-0.194,1.552-0.584,2.021c-0.387,0.47-0.953,0.701-1.686,0.701c-0.488,0-0.922-0.088-1.299-0.271
		c-0.379-0.18-0.736-0.457-1.062-0.841v0.951h-2.51V31.37h2.51v5.419c0.336-0.375,0.691-0.666,1.063-0.861
		c0.379-0.198,0.76-0.295,1.146-0.295c0.785,0,1.383,0.263,1.797,0.791c0.416,0.529,0.623,1.305,0.623,2.32v6.889H36.501z
		 M45.104,42.288h-4.746v2.339c0,0.652,0.08,1.106,0.242,1.359c0.166,0.254,0.444,0.378,0.842,0.378
		c0.412,0,0.697-0.107,0.863-0.321c0.159-0.216,0.245-0.686,0.245-1.416v-0.564h2.554v0.637c0,1.272-0.31,2.231-0.937,2.878
		c-0.617,0.641-1.547,0.959-2.783,0.959c-1.112,0-1.989-0.339-2.627-1.021c-0.635-0.679-0.959-1.619-0.959-2.815v-5.576
		c0-1.073,0.354-1.956,1.058-2.633c0.701-0.677,1.604-1.015,2.715-1.015c1.137,0,2.01,0.313,2.619,0.94
		c0.608,0.629,0.914,1.529,0.914,2.706V42.288z"/>
	<path d="M41.466,37.646c-0.396,0-0.678,0.11-0.85,0.343c-0.176,0.218-0.258,0.591-0.258,1.112v1.255h2.192v-1.255
		c0-0.521-0.088-0.896-0.262-1.112C42.122,37.758,41.843,37.646,41.466,37.646z"/>
	<path d="M32.909,37.604c-0.176,0-0.354,0.039-0.525,0.12c-0.174,0.078-0.344,0.21-0.512,0.38v7.732
		c0.199,0.2,0.396,0.354,0.588,0.442c0.191,0.085,0.39,0.133,0.601,0.133c0.305,0,0.526-0.088,0.67-0.266
		c0.141-0.177,0.213-0.457,0.213-0.854v-6.411c0-0.422-0.084-0.737-0.26-0.955C33.501,37.712,33.243,37.604,32.909,37.604z"/>
	<polygon points="16.858,23.898 20.002,23.898 20.002,16.208 23.663,5.36 20.467,5.36 18.521,12.77 18.323,12.77 16.28,5.36 
		13.113,5.36 16.858,16.554 	"/>
	<path d="M27.923,24.243c1.271,0,2.267-0.333,2.992-0.999c0.722-0.669,1.082-1.582,1.082-2.752v-7.064
		c0-1.04-0.369-1.897-1.104-2.559c-0.74-0.659-1.688-0.991-2.845-0.991c-1.27,0-2.28,0.314-3.032,0.941
		c-0.75,0.627-1.127,1.468-1.127,2.531v7.088c0,1.163,0.366,2.083,1.1,2.772C25.722,23.898,26.702,24.243,27.923,24.243z
		 M26.765,13.246c0-0.297,0.106-0.537,0.315-0.725c0.217-0.185,0.492-0.273,0.834-0.273c0.369,0,0.668,0.089,0.896,0.273
		c0.227,0.188,0.34,0.428,0.34,0.725v7.451c0,0.365-0.111,0.655-0.336,0.864c-0.224,0.21-0.523,0.313-0.9,0.313
		c-0.369,0-0.653-0.1-0.854-0.31c-0.197-0.205-0.297-0.493-0.297-0.868L26.765,13.246L26.765,13.246z"/>
	<path d="M36.214,24.098c0.525,0,1.064-0.15,1.619-0.438c0.562-0.292,1.099-0.719,1.609-1.276v1.516h2.793V10.224h-2.793v10.38
		c-0.26,0.297-0.549,0.541-0.859,0.734c-0.315,0.192-0.576,0.288-0.78,0.288c-0.263,0-0.455-0.071-0.568-0.221
		c-0.115-0.143-0.18-0.377-0.18-0.698V10.224h-2.789v11.429c0,0.814,0.164,1.424,0.487,1.828
		C35.083,23.891,35.565,24.098,36.214,24.098z"/>
</g>
</svg>
