<?xml version="1.0" standalone="no"?>
<!DOCTYPE svg PUBLIC "-//W3C//DTD SVG 1.1//EN" "http://www.w3.org/Graphics/SVG/1.1/DTD/svg11.dtd" >
<svg xmlns="http://www.w3.org/2000/svg" xmlns:xlink="http://www.w3.org/1999/xlink" version="1.1">
<metadata>
Created by FontForge 20150913 at Tue May  3 21:14:14 2016
 By Jimmy Wärting
Copyright (c) 2013 by Fontfabric. All rights reserved.
</metadata>
<defs>
<font id="NexaSlab-Bold" horiz-adv-x="583" >
  <font-face 
    font-family="Nexa Slab Bold"
    font-weight="700"
    font-stretch="normal"
    units-per-em="1000"
    panose-1="2 0 5 0 0 0 0 0 0 0"
    ascent="700"
    descent="-300"
    x-height="495"
    cap-height="700"
    bbox="-168 -297 1128 947"
    underline-thickness="50"
    underline-position="-75"
    unicode-range="U+000D-FB02"
  />
<missing-glyph horiz-adv-x="636" 
d="M37 0v700h538v-700h-538zM127 445l74 -1c0 57 53 81 103 81s110 -14 111 -82c0 -51 -40 -60 -77 -77c-50 -23 -82 -49 -82 -146h73c0 50 7 69 42 85c40 24 119 38 118 140c0 108 -92 148 -185 148c-92 0 -177 -43 -177 -148zM245 132c0 -31 23 -47 45 -48
c23 0 45 17 45 47c0 32 -22 48 -45 48c-22 0 -45 -15 -45 -47z" />
    <glyph glyph-name=".notdef" horiz-adv-x="636" 
d="M37 0v700h538v-700h-538zM127 445l74 -1c0 57 53 81 103 81s110 -14 111 -82c0 -51 -40 -60 -77 -77c-50 -23 -82 -49 -82 -146h73c0 50 7 69 42 85c40 24 119 38 118 140c0 108 -92 148 -185 148c-92 0 -177 -43 -177 -148zM245 132c0 -31 23 -47 45 -48
c23 0 45 17 45 47c0 32 -22 48 -45 48c-22 0 -45 -15 -45 -47z" />
    <glyph glyph-name="Eth" unicode="&#xd0;" horiz-adv-x="785" 
d="M65 296v92h73v218h-81v95h330c238 0 352 -154 350 -344c-1 -190 -105 -357 -350 -357h-332v97h83v199h-73zM245 96h142c175 0 244 135 245 262c1 126 -78 247 -245 247h-142v-217h152v-92h-152v-200z" />
    <glyph glyph-name="eth" unicode="&#xf0;" horiz-adv-x="597" 
d="M311 659l46 58l53 -36l-42 -53c141 -103 182 -233 183 -377c0 -154 -96 -262 -254 -262c-170 0 -256 123 -256 248c0 116 74 229 221 242c41 6 116 5 178 -52c-22 65 -95 112 -131 130l-35 -42l-52 34l32 41c-27 14 -63 23 -91 29l20 80c50 -10 91 -22 128 -40zM297 78
c101 0 158 80 158 160s-57 158 -158 158c-103 0 -154 -79 -154 -158c0 -78 51 -160 154 -160z" />
    <glyph glyph-name="Lslash" unicode="&#x141;" horiz-adv-x="643" 
d="M137 603h-84v97h269v-97h-80v-196l102 44v-87l-102 -44v-224h276l4 107h93v-203h-556v95h78v180l-74 -31v85l74 32v242z" />
    <glyph glyph-name="lslash" unicode="&#x142;" horiz-adv-x="316" 
d="M34 612v88h174v-307l79 37v-82l-79 -37v-222h74v-89h-251v89h79v180l-67 -31v80l67 31v263h-76z" />
    <glyph glyph-name="Scaron" unicode="&#x160;" horiz-adv-x="656" 
d="M527 908v-9l-161 -134h-59l-160 134v9h105l84 -73l90 73h101zM321 -15c-104 0 -183 22 -264 94c0 -14 0 126 0 138v0h95l5 -88c44 -29 112 -46 165 -46c86 0 189 23 189 116c1 90 -137 107 -193 114c-136 19 -262 55 -262 205c-3 150 148 196 266 197
c93 0 171 -16 251 -81c0 -53 -1 -88 -1 -141h-93l-5 95c-46 25 -105 34 -149 34c-80 0 -166 -32 -166 -107c0 -69 75 -91 170 -106c146 -20 288 -53 288 -210c-2 -168 -160 -214 -296 -214z" />
    <glyph glyph-name="scaron" unicode="&#x161;" horiz-adv-x="514" 
d="M427 675v-9l-140 -128h-53l-137 128v9h91l72 -70l77 70h90zM448 468l-1 -129h-84l-6 72c-20 11 -76 16 -99 16c-62 2 -112 -25 -111 -71c1 -42 56 -55 111 -60c93 -11 218 -29 216 -157c-3 -99 -94 -153 -214 -153c-81 0 -142 18 -212 60l2 130h87l4 -71
c39 -19 80 -27 121 -27c42 0 112 7 115 65c1 46 -51 62 -125 69c-101 13 -201 38 -201 144c-1 110 114 156 205 155c64 0 137 -15 192 -43z" />
    <glyph glyph-name="Yacute" unicode="&#xdd;" horiz-adv-x="704" 
d="M315 752v6l74 131h121l-105 -137h-90zM290 604h-76l54 -84l83 -133l90 137l53 80h-76v96h270v-96h-68l-216 -318v-191h87v-95h-280v95h86v191l-209 318h-69v96h271v-96z" />
    <glyph glyph-name="yacute" unicode="&#xfd;" horiz-adv-x="610" 
d="M340 567h-90v5l73 131h122zM421 408h-74v88h245v-88h-63l-220 -536c-50 -120 -151 -123 -251 -72l36 82c44 -20 94 -36 120 19l39 105l-171 402h-66v88h233v-87h-56l68 -153l51 -141l48 137z" />
    <glyph glyph-name="Thorn" unicode="&#xde;" horiz-adv-x="700" 
d="M135 609h-84v92h281v-92h-93v-52h200c156 0 233 -108 232 -208c1 -100 -77 -208 -233 -208h-199v-47h93v-94h-281v94h84v515zM439 236c88 0 132 61 132 114c0 54 -44 115 -132 115h-199v-229h199z" />
    <glyph glyph-name="thorn" unicode="&#xfe;" horiz-adv-x="640" 
d="M341 84c87 0 159 56 159 162c0 104 -72 160 -159 160c-90 0 -159 -71 -159 -161c0 -91 70 -161 159 -161zM-5 610v88h178v-289c35 60 109 94 177 94c142 -2 249 -91 249 -257c0 -169 -107 -258 -249 -258c-63 0 -137 27 -176 94v-199h81v-89h-248v89h68v727h-80z" />
    <glyph glyph-name="CR" unicode="&#xd;" horiz-adv-x="240" 
 />
    <glyph glyph-name="Zcaron" unicode="&#x17d;" horiz-adv-x="621" 
d="M498 894v-8l-157 -136h-58l-157 137v7h104l82 -73l86 73h100zM162 602l-2 -99h-98v197h495v-46l-369 -554h288l4 115h95v-215h-536v57l363 545h-240z" />
    <glyph glyph-name="zcaron" unicode="&#x17e;" horiz-adv-x="503" 
d="M429 687v-9l-149 -133h-56l-146 133v9h97l77 -73l82 73h95zM143 405l-2 -65h-89v156h389v-58l-251 -345h173l5 85h89v-178h-418v39l264 366h-160z" />
    <glyph glyph-name="onehalf" unicode="&#xbd;" horiz-adv-x="808" 
d="M226 -2h-92l381 708h94zM44 336v67h61v213l-53 -13v68l133 32v-300h62v-67h-203zM554 259h-75c0 83 73 111 141 111c80 0 146 -29 146 -116c0 -99 -90 -100 -140 -104c-26 -2 -70 -6 -70 -61v-19h137l3 50h72v-121h-292v91c0 80 60 117 129 123c47 3 84 4 84 42
c0 35 -29 48 -69 48c-35 0 -64 -9 -66 -44z" />
    <glyph glyph-name="onequarter" unicode="&#xbc;" horiz-adv-x="759" 
d="M227 -2h-90l380 708h93zM44 336v67h63v212l-54 -14v69l132 32v-299h62v-67h-203zM582 364h101v-227h44v-69h-44v-67h-75v67h-193l-4 65zM494 137h114v152z" />
    <glyph glyph-name="onesuperior" unicode="&#xb9;" horiz-adv-x="258" 
d="M34 404v67h61v213l-52 -13v67l130 31v-298h62v-67h-201z" />
    <glyph glyph-name="threequarters" unicode="&#xbe;" horiz-adv-x="790" 
d="M269 -1h-90l367 707h93zM113 646l-2 -34h-64v99h270v-17l-88 -121c52 -4 95 -30 95 -105c0 -96 -80 -119 -146 -119c-67 0 -140 28 -141 109h76c6 -38 45 -39 66 -39c26 0 68 5 68 49c0 20 -9 50 -66 49c2 0 -49 0 -48 0l-6 15l75 114h-89zM607 374h101v-236h50v-69h-50
v-70h-75v70h-193l-4 65zM519 138h114v160z" />
    <glyph glyph-name="threesuperior" unicode="&#xb3;" horiz-adv-x="363" 
d="M113 710l-2 -34h-67v101h278v-18l-89 -124c54 -3 97 -29 97 -107c0 -99 -83 -123 -151 -123c-69 0 -144 30 -145 113h79c5 -39 46 -40 67 -40c27 0 69 5 69 50c0 21 -8 51 -66 50c1 0 -51 0 -49 0l-8 16l77 116h-90z" />
    <glyph glyph-name="twosuperior" unicode="&#xb2;" horiz-adv-x="369" 
d="M114 680h-75c0 82 73 110 141 110c80 0 146 -29 146 -116c0 -99 -90 -100 -140 -104c-26 -2 -70 -5 -70 -60v-19h137l3 49h72v-121h-292v92c0 79 60 116 129 122c47 4 84 4 84 43c0 34 -29 48 -69 48c-35 0 -64 -10 -66 -44z" />
    <glyph glyph-name="brokenbar" unicode="&#xa6;" horiz-adv-x="289" 
d="M196 342h-103v367h103v-367zM93 277h103v-367h-103v367z" />
    <glyph glyph-name="minus" unicode="&#x2212;" horiz-adv-x="523" 
d="M68 258v95h387v-95h-387z" />
    <glyph glyph-name="multiply" unicode="&#xd7;" horiz-adv-x="459" 
d="M61 424l65 63l103 -105l105 106l64 -63l-107 -110l109 -108l-63 -60l-106 109l-106 -107l-66 64l108 106z" />
    <glyph glyph-name="space" unicode=" " horiz-adv-x="243" 
 />
    <glyph glyph-name="exclam" unicode="!" horiz-adv-x="293" 
d="M94 700h105v-530h-105v530zM148 -6c-34 0 -68 22 -68 67c0 44 34 67 68 67s68 -22 68 -67s-34 -67 -68 -67z" />
    <glyph glyph-name="quotedbl" unicode="&#x22;" horiz-adv-x="394" 
d="M235 700h90v-264h-90v264zM69 700h90v-264h-90v264z" />
    <glyph glyph-name="numbersign" unicode="#" horiz-adv-x="675" 
d="M441 459h-150l-58 -225h151zM250 700h101l-38 -156h148l39 156h101l-39 -156h78v-91h-100l-56 -213h85v-93h-106l-36 -147h-101l36 147h-149l-36 -147h-100l36 147h-78v93h101l55 213h-84v91h105z" />
    <glyph glyph-name="dollar" unicode="$" horiz-adv-x="645" 
d="M379 -106h-97v92c-89 5 -159 30 -231 93c0 -14 0 126 0 138v0h95l6 -88c43 -29 111 -45 165 -45c86 0 189 22 189 115c1 90 -137 107 -193 114c-137 19 -263 55 -263 205c-3 136 122 186 232 195v94h98v-96c66 -6 126 -28 187 -77c0 -53 -1 -88 -1 -141h-93l-5 95
c-45 25 -104 34 -148 34c-81 0 -166 -32 -166 -107c0 -69 74 -91 170 -106c145 -20 287 -49 287 -210c-1 -136 -114 -196 -232 -210v-95z" />
    <glyph glyph-name="percent" unicode="%" horiz-adv-x="776" 
d="M193 707c107 0 161 -76 161 -153s-54 -154 -160 -154s-160 77 -160 154c0 76 54 153 159 153zM554 702h111l-452 -702h-113zM192 629c-50 0 -76 -37 -76 -74c0 -39 27 -77 79 -77c50 0 76 38 75 77c0 37 -30 74 -78 74zM582 299c107 0 161 -77 161 -154
s-54 -154 -160 -154s-160 77 -160 154c0 76 54 154 159 154zM581 221c-50 0 -76 -37 -76 -75s27 -76 79 -76c50 0 76 38 75 77c0 37 -30 74 -78 74z" />
    <glyph glyph-name="ampersand" unicode="&#x26;" horiz-adv-x="698" 
d="M485 201v117h-167c-109 0 -161 -60 -161 -111c0 -80 70 -122 165 -122c57 0 163 31 163 116zM583 316v-118c0 -52 17 -102 70 -101v-99c-54 -2 -108 14 -128 87c-47 -77 -127 -94 -201 -94c-158 0 -271 57 -271 213c0 68 51 132 118 154c-66 21 -105 86 -105 148
c0 137 124 203 260 203c119 0 246 -42 246 -190l-100 3c0 78 -71 98 -148 98c-113 0 -156 -59 -155 -112c1 -83 97 -106 156 -106h318v-86h-60z" />
    <glyph glyph-name="quotesingle" unicode="'" horiz-adv-x="229" 
d="M69 701h91v-265h-91v265z" />
    <glyph glyph-name="parenleft" unicode="(" horiz-adv-x="347" 
d="M273 735l50 -69c-117 -89 -176 -234 -177 -374c0 -151 58 -286 177 -377l-53 -74c-153 99 -228 275 -228 446c0 170 78 345 231 448z" />
    <glyph glyph-name="parenright" unicode=")" horiz-adv-x="346" 
d="M24 669l50 69c153 -102 230 -277 230 -447c0 -171 -74 -347 -227 -448l-52 73c119 91 176 227 175 379c0 139 -60 284 -176 374z" />
    <glyph glyph-name="asterisk" unicode="*" horiz-adv-x="382" 
d="M310 482l-62 -45l-58 82l-56 -82l-64 46l63 75l-88 20l22 76l88 -33l-4 91h78l-7 -92l93 33l22 -74l-93 -21z" />
    <glyph glyph-name="plus" unicode="+" horiz-adv-x="494" 
d="M42 300v92h155v155h97v-155h158v-92h-158v-159h-97v159h-155z" />
    <glyph glyph-name="comma" unicode="," horiz-adv-x="235" 
d="M135 -98h-64l26 100c-21 5 -39 21 -40 49c-1 81 121 78 123 -2c0 -6 -22 -69 -45 -147z" />
    <glyph glyph-name="hyphen" unicode="-" horiz-adv-x="492" 
d="M65 240v94h362v-94h-362z" />
    <glyph glyph-name="period" unicode="." horiz-adv-x="237" 
d="M118 -12c-31 1 -62 22 -62 63c0 42 31 62 62 62c32 0 63 -21 63 -63c0 -41 -32 -62 -63 -62z" />
    <glyph glyph-name="slash" unicode="/" horiz-adv-x="491" 
d="M22 -82l345 846h103l-347 -846h-101z" />
    <glyph glyph-name="zero" unicode="0" horiz-adv-x="693" 
d="M56 288v124c0 199 148 299 290 299s291 -100 291 -299v-124c0 -200 -150 -299 -291 -299s-290 99 -290 299zM160 412v-124c0 -134 96 -201 186 -201c88 0 186 67 186 202v124c0 133 -97 199 -186 199c-90 0 -186 -66 -186 -200z" />
    <glyph glyph-name="one" unicode="1" horiz-adv-x="421" 
d="M47 0v87h126v479l-119 -33v97l224 70v-613h122v-87h-353z" />
    <glyph glyph-name="two" unicode="2" horiz-adv-x="664" 
d="M160 174v-77h343l6 99h95v-196h-550v175c0 158 143 205 280 205c63 0 165 23 165 114c0 93 -72 122 -158 122c-80 0 -178 -15 -180 -114h-105c10 161 136 207 285 207c130 0 262 -56 262 -213c0 -161 -128 -214 -269 -215c-70 0 -174 -18 -174 -107z" />
    <glyph glyph-name="three" unicode="3" horiz-adv-x="648" 
d="M246 376v-1c-2 -2 -2 -3 0 1zM326 -8c-121 0 -280 43 -280 203h105c3 -101 117 -107 177 -107c112 0 167 57 167 121c0 147 -128 147 -234 141l-15 25c17 23 153 207 171 230l-244 -1l-4 -100h-97v196h505v-42l-182 -229c122 -15 205 -78 205 -215
c0 -134 -109 -222 -274 -222z" />
    <glyph glyph-name="four" unicode="4" horiz-adv-x="669" 
d="M427 0v141h-401l-6 76l381 483h132v-461h102v-98h-102v-141h-106zM150 239h277v341z" />
    <glyph glyph-name="five" unicode="5" horiz-adv-x="647" 
d="M168 445h164c160 0 273 -75 273 -222c0 -145 -117 -230 -272 -230c-145 0 -279 51 -280 212h104c0 -91 99 -115 173 -115c91 0 171 46 171 133c0 80 -70 122 -169 122h-268v355h501v-97h-397v-158z" />
    <glyph glyph-name="six" unicode="6" horiz-adv-x="685" 
d="M168 492v-127c42 57 120 76 185 76c138 0 284 -59 284 -227c0 -156 -147 -226 -285 -226c-140 0 -288 72 -288 230v275c0 149 141 219 281 219c148 0 278 -60 281 -197h-104c-2 73 -87 108 -175 108c-92 1 -179 -48 -179 -131zM352 83c90 1 180 38 180 131
c0 95 -85 134 -177 134c-93 0 -185 -43 -185 -134c1 -93 93 -131 182 -131z" />
    <glyph glyph-name="seven" unicode="7" horiz-adv-x="561" 
d="M134 604l-3 -100h-94v196h511l8 -61l-331 -639h-118l317 604h-290z" />
    <glyph glyph-name="eight" unicode="8" horiz-adv-x="697" 
d="M51 205c0 67 46 132 122 157c-68 30 -106 75 -106 147c0 143 138 204 280 204c141 0 284 -61 285 -204c0 -61 -41 -120 -110 -145c75 -25 122 -95 124 -162c1 -170 -152 -218 -299 -217c-144 0 -298 45 -296 220zM525 512c1 76 -91 114 -179 114
c-94 0 -175 -45 -174 -114c2 -75 96 -110 175 -110c82 0 178 35 178 110zM347 321c-86 3 -191 -30 -192 -115c0 -85 91 -125 191 -125c99 0 195 38 194 124c0 83 -107 116 -193 116z" />
    <glyph glyph-name="nine" unicode="9" horiz-adv-x="685" 
d="M333 620c-87 -1 -179 -39 -179 -132s87 -134 178 -134c92 0 184 43 183 134c0 93 -91 132 -182 132zM517 210v131c-41 -62 -118 -80 -185 -80c-138 0 -284 59 -284 227c0 156 147 226 285 226c140 0 288 -72 288 -230v-275c0 -149 -141 -219 -281 -219
c-148 0 -280 60 -283 197h105c1 -69 88 -104 176 -104c88 -1 179 44 179 127z" />
    <glyph glyph-name="colon" unicode=":" horiz-adv-x="251" 
d="M126 286c-31 0 -61 20 -61 61c0 40 30 60 61 60c30 0 60 -20 60 -60c0 -41 -30 -61 -60 -61zM126 -7c-31 0 -61 20 -61 60c0 41 30 61 61 61c30 0 60 -20 60 -61c0 -40 -30 -60 -60 -60z" />
    <glyph glyph-name="semicolon" unicode=";" horiz-adv-x="256" 
d="M131 286c-31 0 -61 20 -61 59c0 41 30 61 61 61c30 0 60 -20 60 -59c0 -41 -30 -61 -60 -61zM144 -98h-62l26 99c-21 5 -40 21 -40 50c-1 81 121 78 122 -2c1 -6 -22 -69 -46 -147z" />
    <glyph glyph-name="less" unicode="&#x3c;" horiz-adv-x="376" 
d="M37 326l223 215l63 -67l-168 -159l170 -157l-65 -69l-223 215v22z" />
    <glyph glyph-name="equal" unicode="=" horiz-adv-x="557" 
d="M68 376v91h421v-91h-421zM68 158v92h421v-92h-421z" />
    <glyph glyph-name="greater" unicode="&#x3e;" horiz-adv-x="378" 
d="M116 541l225 -215v-22l-225 -215l-64 65l170 161l-169 162z" />
    <glyph glyph-name="question" unicode="?" horiz-adv-x="608" 
d="M133 496h-101c0 149 138 210 273 210c137 0 271 -52 269 -208c0 -145 -116 -165 -172 -196c-54 -24 -66 -44 -68 -119h-105c2 131 50 170 127 200c47 22 113 41 113 118c0 98 -96 113 -169 113s-166 -36 -167 -118zM286 -3c-34 0 -67 22 -67 66s33 67 67 67
c33 0 67 -22 67 -67c0 -44 -34 -66 -67 -66z" />
    <glyph glyph-name="at" unicode="@" horiz-adv-x="917" 
d="M458 582c-170 0 -322 -122 -322 -319c0 -207 152 -306 317 -306c45 0 97 13 146 37l39 -70c-64 -38 -126 -50 -186 -50c-217 0 -406 132 -406 389c0 247 187 399 412 399c244 0 406 -146 406 -389c0 -96 -32 -156 -69 -212c-67 -65 -176 -49 -173 41
c-34 -61 -116 -88 -170 -88c-139 0 -254 104 -254 247c0 159 112 249 254 249c62 0 131 -35 158 -84l6 58l78 -8v-358c0 -30 39 -26 54 4c19 43 33 93 33 152c0 212 -118 308 -323 308zM453 424c-99 0 -161 -62 -161 -162c0 -106 64 -160 160 -160c106 0 159 76 159 163
c0 83 -52 159 -158 159z" />
    <glyph glyph-name="A" unicode="A" horiz-adv-x="811" 
d="M276 294h263c-35 83 -70 171 -127 303c-60 -136 -101 -222 -136 -303zM76 97l233 508h-74v95h237l265 -603h65v-97h-260v97h84c-18 36 -31 73 -45 103h-346c-12 -29 -30 -66 -46 -103h81v-97h-259v97h65z" />
    <glyph glyph-name="B" unicode="B" horiz-adv-x="741" 
d="M433 0h-380v97h84v508h-82v95h378c132 0 237 -55 237 -199c0 -60 -32 -111 -98 -141c82 -21 120 -105 120 -162c0 -163 -124 -198 -259 -198zM241 605v-197h195c82 0 131 42 131 92c0 78 -54 105 -134 105h-192zM241 313v-217h192c64 0 152 16 152 106
c0 77 -84 111 -149 111h-195z" />
    <glyph glyph-name="C" unicode="C" horiz-adv-x="698" 
d="M413 712c81 0 161 -28 228 -80c0 -50 -2 -101 -3 -151h-94l-4 103c-40 21 -82 28 -127 28c-181 0 -264 -133 -262 -265c2 -126 75 -258 262 -258c65 0 139 27 187 75l75 -72c-72 -70 -165 -103 -262 -103c-252 0 -366 173 -367 357c-3 182 118 366 367 366z" />
    <glyph glyph-name="D" unicode="D" horiz-adv-x="784" 
d="M385 0h-332v97h84v509h-82v95h330c239 0 352 -154 351 -344s-106 -357 -351 -357zM243 96h142c175 0 244 135 246 262c1 126 -79 247 -246 247h-142v-509z" />
    <glyph glyph-name="E" unicode="E" horiz-adv-x="693" 
d="M240 99h306l4 106h94v-205h-591v97h84v508h-82v95h574v-201h-94l-4 105h-291v-198h297v-97h-297v-210z" />
    <glyph glyph-name="F" unicode="F" horiz-adv-x="634" 
d="M336 0h-284v97h83v508h-82v95h549v-201h-94l-4 107h-263v-199h279v-98h-279v-212h95v-97z" />
    <glyph glyph-name="G" unicode="G" horiz-adv-x="730" 
d="M412 712c92 0 173 -22 247 -81c0 -49 -1 -97 -2 -150h-95l-2 101c-43 21 -102 32 -148 32c-167 0 -260 -126 -260 -271c0 -130 78 -258 263 -258c69 0 112 15 165 63v129h-208v89h300v-258c-63 -82 -150 -122 -259 -122c-255 0 -366 170 -366 357c-1 203 131 369 365 369
z" />
    <glyph glyph-name="H" unicode="H" horiz-adv-x="842" 
d="M707 97h82v-97h-267v97h79v216h-361v-216h79v-97h-266v97h83v506h-84v97h267v-97h-79v-196h361v196h-79v97h268v-97h-83v-506z" />
    <glyph glyph-name="I" unicode="I" horiz-adv-x="382" 
d="M243 97h87v-97h-279v97h86v506h-84v97h275v-97h-85v-506z" />
    <glyph glyph-name="J" unicode="J" horiz-adv-x="680" 
d="M269 604v96h321v-412c4 -178 -108 -301 -291 -301c-171 0 -277 111 -277 295h106c0 -124 50 -196 171 -196c123 0 187 82 187 202v316h-217z" />
    <glyph glyph-name="K" unicode="K" horiz-adv-x="721" 
d="M241 95h90v-95h-277v95h83v508h-84v97h257v-97h-69v-232l251 232h-76v97h273v-97h-65l-232 -223l199 -285h112v-95h-231v89l-155 227l-76 -72v-149z" />
    <glyph glyph-name="L" unicode="L" horiz-adv-x="641" 
d="M135 603h-84v97h269v-97h-80v-507h276l4 107h93v-203h-556v95h78v508z" />
    <glyph glyph-name="M" unicode="M" horiz-adv-x="992" 
d="M938 0h-267v95h80v451l-244 -325h-23l-242 328v-454h79v-95h-270v95h86v508h-85v97h210l236 -335l233 335h208v-97h-84v-508h83v-95z" />
    <glyph glyph-name="N" unicode="N" horiz-adv-x="852" 
d="M323 0h-269v95h80v508h-84v97h161l411 -503v406h-84v97h268v-97h-80v-603h-71l-416 503v-408h84v-95z" />
    <glyph glyph-name="O" unicode="O" horiz-adv-x="806" 
d="M406 713c237 -2 355 -180 354 -366c-1 -182 -114 -362 -356 -362c-243 0 -358 178 -358 362c0 213 146 366 360 366zM655 347c1 132 -76 267 -249 270c-166 0 -254 -121 -254 -270c-1 -134 78 -263 253 -263c176 0 249 135 250 263z" />
    <glyph glyph-name="P" unicode="P" horiz-adv-x="725" 
d="M135 95v509h-84v96h398c331 0 331 -462 0 -463h-210v-142h86v-95h-269v95h79zM239 330h210c191 0 191 274 0 274h-210v-274z" />
    <glyph glyph-name="Q" unicode="Q" horiz-adv-x="807" 
d="M701 -32l-84 85c-54 -40 -127 -62 -212 -62c-246 0 -358 178 -359 363c1 185 115 362 359 362c245 0 355 -174 357 -359c0 -82 -23 -166 -71 -232l85 -82zM405 617c-171 -2 -255 -133 -253 -267c0 -130 83 -261 251 -261c172 0 254 136 251 270c-3 130 -73 258 -249 258z
" />
    <glyph glyph-name="R" unicode="R" horiz-adv-x="755" 
d="M514 86l-151 180h-121v-168h90v-98h-277v98h82v506h-84v96h393c132 0 242 -60 243 -211c0 -138 -84 -203 -211 -220l155 -171h84v-98h-203v86zM242 355h201c99 0 139 56 140 130c0 82 -60 119 -137 119h-204v-249z" />
    <glyph glyph-name="S" unicode="S" horiz-adv-x="656" 
d="M321 -15c-104 0 -183 22 -264 94c0 -14 0 126 0 138v0h95l5 -88c44 -29 112 -46 165 -46c86 0 189 23 189 116c1 90 -137 107 -193 114c-136 19 -262 55 -262 205c-3 150 148 196 266 197c93 0 171 -16 251 -81c0 -53 -1 -88 -1 -141h-93l-5 95c-46 25 -105 34 -149 34
c-80 0 -166 -32 -166 -107c0 -69 75 -91 170 -106c146 -20 288 -53 288 -210c-2 -168 -160 -214 -296 -214z" />
    <glyph glyph-name="T" unicode="T" horiz-adv-x="654" 
d="M466 0h-279v96h88v511h-147l-4 -107h-92v200h590v-200h-93l-5 107h-145v-511h87v-96z" />
    <glyph glyph-name="U" unicode="U" horiz-adv-x="823" 
d="M414 81c104 0 191 74 191 207v316h-90v96h271v-96h-79v-318c0 -206 -140 -303 -293 -303c-147 0 -298 94 -298 303v318h-78v96h272v-96h-90v-318c0 -135 90 -205 194 -205z" />
    <glyph glyph-name="V" unicode="V" horiz-adv-x="784" 
d="M334 -2l-250 606h-71v96h266v-96h-79l191 -480l193 480h-79v96h267v-96h-73l-250 -606h-115z" />
    <glyph glyph-name="W" unicode="W" horiz-adv-x="1141" 
d="M1058 604l-213 -605h-101l-173 465l-169 -465h-107l-210 605h-71v96h267v-96h-78l150 -456l184 533h70l186 -533l146 456h-79v96h268v-96h-70z" />
    <glyph glyph-name="X" unicode="X" horiz-adv-x="700" 
d="M349 439l124 165h-89v96h281v-96h-74l-183 -247l186 -262h89v-95h-202v86l-134 191l-131 -182h90v-95h-287v95h77l192 264l-173 245h-81v96h194v-88z" />
    <glyph glyph-name="Y" unicode="Y" horiz-adv-x="704" 
d="M404 95h87v-95h-280v95h86v191l-209 318h-69v96h271v-96h-76l54 -84l83 -133l90 137l53 80h-76v96h270v-96h-68l-216 -318v-191z" />
    <glyph glyph-name="Z" unicode="Z" horiz-adv-x="621" 
d="M162 602l-2 -99h-98v197h495v-46l-369 -554h288l4 115h95v-215h-536v57l363 545h-240z" />
    <glyph glyph-name="bracketleft" unicode="[" horiz-adv-x="349" 
d="M90 -175v886h222v-89h-122v-706h122v-91h-222z" />
    <glyph glyph-name="backslash" unicode="\" horiz-adv-x="491" 
d="M469 -82h-103l-345 846h103z" />
    <glyph glyph-name="bracketright" unicode="]" horiz-adv-x="348" 
d="M258 712v-886h-222v91h122v706h-122v89h222z" />
    <glyph glyph-name="asciicircum" unicode="^" horiz-adv-x="612" 
d="M144 348h-103l-1 6l230 347h68l234 -347v-6h-108l-160 245z" />
    <glyph glyph-name="underscore" unicode="_" horiz-adv-x="599" 
d="M64 -98v87h471v-87h-471z" />
    <glyph glyph-name="grave" unicode="`" horiz-adv-x="236" 
d="M199 563h-90l-105 137h120l75 -131v-6z" />
    <glyph glyph-name="a" unicode="a" horiz-adv-x="683" 
d="M302 408c-91 0 -163 -66 -163 -165c0 -100 71 -167 163 -167c106 0 168 75 172 160c4 94 -56 172 -172 172zM568 88h77v-88h-165c0 -13 -12 81 -12 67c-39 -62 -108 -80 -171 -81c-146 0 -256 97 -256 261c0 162 114 257 258 257c70 0 135 -29 172 -85l1 76h170v-90h-74
v-317z" />
    <glyph glyph-name="b" unicode="b" horiz-adv-x="673" 
d="M200 0h-172v89h79v524h-77v87h176v-284c28 56 110 88 174 88c142 0 252 -85 252 -257c0 -165 -109 -256 -253 -255c-67 0 -138 24 -173 83zM371 412c-80 0 -159 -59 -159 -163c0 -105 77 -165 161 -165c88 0 158 60 158 163c0 109 -72 165 -160 165z" />
    <glyph glyph-name="c" unicode="c" horiz-adv-x="527" 
d="M434 135l64 -67c-53 -55 -120 -77 -190 -77c-137 0 -267 90 -267 256c0 186 128 257 262 257c63 0 123 -16 178 -43l-6 -135h-88v79c-23 9 -61 11 -82 11c-102 -2 -165 -76 -165 -169c0 -105 88 -162 170 -162c43 0 93 14 124 50z" />
    <glyph glyph-name="d" unicode="d" horiz-adv-x="668" 
d="M302 414c-87 0 -162 -55 -162 -166c0 -103 72 -162 160 -162c79 0 162 60 162 162c0 104 -76 166 -160 166zM564 89h78v-89h-162c0 -13 -14 95 -14 82c-40 -61 -104 -90 -175 -90c-140 0 -250 90 -250 255c0 171 110 257 249 257c66 0 139 -27 175 -88v197h-76v87h175
v-611z" />
    <glyph glyph-name="e" unicode="e" 
d="M453 135l65 -61c-51 -57 -137 -85 -213 -85c-160 0 -265 105 -265 261c0 148 108 257 260 257c157 0 266 -99 247 -298h-406c8 -74 75 -128 167 -128c51 0 114 19 145 54zM141 291h311c-6 82 -65 127 -149 127c-76 0 -146 -46 -162 -127z" />
    <glyph glyph-name="f" unicode="f" horiz-adv-x="369" 
d="M224 88h86v-87h-262v87h78v317h-95v82h95v35c0 121 74 186 179 185c30 0 63 -9 93 -23l-29 -81c-23 12 -38 19 -62 19c-49 0 -83 -37 -83 -100v-35h123v-82h-123v-317z" />
    <glyph glyph-name="g" unicode="g" horiz-adv-x="611" 
d="M139 260c3 -103 77 -160 168 -160c94 0 164 68 164 158c0 101 -77 158 -166 158c-82 0 -166 -52 -166 -156zM45 -76h95c2 -92 80 -127 163 -128c79 0 161 26 161 107c0 67 -67 111 -159 111c-158 0 -264 92 -264 246c0 164 135 247 264 247c42 0 100 -10 135 -34l54 65
l70 -56l-58 -68c41 -47 61 -91 61 -154c0 -86 -40 -161 -129 -195c99 -32 127 -99 127 -160c0 -131 -128 -199 -262 -199c-158 0 -261 83 -258 218z" />
    <glyph glyph-name="h" unicode="h" horiz-adv-x="665" 
d="M107 86v529h-76v86h174v-278c42 55 104 77 163 77c140 0 210 -98 210 -235v-179h78v-86h-235v86h60v177c0 91 -49 145 -130 144c-88 -1 -145 -67 -145 -151v-170h77v-86h-256v86h80z" />
    <glyph glyph-name="i" unicode="i" horiz-adv-x="320" 
d="M167 577c-32 0 -62 22 -62 63c0 40 30 61 62 61s62 -22 62 -63c0 -39 -30 -61 -62 -61zM41 496h174v-407h73v-89h-249v89h77v320h-75v87z" />
    <glyph glyph-name="j" unicode="j" horiz-adv-x="284" 
d="M161 581c-32 0 -62 22 -62 63c0 40 30 61 61 61c32 0 63 -22 63 -63c0 -39 -31 -61 -62 -61zM25 494h184v-551c0 -122 -45 -188 -154 -188c-35 0 -69 8 -102 29l33 79c21 -10 44 -16 63 -16c52 3 62 37 62 96v463h-86v88z" />
    <glyph glyph-name="k" unicode="k" horiz-adv-x="581" 
d="M107 611h-75v89h172v-413l88 79l60 47l-60 3v79h249v-82h-61l-153 -124l148 -200h82v-89h-179v55l-125 173l-49 -39v-100h66v-89h-240v89h77v522z" />
    <glyph glyph-name="l" unicode="l" horiz-adv-x="313" 
d="M33 612v88h174v-611h74v-89h-251v89h79v523h-76z" />
    <glyph glyph-name="m" unicode="m" horiz-adv-x="984" 
d="M295 0h-256v89h80v318h-77v87h170l8 -65c28 52 85 74 136 74c79 0 133 -28 158 -101c38 72 103 101 169 101c145 0 209 -87 209 -226v-188h79v-89h-249v89h73v188c0 76 -30 132 -114 132c-75 0 -123 -62 -123 -134v-186h75v-89h-249v89h76v186c0 76 -37 134 -120 134
c-75 1 -121 -61 -121 -134v-186h76v-89z" />
    <glyph glyph-name="n" unicode="n" horiz-adv-x="678" 
d="M218 262v-173h78v-89h-256v89h80v319h-78v88h167l7 -67c48 55 90 74 154 74c148 0 218 -86 218 -235v-179h80v-89h-246v89h67v178c0 100 -31 143 -128 143c-83 0 -143 -55 -143 -148z" />
    <glyph glyph-name="o" unicode="o" horiz-adv-x="597" 
d="M40 246c0 150 107 260 258 260c156 0 259 -109 259 -260c0 -146 -105 -256 -259 -256c-153 0 -258 110 -258 256zM459 246c0 100 -68 170 -160 170c-95 0 -160 -70 -160 -170c0 -92 63 -163 159 -163c97 0 160 71 161 163z" />
    <glyph glyph-name="p" unicode="p" horiz-adv-x="672" 
d="M372 78c90 0 160 64 160 166c0 107 -64 161 -158 161c-88 0 -159 -67 -159 -161c0 -98 71 -163 157 -166zM105 408h-77v88h172c0 13 4 -105 4 -91c41 58 104 96 181 97c145 -4 246 -95 246 -256c0 -157 -100 -258 -252 -258c-65 0 -134 24 -177 88v-219h80v-89h-244v89
h67v551z" />
    <glyph glyph-name="q" unicode="q" horiz-adv-x="640" 
d="M471 496h94v-639h67v-90h-241v90h78v218c-40 -63 -113 -87 -176 -87c-154 0 -252 102 -252 260c0 152 99 253 245 254c77 0 143 -34 181 -94zM303 83c85 0 157 68 157 164s-72 163 -159 163c-95 0 -160 -64 -160 -164c0 -102 61 -163 162 -163z" />
    <glyph glyph-name="r" unicode="r" horiz-adv-x="492" 
d="M119 87v321h-76v88h161l12 -52c34 48 92 62 147 62c50 0 90 -16 124 -41l-45 -85c-27 18 -52 29 -87 29c-92 -2 -137 -44 -137 -139v-183h76v-87h-256v87h81z" />
    <glyph glyph-name="s" unicode="s" horiz-adv-x="514" 
d="M448 468l-1 -129h-84l-6 72c-20 11 -76 16 -99 16c-62 2 -112 -25 -111 -71c1 -42 56 -55 111 -60c93 -11 218 -29 216 -157c-3 -99 -94 -153 -214 -153c-81 0 -142 18 -212 60l2 130h87l4 -71c39 -19 80 -27 121 -27c42 0 112 7 115 65c1 46 -51 62 -125 69
c-101 13 -201 38 -201 144c-1 110 114 156 205 155c64 0 137 -15 192 -43z" />
    <glyph glyph-name="t" unicode="t" horiz-adv-x="387" 
d="M107 624l99 11v-142h145v-85h-146v-241c0 -53 21 -85 71 -85c21 0 42 6 62 16l28 -82c-34 -15 -61 -22 -95 -23c-106 -3 -164 61 -164 174v241h-96v85h96v131z" />
    <glyph glyph-name="u" unicode="u" horiz-adv-x="675" 
d="M567 496v-407h79v-89h-156l-18 68c-47 -53 -103 -73 -165 -74c-151 0 -218 93 -218 234v181h-74v87h173v-267c0 -93 39 -142 140 -142c84 1 140 65 140 148v174h-80v87h179z" />
    <glyph glyph-name="v" unicode="v" horiz-adv-x="644" 
d="M267 -4l-179 413h-72v86h231v-86h-56l77 -163l55 -145l52 144l76 164h-55v86h233v-86h-73l-180 -413h-109z" />
    <glyph glyph-name="w" unicode="w" horiz-adv-x="910" 
d="M232 -3l-142 412h-75v86h239v-86h-58l96 -309l122 395h83l122 -395l95 309h-65v86h244v-86h-72l-143 -412h-113l-68 182l-42 160l-45 -160l-65 -182h-113z" />
    <glyph glyph-name="x" unicode="x" horiz-adv-x="554" 
d="M253 0h-224v88h55l126 164l-102 157h-67v87h169v-75l70 -106l35 47l36 49h-58v85h228v-85h-62l-118 -160l112 -163h67v-88h-172v76l-76 112l-80 -100h61v-88z" />
    <glyph glyph-name="y" unicode="y" horiz-adv-x="610" 
d="M421 408h-74v88h245v-88h-63l-220 -536c-50 -120 -151 -123 -251 -72l36 82c44 -20 94 -36 120 19l39 105l-171 402h-66v88h233v-87h-56l68 -153l51 -141l48 137z" />
    <glyph glyph-name="z" unicode="z" horiz-adv-x="503" 
d="M143 405l-2 -65h-89v156h389v-58l-251 -345h173l5 85h89v-178h-418v39l264 366h-160z" />
    <glyph glyph-name="braceleft" unicode="{" horiz-adv-x="340" 
d="M35 324c64 0 73 51 73 94v131c0 121 48 185 195 159v-73c-82 15 -96 -15 -96 -90v-127c0 -58 2 -112 -70 -131c73 -20 72 -75 72 -131v-138c0 -75 9 -98 95 -88l-1 -76c-152 -22 -195 38 -195 159v141c0 43 -9 95 -73 95v75z" />
    <glyph glyph-name="bar" unicode="|" horiz-adv-x="280" 
d="M91 734h98v-829h-98v829z" />
    <glyph glyph-name="braceright" unicode="}" horiz-adv-x="340" 
d="M305 317v-74c-64 0 -73 -51 -73 -94v-141c0 -122 -43 -183 -195 -160v74c88 -11 97 12 97 87v137c0 58 -1 113 71 133c-74 21 -72 74 -72 132v126c0 75 -14 105 -96 90v74c147 25 195 -39 195 -160v-130c0 -42 9 -94 73 -94z" />
    <glyph glyph-name="asciitilde" unicode="~" horiz-adv-x="624" 
d="M492 368l74 -28c-31 -93 -103 -152 -197 -108l-144 68c-34 7 -68 20 -98 -60l-68 29c32 92 111 145 192 108l142 -68c43 -23 77 1 99 59z" />
    <glyph glyph-name="Adieresis" unicode="&#xc4;" horiz-adv-x="811" 
d="M222 799c0 41 31 61 61 62c31 0 62 -20 62 -60s-31 -60 -62 -61c-30 0 -61 20 -61 59zM460 799c0 41 31 61 61 61c31 0 62 -20 62 -61c0 -40 -31 -60 -62 -60c-30 0 -61 20 -61 60zM276 294h263c-35 83 -70 171 -127 303c-60 -136 -101 -222 -136 -303zM189 97h81v-97
h-259v97h65l233 508h-74v95h237l265 -603h65v-97h-260v97h84c-18 36 -31 73 -45 103h-346c-12 -29 -30 -66 -46 -103z" />
    <glyph glyph-name="Aring" unicode="&#xc5;" horiz-adv-x="811" 
d="M413 807c-40 0 -55 -30 -55 -51c0 -23 14 -52 55 -52c42 0 58 29 57 51c0 23 -16 52 -57 52zM276 294h263c20 -47 -112 290 -126 321zM334 662c-59 35 -46 109 -46 94c0 74 62 113 125 113c61 0 126 -37 126 -112c0 -44 -20 -75 -51 -96l249 -564h65v-97h-261v97h84
c-17 36 -31 73 -44 103h-346l-46 -103h81v-97h-259v97h65z" />
    <glyph glyph-name="Ccedilla" unicode="&#xc7;" horiz-adv-x="698" 
d="M600 164l75 -72c-67 -65 -148 -99 -241 -103l-20 -55c90 -1 110 -60 100 -109c-13 -60 -68 -90 -124 -90c-48 0 -99 22 -124 66l47 39c17 -26 47 -38 74 -36c23 1 43 11 50 31c11 37 -39 65 -89 41l-21 17l37 99c-219 20 -317 182 -318 354c-3 182 118 366 367 366
c81 0 161 -28 228 -80c0 -50 -2 -101 -3 -151h-94l-4 103c-40 21 -82 28 -127 28c-181 0 -264 -133 -262 -265c2 -126 75 -258 262 -258c65 0 139 27 187 75z" />
    <glyph glyph-name="Eacute" unicode="&#xc9;" horiz-adv-x="693" 
d="M409 745h-90v6l73 131h122zM240 99h306l4 106h94v-205h-591v97h84v508h-82v95h574v-201h-94l-4 105h-291v-198h297v-97h-297v-210z" />
    <glyph glyph-name="Ntilde" unicode="&#xd1;" horiz-adv-x="852" 
d="M253 802c17 67 74 104 138 85c17 -4 53 -25 69 -29c18 -6 45 -1 55 28l74 -29c-20 -79 -85 -102 -136 -85c-18 4 -54 26 -68 29c-21 4 -46 -1 -59 -34zM323 0h-269v95h80v508h-84v97h161l411 -503v406h-84v97h268v-97h-80v-603h-71l-416 503v-408h84v-95z" />
    <glyph glyph-name="Odieresis" unicode="&#xd6;" horiz-adv-x="806" 
d="M361 837c0 -81 -124 -81 -124 0c0 82 124 82 124 0zM597 837c0 -81 -124 -81 -124 -1c0 82 124 82 124 1zM406 713c237 -2 355 -180 354 -366c-1 -182 -114 -362 -356 -362c-243 0 -358 178 -358 362c0 213 146 366 360 366zM655 347c1 132 -76 267 -249 270
c-166 0 -254 -121 -254 -270c-1 -134 78 -263 253 -263c176 0 249 135 250 263z" />
    <glyph glyph-name="Udieresis" unicode="&#xdc;" horiz-adv-x="823" 
d="M238 757c-31 0 -62 20 -62 59c0 41 31 61 62 61c30 0 61 -20 61 -60s-31 -60 -61 -60zM576 756c-31 0 -62 20 -62 60c0 41 31 61 62 61c30 0 61 -20 61 -61c0 -40 -31 -60 -61 -60zM414 81c104 0 191 74 191 207v316h-90v96h271v-96h-79v-318c0 -206 -140 -303 -293 -303
c-147 0 -298 94 -298 303v318h-78v96h272v-96h-90v-318c0 -135 90 -205 194 -205z" />
    <glyph glyph-name="aacute" unicode="&#xe1;" horiz-adv-x="683" 
d="M333 580h-87v6l57 117h115zM302 408c-91 0 -163 -66 -163 -165c0 -100 71 -167 163 -167c106 0 168 75 172 160c4 94 -56 172 -172 172zM568 88h77v-88h-165c0 -13 -12 81 -12 67c-39 -62 -108 -80 -171 -81c-146 0 -256 97 -256 261c0 162 114 257 258 257
c70 0 135 -29 172 -85l1 76h170v-90h-74v-317z" />
    <glyph glyph-name="agrave" unicode="&#xe0;" horiz-adv-x="683" 
d="M280 580l-86 123h115l57 -117v-6h-86zM302 76c106 0 168 75 172 160c4 94 -56 172 -172 172c-91 0 -163 -66 -163 -165c0 -100 71 -167 163 -167zM568 88h77v-88h-165c0 -13 -12 81 -12 67c-39 -62 -108 -80 -171 -81c-146 0 -256 97 -256 261c0 162 114 257 258 257
c70 0 135 -29 172 -85l1 76h170v-90h-74v-317z" />
    <glyph glyph-name="acircumflex" unicode="&#xe2;" horiz-adv-x="683" 
d="M153 564v9l142 140h56l143 -141v-8h-96l-75 74l-74 -74h-96zM302 408c-91 0 -163 -66 -163 -165c0 -100 71 -167 163 -167c106 0 168 75 172 160c4 94 -56 172 -172 172zM568 88h77v-88h-165c0 -13 -12 81 -12 67c-39 -62 -108 -80 -171 -81c-146 0 -256 97 -256 261
c0 162 114 257 258 257c70 0 135 -29 172 -85l1 76h170v-90h-74v-317z" />
    <glyph glyph-name="adieresis" unicode="&#xe4;" horiz-adv-x="683" 
d="M205 584c-31 0 -62 20 -62 59c0 41 31 61 62 61c30 0 61 -20 61 -60s-31 -60 -61 -60zM443 583c-31 0 -62 20 -62 60c0 41 31 61 62 61c30 0 61 -20 61 -61c0 -40 -31 -60 -61 -60zM302 76c106 0 168 75 172 160c4 94 -56 172 -172 172c-91 0 -163 -66 -163 -165
c0 -100 71 -167 163 -167zM568 88h77v-88h-165c0 -13 -12 81 -12 67c-39 -62 -108 -80 -171 -81c-146 0 -256 97 -256 261c0 162 114 257 258 257c70 0 135 -29 172 -85l1 76h170v-90h-74v-317z" />
    <glyph glyph-name="atilde" unicode="&#xe3;" horiz-adv-x="683" 
d="M241 590l-68 32c16 62 70 96 128 79c16 -3 49 -23 63 -27c18 -4 41 -1 50 26l69 -27c-18 -72 -79 -93 -125 -78c-16 4 -49 23 -62 26c-19 4 -43 -1 -55 -31zM302 76c106 0 168 75 172 160c4 94 -56 172 -172 172c-91 0 -163 -66 -163 -165c0 -100 71 -167 163 -167z
M568 88h77v-88h-165c0 -13 -12 81 -12 67c-39 -62 -108 -80 -171 -81c-146 0 -256 97 -256 261c0 162 114 257 258 257c70 0 135 -29 172 -85l1 76h170v-90h-74v-317z" />
    <glyph glyph-name="aring" unicode="&#xe5;" horiz-adv-x="683" 
d="M323 556c-67 0 -117 41 -117 96c0 67 59 102 118 102c60 0 120 -34 120 -101c0 -65 -57 -97 -121 -97zM324 698c-38 0 -52 -25 -52 -42c0 -18 14 -42 52 -42c40 0 55 24 55 42c-1 18 -16 42 -55 42zM302 76c106 0 168 75 172 160c4 94 -56 172 -172 172
c-91 0 -163 -66 -163 -165c0 -100 71 -167 163 -167zM568 88h77v-88h-165c0 -13 -12 81 -12 67c-39 -62 -108 -80 -171 -81c-146 0 -256 97 -256 261c0 162 114 257 258 257c70 0 135 -29 172 -85l1 76h170v-90h-74v-317z" />
    <glyph glyph-name="ccedilla" unicode="&#xe7;" horiz-adv-x="527" 
d="M435 135l64 -67c-50 -51 -109 -72 -172 -77h-7l-13 -45c90 0 112 -56 100 -109c-13 -61 -69 -88 -127 -85c-47 3 -95 26 -121 63l47 40c10 -13 45 -32 74 -34c23 -3 44 5 49 26c10 34 -36 65 -87 42l-22 17l28 91c-115 23 -207 100 -207 250c0 186 129 257 262 257
c63 0 123 -16 178 -43l-5 -135h-88v79c-23 9 -61 11 -83 11c-102 -2 -165 -76 -165 -169c0 -113 88 -162 170 -162c44 0 93 14 125 50z" />
    <glyph glyph-name="eacute" unicode="&#xe9;" 
d="M236 578l74 131h121l-105 -136h-90v5zM300 507c157 0 266 -99 247 -298h-406c8 -74 75 -128 167 -128c51 0 114 19 145 54l65 -61c-51 -57 -137 -85 -213 -85c-160 0 -265 105 -265 261c0 148 108 257 260 257zM452 291c-6 82 -65 127 -149 127c-76 0 -146 -46 -162 -127
h311z" />
    <glyph glyph-name="egrave" unicode="&#xe8;" 
d="M281 571l-105 137h122l73 -131v-6h-90zM453 135l65 -61c-51 -57 -137 -85 -213 -85c-160 0 -265 105 -265 261c0 148 108 257 260 257c157 0 266 -99 247 -298h-406c8 -74 75 -128 167 -128c51 0 114 19 145 54zM141 291h311c-6 82 -65 127 -149 127
c-76 0 -146 -46 -162 -127z" />
    <glyph glyph-name="ecircumflex" unicode="&#xea;" 
d="M128 571l150 138h59l150 -138v-8h-103l-76 70l-77 -70h-103v8zM453 135l65 -61c-51 -57 -137 -85 -213 -85c-160 0 -265 105 -265 261c0 148 108 257 260 257c157 0 266 -99 247 -298h-406c8 -74 75 -128 167 -128c51 0 114 19 145 54zM141 291h311
c-6 82 -65 127 -149 127c-76 0 -146 -46 -162 -127z" />
    <glyph glyph-name="edieresis" unicode="&#xeb;" 
d="M260 650c0 -82 -125 -82 -125 -1c0 82 125 82 125 1zM478 649c0 -82 -125 -82 -125 0s125 82 125 0zM453 135l65 -61c-51 -57 -137 -85 -213 -85c-160 0 -265 105 -265 261c0 148 108 257 260 257c157 0 266 -99 247 -298h-406c8 -74 75 -128 167 -128
c51 0 114 19 145 54zM141 291h311c-6 82 -65 127 -149 127c-76 0 -146 -46 -162 -127z" />
    <glyph glyph-name="iacute" unicode="&#xed;" horiz-adv-x="321" 
d="M103 571l41 133h106l-64 -139h-83v6zM41 496h175v-407h73v-89h-249v89h76v320h-75v87z" />
    <glyph glyph-name="igrave" unicode="&#xec;" horiz-adv-x="320" 
d="M133 564l-65 139h107l41 -133v-6h-83zM41 496h174v-407h73v-89h-249v89h77v320h-75v87z" />
    <glyph glyph-name="icircumflex" unicode="&#xee;" horiz-adv-x="321" 
d="M24 562v15l110 126h48l108 -128v-13h-84l-49 49l-50 -49h-83zM41 409v87h175v-407h73v-89h-249v89h76v320h-75z" />
    <glyph glyph-name="idieresis" unicode="&#xef;" horiz-adv-x="321" 
d="M236 561c-31 0 -62 21 -62 61s31 60 62 60s62 -20 62 -60s-31 -61 -62 -61zM77 561c-31 0 -62 21 -62 61s31 60 62 60s62 -20 62 -60s-31 -61 -62 -61zM41 496h175v-407h73v-89h-249v89h76v320h-75v87z" />
    <glyph glyph-name="ntilde" unicode="&#xf1;" horiz-adv-x="678" 
d="M320 718c16 -4 47 -25 62 -29c16 -4 39 -1 48 27l67 -28c-17 -74 -77 -96 -122 -80c-16 4 -47 24 -60 27c-18 4 -42 -1 -54 -32l-67 33c16 64 69 99 126 82zM218 262v-173h78v-89h-256v89h80v319h-78v88h167l7 -67c48 55 90 74 154 74c148 0 218 -86 218 -235v-179h80
v-89h-246v89h67v178c0 100 -31 143 -128 143c-83 0 -143 -55 -143 -148z" />
    <glyph glyph-name="oacute" unicode="&#xf3;" horiz-adv-x="597" 
d="M332 569h-89v5l72 126h121zM40 246c0 150 107 260 258 260c156 0 259 -109 259 -260c0 -146 -105 -256 -259 -256c-153 0 -258 110 -258 256zM459 246c0 100 -68 170 -160 170c-95 0 -160 -70 -160 -170c0 -92 63 -163 159 -163c97 0 160 71 161 163z" />
    <glyph glyph-name="ograve" unicode="&#xf2;" horiz-adv-x="597" 
d="M260 574l-123 174l163 -40l86 -167l-26 32zM40 246c0 150 107 260 258 260c156 0 259 -109 259 -260c0 -146 -105 -256 -259 -256c-153 0 -258 110 -258 256zM459 246c0 100 -68 170 -160 170c-95 0 -160 -70 -160 -170c0 -92 63 -163 159 -163c97 0 160 71 161 163z" />
    <glyph glyph-name="ocircumflex" unicode="&#xf4;" horiz-adv-x="597" 
d="M328 710l153 -137v-8h-103l-79 70l-79 -70h-103v8l152 137h59zM40 246c0 150 107 260 258 260c156 0 259 -109 259 -260c0 -146 -105 -256 -259 -256c-153 0 -258 110 -258 256zM459 246c0 100 -68 170 -160 170c-95 0 -160 -70 -160 -170c0 -92 63 -163 159 -163
c97 0 160 71 161 163z" />
    <glyph glyph-name="odieresis" unicode="&#xf6;" horiz-adv-x="597" 
d="M249 636c0 -82 -126 -82 -126 0c0 84 126 84 126 0zM468 636c0 -82 -126 -82 -126 -1c0 83 126 83 126 1zM40 246c0 150 107 260 258 260c156 0 259 -109 259 -260c0 -146 -105 -256 -259 -256c-153 0 -258 110 -258 256zM459 246c0 100 -68 170 -160 170
c-95 0 -160 -70 -160 -170c0 -92 63 -163 159 -163c97 0 160 71 161 163z" />
    <glyph glyph-name="otilde" unicode="&#xf5;" horiz-adv-x="597" 
d="M273 703c18 -4 50 -25 65 -26c16 -3 39 2 49 28l66 -28c-17 -73 -76 -94 -121 -79c-16 4 -46 23 -61 27c-19 5 -44 1 -58 -32l-65 31c16 61 68 94 125 79zM40 246c0 150 107 260 258 260c156 0 259 -109 259 -260c0 -146 -105 -256 -259 -256c-153 0 -258 110 -258 256z
M459 246c0 100 -68 170 -160 170c-95 0 -160 -70 -160 -170c0 -92 63 -163 159 -163c97 0 160 71 161 163z" />
    <glyph glyph-name="uacute" unicode="&#xfa;" horiz-adv-x="675" 
d="M350 569h-90v6l74 131h121zM567 496v-407h79v-89h-156l-18 68c-47 -53 -103 -73 -165 -74c-151 0 -218 93 -218 234v181h-74v87h173v-267c0 -93 39 -142 140 -142c84 1 140 65 140 148v174h-80v87h179z" />
    <glyph glyph-name="ugrave" unicode="&#xf9;" horiz-adv-x="675" 
d="M363 569h-90l-105 136h120l75 -131v-5zM567 496v-407h79v-89h-156l-18 68c-47 -53 -103 -73 -165 -74c-151 0 -218 93 -218 234v181h-74v87h173v-267c0 -93 39 -142 140 -142c84 1 140 65 140 148v174h-80v87h179z" />
    <glyph glyph-name="ucircumflex" unicode="&#xfb;" horiz-adv-x="675" 
d="M121 565v8l152 140h59l152 -140v-8h-102l-80 73l-79 -73h-102zM567 496v-407h79v-89h-156l-18 68c-47 -53 -103 -73 -165 -74c-151 0 -218 93 -218 234v181h-74v87h173v-267c0 -93 39 -142 140 -142c84 1 140 65 140 148v174h-80v87h179z" />
    <glyph glyph-name="udieresis" unicode="&#xfc;" horiz-adv-x="675" 
d="M189 577c-31 0 -61 19 -61 59s30 61 61 61c30 0 61 -20 61 -60s-30 -60 -61 -60zM427 576c-31 0 -61 20 -61 60s30 61 61 61c30 0 61 -21 61 -61s-30 -60 -61 -60zM567 496v-407h79v-89h-156l-18 68c-47 -53 -103 -73 -165 -74c-151 0 -218 93 -218 234v181h-74v87h173
v-267c0 -93 39 -142 140 -142c84 1 140 65 140 148v174h-80v87h179z" />
    <glyph glyph-name="dagger" unicode="&#x2020;" horiz-adv-x="572" 
d="M541 509v-91h-201v-539h-107v539h-202v91h202v189h107v-189h201z" />
    <glyph glyph-name="degree" unicode="&#xb0;" horiz-adv-x="332" 
d="M168 489c-165 0 -159 230 -1 230c155 0 159 -230 1 -230zM166 659c-75 0 -78 -111 -1 -111c75 0 74 111 1 111z" />
    <glyph glyph-name="cent" unicode="&#xa2;" horiz-adv-x="522" 
d="M250 -89l-2 72c-121 22 -209 119 -209 252c0 127 83 229 211 253v68h92v-68c53 -9 101 -35 141 -75l-60 -62c-32 31 -82 51 -123 51c-89 0 -162 -67 -162 -167c0 -101 73 -166 162 -166c41 0 89 24 121 55l62 -72c-40 -38 -87 -62 -141 -71v-70h-92z" />
    <glyph glyph-name="sterling" unicode="&#xa3;" horiz-adv-x="659" 
d="M54 0l2 98c78 45 98 117 92 190h-93v83h74c-9 36 -21 74 -21 115c0 144 101 223 250 223c132 0 231 -56 236 -201h-95c-4 84 -65 109 -141 109c-98 0 -149 -54 -149 -128c0 -41 9 -76 17 -115h229v-84h-210c6 -62 -5 -155 -72 -197h333l4 106h94v-199h-550z" />
    <glyph glyph-name="section" unicode="&#xa7;" horiz-adv-x="588" 
d="M295 281c69 0 135 26 135 69c2 38 -62 67 -134 69c-64 2 -135 -22 -136 -71c-1 -45 68 -67 135 -67zM306 713c72 0 161 -19 212 -75l-67 -56c-25 26 -92 43 -147 43c-88 0 -136 -22 -136 -62c-1 -47 76 -58 131 -63c105 -8 246 -33 235 -149c-4 -51 -37 -87 -84 -102
c52 -23 82 -59 82 -112c0 -117 -150 -155 -241 -155c-95 0 -187 30 -239 97l65 67c47 -53 111 -73 176 -71c64 0 138 18 138 63c2 45 -58 62 -137 62c-113 5 -237 26 -234 148c1 39 32 82 80 105c-56 17 -78 68 -76 109c5 119 142 152 242 151z" />
    <glyph glyph-name="paragraph" unicode="&#xb6;" horiz-adv-x="822" 
d="M591 603h-223v-819h-100v396c-161 11 -241 135 -240 258c1 131 89 261 264 261h494v-96h-97v-817h-98v817z" />
    <glyph glyph-name="germandbls" unicode="&#xdf;" horiz-adv-x="646" 
d="M104 517c0 132 115 195 228 195c128 0 230 -60 230 -190c0 -58 -38 -112 -101 -129c-3 -1 -18 -3 -38 -4c17 1 35 -1 38 -2c108 -28 145 -110 145 -181c0 -149 -100 -216 -222 -216c-35 0 -72 4 -111 15l-2 90c37 -12 68 -18 96 -18c85 0 138 55 138 123
c0 101 -87 141 -172 141h-59v93h55c55 0 128 19 130 86c2 78 -67 99 -125 99c-79 0 -123 -40 -126 -103l2 -516h-181v87h75v430z" />
    <glyph glyph-name="registered" unicode="&#xae;" horiz-adv-x="818" 
d="M409 715c233 0 361 -164 361 -365c0 -200 -128 -365 -361 -365c-230 0 -361 166 -361 365c0 201 131 365 361 365zM138 350c0 -169 96 -284 271 -284c174 0 273 127 273 285c0 160 -99 286 -273 286c-173 0 -271 -126 -271 -287zM353 362h90c74 0 74 103 1 103h-91v-103z
M271 170v372h173c163 0 183 -207 47 -238l98 -116v-18h-89l-94 123h-53v-123h-82z" />
    <glyph glyph-name="copyright" unicode="&#xa9;" horiz-adv-x="823" 
d="M414 717c220 0 361 -164 361 -365c0 -200 -130 -365 -361 -365c-232 0 -367 166 -367 365c0 201 135 365 367 365zM137 351c0 -160 103 -286 277 -286c173 0 271 126 271 286s-98 286 -271 286c-174 0 -277 -126 -277 -286zM566 490l-54 -59c-24 24 -50 35 -83 35
c-67 0 -120 -48 -120 -115c0 -66 53 -112 119 -112c35 0 60 13 85 38l56 -56c-39 -39 -86 -60 -143 -60c-113 0 -202 76 -202 193s88 196 201 196c55 0 102 -21 141 -60z" />
    <glyph glyph-name="trademark" unicode="&#x2122;" horiz-adv-x="803" 
d="M161 412v219h-101v69h283v-69h-101v-219h-81zM379 412v289h85l89 -112l91 112h84v-289h-83l4 178l-88 -112h-17l-85 114l4 -180h-84z" />
    <glyph glyph-name="acute" unicode="&#xb4;" horiz-adv-x="235" 
d="M105 563h-90v6l73 131h122z" />
    <glyph glyph-name="dieresis" unicode="&#xa8;" horiz-adv-x="493" 
d="M114 602c-31 0 -61 20 -61 59c0 41 30 61 61 62c30 0 61 -20 61 -60s-30 -60 -61 -61zM352 601c-31 0 -61 20 -61 60c0 41 30 61 61 61c30 0 61 -20 61 -61c0 -40 -30 -60 -61 -60z" />
    <glyph glyph-name="notequal" unicode="&#x2260;" horiz-adv-x="572" 
d="M75 158v94h152l71 122h-223v93h279l44 76l44 -24l-30 -52h85v-93h-140l-71 -122h211v-94h-265l-45 -76l-45 26l30 50h-97z" />
    <glyph glyph-name="AE" unicode="&#xc6;" horiz-adv-x="964" 
d="M312 271h184l1 310zM337 605v95h563v-201h-94l-4 104h-206v-197h211v-98h-211v-209h221l4 106h94v-205h-499v96h80v92h-236l-59 -92h63v-96h-255v96h73l326 509h-71z" />
    <glyph glyph-name="Oslash" unicode="&#xd8;" horiz-adv-x="806" 
d="M153 347c0 -76 27 -151 82 -201l261 456c-27 10 -57 15 -90 15c-175 0 -255 -133 -253 -270zM655 347c0 77 -26 156 -82 208l-261 -456c28 -8 58 -13 94 -13c175 0 249 133 249 261zM405 714c53 0 101 -10 143 -26l43 77h105l-72 -121c91 -69 136 -181 136 -297
c-1 -182 -113 -362 -356 -362c-55 0 -103 9 -144 25l-48 -84h-103l73 128c-91 68 -135 179 -135 294c0 191 120 366 358 366z" />
    <glyph glyph-name="infinity" unicode="&#x221e;" horiz-adv-x="766" 
d="M215 164c-110 1 -166 80 -165 159c0 81 59 160 170 160c62 0 118 -47 162 -100c46 52 105 101 162 101c114 0 173 -82 173 -162c1 -80 -55 -157 -165 -158c-66 -1 -122 44 -169 99c-46 -54 -98 -99 -168 -99zM550 245c61 1 89 41 90 79c-1 39 -30 82 -91 82
c-34 0 -108 -70 -121 -83c14 -11 85 -79 122 -78zM218 245c58 0 94 53 120 77c-17 16 -84 84 -121 84c-64 0 -95 -49 -90 -91c4 -26 27 -69 91 -70zM428 323c-2 -2 -2 -2 0 0z" />
    <glyph glyph-name="plusminus" unicode="&#xb1;" horiz-adv-x="525" 
d="M64 328v92h149v154h98v-154h150v-92h-150v-154h-98v154h-149zM66 27v93h393v-93h-393z" />
    <glyph glyph-name="lessequal" unicode="&#x2264;" horiz-adv-x="443" 
d="M67 441l242 186l54 -64l-185 -138l187 -141l-58 -62l-240 189v30zM61 86v83h320v-83h-320z" />
    <glyph glyph-name="greaterequal" unicode="&#x2265;" horiz-adv-x="443" 
d="M135 627l240 -186v-30l-240 -190l-58 63l187 142l-185 136zM383 169v-83h-321v83h321z" />
    <glyph glyph-name="yen" unicode="&#xa5;" horiz-adv-x="732" 
d="M152 302v81h94l-146 221h-68v96h270v-96h-79l140 -223l147 223h-80v96h271v-96h-69l-150 -221h93v-81h-148l-10 -12v-42h162v-79h-162v-74h87v-95h-281v95h87v74h-159v79h159v42l-11 12h-147z" />
    <glyph glyph-name="mu" unicode="&#x3bc;" horiz-adv-x="655" 
d="M563 0h-93l-10 42c-28 -47 -86 -67 -134 -68c-55 0 -109 13 -135 73v-265l-104 1v699h103v-278c0 -91 70 -142 138 -142c66 0 131 49 131 153v265h104v-480z" />
    <glyph glyph-name="partialdiff" unicode="&#x2202;" horiz-adv-x="598" 
d="M550 251c1 -154 -95 -262 -253 -262c-170 0 -256 123 -256 248c0 116 74 229 221 242c41 6 119 2 171 -44c-31 90 -182 168 -270 184l20 80c243 -50 366 -204 367 -448zM297 78c101 0 152 80 152 160s-51 158 -152 158c-103 0 -154 -79 -154 -158c0 -78 51 -160 154 -160
z" />
    <glyph glyph-name="summation" unicode="&#x2211;" horiz-adv-x="582" 
d="M367 364l-183 -260h349v-104h-498v59l212 307l-199 286v48h479v-99h-319z" />
    <glyph glyph-name="product" unicode="&#x220f;" horiz-adv-x="705" 
d="M609 -190h-107v791h-299v-791h-107v890h513v-890z" />
    <glyph glyph-name="pi" unicode="&#x3c0;" horiz-adv-x="671" 
d="M227 0l-99 -1v407h-110v87h622v-87h-111v-253c0 -56 19 -91 91 -78l7 -78c-130 -24 -196 34 -195 156v255h-205v-408z" />
    <glyph glyph-name="integral" unicode="&#x222b;" horiz-adv-x="469" 
d="M176 -1l1 524c0 121 74 185 175 185c42 0 83 -13 120 -37l-39 -74c-27 16 -49 25 -76 25c-49 0 -82 -31 -82 -99v-525c0 -121 -68 -186 -170 -186c-41 0 -70 11 -107 35l38 74c25 -19 37 -24 62 -24c49 0 78 33 78 102z" />
    <glyph glyph-name="ordfeminine" unicode="&#xaa;" horiz-adv-x="448" 
d="M213 630c-51 0 -91 -38 -91 -93s40 -93 90 -93c121 0 125 186 1 186zM394 377h-77l-3 51c-22 -40 -72 -59 -111 -61c-95 0 -167 61 -167 172c0 109 75 169 169 168c45 0 88 -21 112 -56v50h77v-324zM51 242v76h347v-76h-347z" />
    <glyph glyph-name="ordmasculine" unicode="&#xba;" horiz-adv-x="419" 
d="M210 366c-98 0 -175 61 -175 171c0 108 76 169 173 169c98 0 173 -61 173 -167c0 -108 -77 -173 -171 -173zM210 444c54 0 91 38 91 93c0 56 -42 96 -93 96s-90 -40 -90 -94c0 -56 35 -95 92 -95zM47 232v77h328v-77h-328z" />
    <glyph glyph-name="Omega" unicode="&#x3a9;" horiz-adv-x="815" 
d="M82 0v92h109c-95 65 -142 158 -142 265c0 196 140 357 358 357c219 0 359 -161 359 -357c0 -107 -46 -200 -142 -266h110v-92h-252v95c119 36 181 149 180 261c0 131 -83 260 -254 260s-253 -129 -254 -260c0 -112 60 -225 180 -260v-95h-252z" />
    <glyph glyph-name="ae" unicode="&#xe6;" horiz-adv-x="1000" 
d="M558 288l310 -3c-7 83 -66 129 -149 129c-76 0 -145 -44 -161 -126zM303 406c-91 0 -164 -66 -164 -166c0 -99 72 -166 163 -166c112 0 171 87 171 167c0 79 -63 165 -170 165zM545 0h-76v72c-41 -59 -110 -87 -174 -87c-144 0 -254 98 -254 261c0 161 114 257 255 255
c68 0 134 -29 173 -81v75h79v-74c44 58 109 84 179 83c139 -1 267 -108 236 -296h-406c8 -74 75 -128 166 -128c51 0 115 19 146 54l64 -61c-51 -57 -137 -85 -213 -85c-80 0 -139 30 -175 83v-71z" />
    <glyph glyph-name="oslash" unicode="&#xf8;" horiz-adv-x="590" 
d="M181 133l164 272c-15 6 -32 9 -49 9c-96 0 -156 -75 -156 -167c0 -47 15 -87 41 -114zM413 358l-159 -268c13 -5 28 -7 43 -7c97 0 156 73 156 164c0 44 -16 82 -40 111zM67 -62l63 107c-57 45 -90 117 -90 201c0 146 103 257 254 257c35 0 66 -6 95 -18l37 63h95
l-60 -103c56 -46 89 -117 89 -199c0 -146 -102 -256 -256 -256c-33 0 -65 6 -93 16l-40 -68h-94z" />
    <glyph glyph-name="questiondown" unicode="&#xbf;" horiz-adv-x="604" 
d="M323 506c34 0 67 -22 66 -66c0 -44 -33 -67 -67 -67c-33 0 -66 22 -66 67c0 44 34 66 67 66zM469 7l107 -1c0 -149 -138 -212 -274 -210c-138 0 -273 49 -271 206c0 131 116 166 172 198c55 23 65 45 67 121h105c-2 -135 -48 -175 -127 -206c-47 -23 -108 -43 -108 -113
c0 -97 90 -111 163 -111s164 34 166 116z" />
    <glyph glyph-name="exclamdown" unicode="&#xa1;" horiz-adv-x="275" 
d="M205 418c0 -44 -34 -67 -68 -67s-69 23 -69 69c0 44 34 67 68 66c34 0 69 -22 69 -68zM192 -220h-107v529h107v-529z" />
    <glyph glyph-name="logicalnot" unicode="&#xac;" horiz-adv-x="521" 
d="M447 376v-218h-90v128h-289v90h379z" />
    <glyph glyph-name="radical" unicode="&#x221a;" horiz-adv-x="608" 
d="M602 697l-234 -697h-82l-163 331l-83 -35l-29 67l178 79l144 -324l202 598z" />
    <glyph glyph-name="florin" unicode="&#x192;" horiz-adv-x="445" 
d="M234 -3c0 -122 -68 -189 -172 -187c-42 0 -72 13 -107 35l38 73c25 -19 40 -23 63 -23c51 -1 79 35 79 104v402l-90 -1v86h91v35c0 121 74 187 176 186c42 0 82 -14 118 -37l-39 -74c-28 15 -47 25 -76 25c-48 0 -81 -35 -81 -100v-35h151v-86h-151v-403z" />
    <glyph glyph-name="approxequal" unicode="&#x2248;" horiz-adv-x="548" 
d="M418 438l62 -30c-23 -55 -62 -104 -133 -83l-154 41c-25 4 -48 -11 -60 -35l-65 38c30 54 80 82 129 79l163 -48c35 -8 42 13 58 38zM418 255l62 -29c-23 -56 -63 -105 -135 -84l-154 41c-24 4 -47 -10 -58 -35l-65 38c30 54 79 82 127 80l163 -48c35 -9 44 12 60 37z
" />
    <glyph glyph-name="guillemotleft" unicode="&#xab;" horiz-adv-x="469" 
d="M321 76l-138 221l138 220h106l-138 -220l138 -221h-106zM37 297l138 220h106l-138 -220l138 -221h-106z" />
    <glyph glyph-name="guillemotright" unicode="&#xbb;" horiz-adv-x="468" 
d="M284 298l-138 -220h-105l136 220l-136 221h105zM292 519l138 -221l-138 -220h-105l137 220l-137 221h105z" />
    <glyph glyph-name="ellipsis" unicode="&#x2026;" horiz-adv-x="627" 
d="M508 -12c-31 1 -62 22 -62 63c0 42 31 62 62 62c32 0 63 -21 63 -63c0 -41 -32 -62 -63 -62zM314 -12c-31 1 -63 22 -63 63c0 42 32 62 63 62s63 -21 63 -63c0 -41 -32 -62 -63 -62zM118 -12c-31 1 -62 22 -62 63c0 42 31 62 62 62c32 0 63 -21 63 -63
c0 -41 -32 -62 -63 -62z" />
    <glyph glyph-name="Agrave" unicode="&#xc0;" horiz-adv-x="811" 
d="M357 749l-105 136h120l75 -130v-6h-90zM276 294h263c-35 83 -70 171 -127 303c-60 -136 -101 -222 -136 -303zM189 97h81v-97h-259v97h65l233 508h-74v95h237l265 -603h65v-97h-260v97h84c-18 36 -31 73 -45 103h-346c-12 -29 -30 -66 -46 -103z" />
    <glyph glyph-name="Atilde" unicode="&#xc3;" horiz-adv-x="811" 
d="M294 753l-66 33c16 64 68 99 125 82c16 -4 48 -25 62 -29c16 -4 40 -1 49 27l66 -28c-17 -74 -76 -96 -121 -80c-16 4 -47 24 -61 27c-17 4 -41 -1 -54 -32zM276 294h263c-35 83 -70 171 -127 303c-60 -136 -101 -222 -136 -303zM802 97v-97h-260v97h84
c-18 36 -31 73 -45 103h-346c-12 -29 -30 -66 -46 -103h81v-97h-259v97h65l233 508h-74v95h237l265 -603h65z" />
    <glyph glyph-name="Otilde" unicode="&#xd5;" horiz-adv-x="806" 
d="M381 895c15 -4 46 -22 59 -25c17 -4 41 -1 52 28l66 -29c-17 -74 -76 -95 -120 -80c-16 4 -47 25 -62 28c-17 4 -40 -1 -53 -32l-66 29c16 63 68 98 124 81zM406 713c237 -2 355 -180 354 -366c-1 -182 -114 -362 -356 -362c-243 0 -358 178 -358 362
c0 213 146 366 360 366zM655 347c1 132 -76 267 -249 270c-166 0 -254 -121 -254 -270c-1 -134 78 -263 253 -263c176 0 249 135 250 263z" />
    <glyph glyph-name="OE" unicode="&#x152;" horiz-adv-x="1022" 
d="M503 92v515c-30 12 -63 17 -101 17c-168 0 -249 -130 -249 -274c0 -131 83 -273 252 -273c38 0 70 5 98 15zM972 0h-469c-1 -1 -67 -14 -101 -14c-240 0 -356 169 -356 365c0 199 119 360 356 360c37 0 94 -10 101 -11h455v-202h-93l-5 108h-260v-202h266v-95h-266v-209
h274l4 106h94v-206z" />
    <glyph glyph-name="oe" unicode="&#x153;" horiz-adv-x="973" 
d="M540 292l303 -3c-7 83 -63 129 -147 129c-76 0 -141 -44 -156 -126zM450 245c0 91 -62 167 -154 167c-96 0 -155 -89 -155 -167c0 -92 59 -163 155 -163s154 71 154 163zM844 135l64 -61c-51 -57 -132 -85 -210 -85c-94 0 -169 45 -206 115c-42 -72 -106 -113 -198 -113
c-153 0 -254 110 -254 256c0 147 103 259 254 259c90 0 163 -42 201 -114c33 65 108 115 198 115c157 0 263 -99 244 -298c-109 0 -288 2 -396 0c8 -74 69 -128 160 -128c51 0 112 19 143 54z" />
    <glyph glyph-name="endash" unicode="&#x2013;" horiz-adv-x="598" 
d="M67 237v93h464v-93h-464z" />
    <glyph glyph-name="emdash" unicode="&#x2014;" horiz-adv-x="697" 
d="M67 237v93h563v-93h-563z" />
    <glyph glyph-name="quotedblleft" unicode="&#x201c;" horiz-adv-x="404" 
d="M121 697h79l-48 -208h-105zM279 697h81l-50 -208h-105z" />
    <glyph glyph-name="quotedblright" unicode="&#x201d;" horiz-adv-x="399" 
d="M291 497h-79l46 204h106zM133 497h-81l48 204h106z" />
    <glyph glyph-name="quoteleft" unicode="&#x2018;" horiz-adv-x="244" 
d="M121 701h80l-47 -205h-106z" />
    <glyph glyph-name="quoteright" unicode="&#x2019;" horiz-adv-x="241" 
d="M134 490h-81l48 211h105z" />
    <glyph glyph-name="divide" unicode="&#xf7;" horiz-adv-x="549" 
d="M338 501c0 -81 -123 -81 -123 0s123 81 123 0zM54 278v98h441v-98h-441zM338 149c0 -81 -123 -81 -123 0s123 81 123 0z" />
    <glyph glyph-name="lozenge" unicode="&#x25ca;" horiz-adv-x="579" 
d="M545 352l-216 -345h-81l-214 345l214 344h81zM288 602l-144 -251l144 -251l150 251z" />
    <glyph glyph-name="ydieresis" unicode="&#xff;" horiz-adv-x="610" 
d="M189 572c-31 0 -62 20 -62 59c0 41 31 61 62 61c30 0 61 -20 61 -60s-31 -60 -61 -60zM427 571c-31 0 -62 20 -62 60c0 41 31 61 62 61c30 0 61 -20 61 -61c0 -40 -31 -60 -61 -60zM421 408h-74v88h245v-88h-63l-220 -536c-50 -120 -151 -123 -251 -72l36 82
c44 -20 94 -36 120 19l39 105l-171 402h-66v88h233v-87h-56l68 -153l51 -141l48 137z" />
    <glyph glyph-name="Ydieresis" unicode="&#x178;" horiz-adv-x="704" 
d="M202 745c-31 0 -61 20 -61 59c0 41 30 61 61 62c30 0 61 -20 61 -60s-30 -60 -61 -61zM505 744c-30 0 -61 20 -61 60c0 41 31 61 61 61c31 0 62 -20 62 -61c0 -40 -31 -60 -62 -60zM290 604h-76l54 -84l83 -133l90 137l53 80h-76v96h270v-96h-68l-216 -318v-191h87v-95
h-280v95h86v191l-209 318h-69v96h271v-96z" />
    <glyph glyph-name="fraction" unicode="&#x2044;" horiz-adv-x="140" 
d="M-76 -3h-92l383 709h92z" />
    <glyph glyph-name="currency" unicode="&#xa4;" horiz-adv-x="603" 
d="M195 138l-59 -58l-73 73l59 57c-42 68 -39 150 2 216l-61 59l73 75l59 -60c31 16 67 25 107 25c37 0 74 -9 104 -25l60 60l73 -75l-57 -57c39 -68 39 -153 -1 -218l58 -57l-73 -73l-59 58c-31 -17 -69 -25 -106 -25c-39 0 -76 10 -106 25zM301 191c81 0 125 63 125 128
c0 66 -44 129 -125 129c-80 0 -127 -63 -127 -129c0 -65 47 -128 127 -128z" />
    <glyph glyph-name="guilsinglleft" unicode="&#x2039;" horiz-adv-x="323" 
d="M175 76l-138 221l138 221h106l-138 -221l138 -221h-106z" />
    <glyph glyph-name="guilsinglright" unicode="&#x203a;" horiz-adv-x="324" 
d="M42 76l138 222l-138 220h106l139 -220l-139 -222h-106z" />
    <glyph glyph-name="fi" unicode="&#xfb01;" horiz-adv-x="647" 
d="M493 578c-32 0 -62 23 -62 63s30 62 62 62c32 -1 62 -23 62 -63s-30 -62 -62 -62zM381 692l-20 -87c-19 10 -33 11 -54 11c-49 0 -83 -31 -83 -94v-28h319v-408h73v-86h-246v86h73v323h-219v-321h81v-88h-256v88h77v321h-95v85h95v28c0 121 74 186 180 185
c24 0 51 -6 75 -15z" />
    <glyph glyph-name="fl" unicode="&#xfb02;" horiz-adv-x="650" 
d="M225 86h73v-86h-249v86h78v318h-96v82h96v35c0 160 124 196 248 196c63 -1 125 -10 169 -16v-612h74v-89h-243v89h71v533c-20 2 -48 7 -79 8c-69 3 -142 -17 -142 -109v-35h128v-82h-128v-318z" />
    <glyph glyph-name="daggerdbl" unicode="&#x2021;" horiz-adv-x="614" 
d="M563 511v-91h-203v-237h203v-91h-203v-219h-106v219h-203v91h203v237h-203v91h203v189h106v-189h203z" />
    <glyph glyph-name="periodcentered" unicode="&#xb7;" horiz-adv-x="256" 
d="M193 279c0 -86 -130 -86 -130 0c0 87 130 87 130 0z" />
    <glyph glyph-name="quotesinglbase" unicode="&#x201a;" horiz-adv-x="248" 
d="M113 -118h-81l47 207h106z" />
    <glyph glyph-name="quotedblbase" unicode="&#x201e;" horiz-adv-x="407" 
d="M273 -118h-81l47 207h105zM113 -118h-82l48 207h106z" />
    <glyph glyph-name="perthousand" unicode="&#x2030;" horiz-adv-x="1142" 
d="M194 707c106 0 160 -76 160 -153s-53 -154 -160 -154c-106 0 -160 77 -160 154c0 76 54 153 160 153zM101 0l453 702h112l-453 -702h-112zM192 629c-50 0 -75 -37 -76 -74c0 -39 27 -77 79 -77c51 0 76 38 76 77c-1 37 -31 74 -79 74zM579 299c107 0 161 -77 161 -154
s-54 -154 -160 -154s-160 77 -160 154c0 76 54 154 159 154zM791 145c0 76 54 154 159 154c107 0 161 -77 161 -154s-54 -154 -160 -154s-160 77 -160 154zM578 221c-50 0 -76 -37 -76 -75s27 -76 79 -76c50 0 76 38 75 77c0 37 -30 74 -78 74zM949 221
c-50 0 -76 -37 -76 -75s27 -76 79 -76c50 0 76 38 75 77c0 37 -30 74 -78 74z" />
    <glyph glyph-name="Acircumflex" unicode="&#xc2;" horiz-adv-x="811" 
d="M366 888h60l152 -135v-9h-101l-82 71l-79 -71h-102v9zM276 294h263c-35 83 -70 171 -127 303c-60 -136 -101 -222 -136 -303zM802 97v-97h-260v97h84c-18 36 -31 73 -45 103h-346c-12 -29 -30 -66 -46 -103h81v-97h-259v97h65l233 508h-74v95h237l265 -603h65z" />
    <glyph glyph-name="Ecircumflex" unicode="&#xca;" horiz-adv-x="693" 
d="M173 752v9l152 140h59l152 -141v-8h-102l-80 74l-79 -74h-102zM240 99h306l4 106h94v-205h-591v97h84v508h-82v95h574v-201h-94l-4 105h-291v-198h297v-97h-297v-210z" />
    <glyph glyph-name="Aacute" unicode="&#xc1;" horiz-adv-x="811" 
d="M436 746h-90v6l73 131h122zM276 294h263c-35 83 -70 171 -127 303c-60 -136 -101 -222 -136 -303zM189 97h81v-97h-259v97h65l233 508h-74v95h237l265 -603h65v-97h-260v97h84c-18 36 -31 73 -45 103h-346c-12 -29 -30 -66 -46 -103z" />
    <glyph glyph-name="Edieresis" unicode="&#xcb;" horiz-adv-x="693" 
d="M236 747c-31 0 -61 20 -61 59c0 41 30 61 61 62c30 0 61 -20 61 -60s-30 -60 -61 -61zM474 746c-31 0 -61 20 -61 60c0 41 30 61 61 61c30 0 61 -20 61 -61c0 -40 -30 -60 -61 -60zM240 99h306l4 106h94v-205h-591v97h84v508h-82v95h574v-201h-94l-4 105h-291v-198h297
v-97h-297v-210z" />
    <glyph glyph-name="Egrave" unicode="&#xc8;" horiz-adv-x="693" 
d="M422 748h-90l-105 136h121l74 -130v-6zM240 99h306l4 106h94v-205h-591v97h84v508h-82v95h574v-201h-94l-4 105h-291v-198h297v-97h-297v-210z" />
    <glyph glyph-name="Iacute" unicode="&#xcd;" horiz-adv-x="382" 
d="M232 750h-90v5l74 131h121zM243 97h87v-97h-279v97h86v506h-84v97h275v-97h-85v-506z" />
    <glyph glyph-name="Icircumflex" unicode="&#xce;" horiz-adv-x="382" 
d="M23 748v9l138 143h54l138 -144v-8h-93l-72 75l-73 -75h-92zM243 97h87v-97h-279v97h86v506h-84v97h275v-97h-85v-506z" />
    <glyph glyph-name="Idieresis" unicode="&#xcf;" horiz-adv-x="382" 
d="M92 737c-30 0 -61 20 -61 59c0 41 31 61 61 61c31 0 62 -20 62 -60s-31 -60 -62 -60zM293 736c-30 0 -61 20 -61 60c0 41 31 61 61 61c31 0 62 -20 62 -61c0 -40 -31 -60 -62 -60zM243 97h87v-97h-279v97h86v506h-84v97h275v-97h-85v-506z" />
    <glyph glyph-name="Igrave" unicode="&#xcc;" horiz-adv-x="382" 
d="M238 750h-90l-105 136h120l75 -130v-6zM243 97h87v-97h-279v97h86v506h-84v97h275v-97h-85v-506z" />
    <glyph glyph-name="Oacute" unicode="&#xd3;" horiz-adv-x="806" 
d="M445 784h-90v6l73 132h122zM406 713c237 -2 355 -180 354 -366c-1 -182 -114 -362 -356 -362c-243 0 -358 178 -358 362c0 213 146 366 360 366zM655 347c1 132 -76 267 -249 270c-166 0 -254 -121 -254 -270c-1 -134 78 -263 253 -263c176 0 249 135 250 263z" />
    <glyph glyph-name="Ocircumflex" unicode="&#xd4;" horiz-adv-x="806" 
d="M445 926l147 -136v-7h-102l-74 68l-75 -68h-101v7l147 136h58zM406 713c237 -2 355 -180 354 -366c-1 -182 -114 -362 -356 -362c-243 0 -358 178 -358 362c0 213 146 366 360 366zM655 347c1 132 -76 267 -249 270c-166 0 -254 -121 -254 -270c-1 -134 78 -263 253 -263
c176 0 249 135 250 263z" />
    <glyph glyph-name="Ograve" unicode="&#xd2;" horiz-adv-x="806" 
d="M463 788h-90l-105 136h121l74 -131v-5zM406 713c237 -2 355 -180 354 -366c-1 -182 -114 -362 -356 -362c-243 0 -358 178 -358 362c0 213 146 366 360 366zM655 347c1 132 -76 267 -249 270c-166 0 -254 -121 -254 -270c-1 -134 78 -263 253 -263c176 0 249 135 250 263
z" />
    <glyph glyph-name="Uacute" unicode="&#xda;" horiz-adv-x="823" 
d="M452 743h-94v5l78 127h127zM414 81c104 0 191 74 191 207v316h-90v96h271v-96h-79v-318c0 -206 -140 -303 -293 -303c-147 0 -298 94 -298 303v318h-78v96h272v-96h-90v-318c0 -135 90 -205 194 -205z" />
    <glyph glyph-name="Ucircumflex" unicode="&#xdb;" horiz-adv-x="823" 
d="M226 759v8l152 140h59l151 -140v-8h-101l-80 73l-80 -73h-101zM414 81c104 0 191 74 191 207v316h-90v96h271v-96h-79v-318c0 -206 -140 -303 -293 -303c-147 0 -298 94 -298 303v318h-78v96h272v-96h-90v-318c0 -135 90 -205 194 -205z" />
    <glyph glyph-name="Ugrave" unicode="&#xd9;" horiz-adv-x="823" 
d="M462 745h-90l-105 137h120l75 -131v-6zM414 81c104 0 191 74 191 207v316h-90v96h271v-96h-79v-318c0 -206 -140 -303 -293 -303c-147 0 -298 94 -298 303v318h-78v96h272v-96h-90v-318c0 -135 90 -205 194 -205z" />
    <glyph glyph-name="dotlessi" unicode="&#x131;" horiz-adv-x="320" 
d="M41 409v87h174v-407h73v-89h-249v89h77v320h-75z" />
    <glyph glyph-name="circumflex" unicode="&#x2c6;" horiz-adv-x="424" 
d="M20 561v8l152 140h59l152 -140v-8h-102l-80 73l-79 -73h-102z" />
    <glyph glyph-name="tilde" unicode="&#x2dc;" horiz-adv-x="375" 
d="M153 747c16 -4 47 -25 62 -29c16 -4 39 -1 48 27l67 -28c-17 -74 -77 -96 -122 -80c-16 4 -47 24 -60 27c-18 4 -42 -1 -54 -32l-67 33c16 64 69 99 126 82z" />
    <glyph glyph-name="macron" unicode="&#xaf;" horiz-adv-x="516" 
d="M84 617v85h348v-85h-348z" />
    <glyph glyph-name="breve" unicode="&#x2d8;" horiz-adv-x="357" 
d="M314 700c5 -94 -59 -149 -145 -148c-88 1 -150 57 -144 148h79c0 -32 12 -70 65 -71c52 0 64 38 64 71h81z" />
    <glyph glyph-name="dotaccent" unicode="&#x2d9;" horiz-adv-x="200" 
d="M87 587c-30 1 -61 21 -61 62c0 40 31 60 61 60s61 -21 61 -62c0 -39 -30 -60 -61 -60z" />
    <glyph glyph-name="cedilla" unicode="&#xb8;" horiz-adv-x="355" 
d="M112 -86l-26 16l29 92h72l-14 -53c89 -1 109 -61 100 -110c-12 -59 -69 -88 -127 -86c-46 1 -94 21 -118 61l46 41c16 -22 44 -35 72 -33c24 0 46 10 53 30c11 37 -38 65 -87 42z" />
    <glyph glyph-name="hungarumlaut" unicode="&#x2dd;" horiz-adv-x="408" 
d="M267 566h-86l85 135h112zM104 568h-87l84 133h113z" />
    <glyph glyph-name="ogonek" unicode="&#x2db;" horiz-adv-x="399" 
d="M264 -116l60 -33c-24 -55 -81 -83 -137 -85c-66 -2 -119 31 -135 79c-21 58 15 163 180 131l18 -45c-66 23 -144 -5 -125 -60c7 -19 27 -35 58 -34c27 1 60 16 81 47z" />
    <glyph glyph-name="caron" unicode="&#x2c7;" horiz-adv-x="404" 
d="M382 701v-8l-155 -142h-58l-152 142v8h101l80 -76l85 76h99z" />
    <glyph glyph-name="Abreve" unicode="&#x102;" horiz-adv-x="810" 
d="M451 894h77c5 -94 -51 -138 -144 -138c-89 0 -149 46 -143 138h81c0 -32 11 -62 65 -62c51 0 65 29 64 62zM275 294h263c-35 83 -70 171 -126 303c-61 -136 -101 -222 -137 -303zM188 97h82v-97h-259v97h65l232 508h-74v95h237l265 -603h65v-97h-260v97h84
c-18 36 -31 73 -45 103h-346c-12 -29 -30 -66 -46 -103z" />
    <glyph glyph-name="Amacron" unicode="&#x100;" horiz-adv-x="810" 
d="M235 766v85h312v-85h-312zM275 294h263c-35 83 -70 171 -126 303c-61 -136 -101 -222 -137 -303zM188 97h82v-97h-259v97h65l232 508h-74v95h237l265 -603h65v-97h-260v97h84c-18 36 -31 73 -45 103h-346c-12 -29 -30 -66 -46 -103z" />
    <glyph glyph-name="Aogonek" unicode="&#x104;" horiz-adv-x="810" 
d="M189 97h81v-97h-259v97h65l233 508h-74v95h237l265 -603h65v-97c-119 -1 -149 -61 -134 -103c14 -32 80 -34 134 11l21 -71c-57 -54 -212 -72 -245 29c-13 43 9 116 54 134h-90v97h84c-18 36 -31 73 -45 103h-346zM276 294h263c-35 83 -70 171 -127 303
c-81 -183 -80 -175 -136 -303z" />
    <glyph glyph-name="Aringacute" unicode="&#x1fa;" horiz-adv-x="810" 
d="M436 947h130l-118 -94h-96v4zM454 741c-1 16 -15 38 -51 38c-35 0 -48 -23 -48 -37c0 -16 12 -38 48 -38c37 0 51 23 51 37zM538 294c19 -42 -115 266 -132 305l-131 -305h263zM517 745c0 -32 -17 -55 -40 -70l259 -578h65v-97h-260v97h84c-18 36 -31 73 -45 103h-346
l-46 -103h82v-97h-259v97h65l262 578c-29 14 -45 39 -45 72c0 56 55 87 112 87c56 0 112 -30 112 -89z" />
    <glyph glyph-name="Cacute" unicode="&#x106;" horiz-adv-x="698" 
d="M351 785v6l72 126h120l-102 -132h-90zM600 164l75 -72c-72 -70 -165 -103 -262 -103c-252 0 -366 173 -367 357c-3 182 118 366 367 366c81 0 161 -28 228 -80c0 -50 -2 -101 -3 -151h-94l-4 103c-40 21 -82 28 -127 28c-181 0 -264 -133 -262 -265
c2 -126 75 -258 262 -258c65 0 139 27 187 75z" />
    <glyph glyph-name="Ccaron" unicode="&#x10c;" horiz-adv-x="698" 
d="M580 915v-8l-147 -128h-56l-145 128v8h99l75 -69l79 69h95zM600 164l75 -72c-72 -70 -165 -103 -262 -103c-252 0 -366 173 -367 357c-3 182 118 366 367 366c81 0 161 -28 228 -80c0 -50 -2 -101 -3 -151h-94l-4 103c-40 21 -82 28 -127 28c-181 0 -264 -133 -262 -265
c2 -126 75 -258 262 -258c65 0 139 27 187 75z" />
    <glyph glyph-name="Ccircumflex" unicode="&#x108;" horiz-adv-x="698" 
d="M227 777v8l149 137h58l148 -138v-7h-100l-79 71l-76 -71h-100zM600 164l75 -72c-72 -70 -165 -103 -262 -103c-252 0 -366 173 -367 357c-3 182 118 366 367 366c81 0 161 -28 228 -80c0 -50 -2 -101 -3 -151h-94l-4 103c-40 21 -82 28 -127 28
c-181 0 -264 -133 -262 -265c2 -126 75 -258 262 -258c65 0 139 27 187 75z" />
    <glyph glyph-name="Cdotaccent" unicode="&#x10a;" horiz-adv-x="698" 
d="M410 776c-32 0 -65 20 -65 61s33 62 65 63c32 0 65 -21 65 -62s-32 -62 -65 -62zM600 164l75 -72c-72 -70 -165 -103 -262 -103c-252 0 -366 173 -367 357c-3 182 118 366 367 366c81 0 161 -28 228 -80c0 -50 -2 -101 -3 -151h-94l-4 103c-40 21 -82 28 -127 28
c-181 0 -264 -133 -262 -265c2 -126 75 -258 262 -258c65 0 139 27 187 75z" />
    <glyph glyph-name="Dcaron" unicode="&#x10e;" horiz-adv-x="784" 
d="M530 909v-8l-146 -132h-55l-145 132v8h100l72 -68l78 68h96zM53 0v97h84v509h-82v95h330c239 0 352 -154 351 -344s-106 -357 -351 -357h-332zM243 96h142c175 0 244 135 246 262c1 126 -79 247 -246 247h-142v-509z" />
    <glyph glyph-name="Dcroat" unicode="&#x110;" horiz-adv-x="785" 
d="M65 296v92h73v218h-81v95h330c238 0 352 -154 350 -344c-1 -190 -105 -357 -350 -357h-332v97h83v199h-73zM245 96h142c175 0 244 135 245 262c1 126 -78 247 -245 247h-142v-217h152v-92h-152v-200z" />
    <glyph glyph-name="Ebreve" unicode="&#x114;" horiz-adv-x="693" 
d="M502 898c6 -90 -59 -140 -146 -140c-88 0 -150 51 -143 140h81c0 -31 11 -67 64 -67c52 0 64 35 63 67h81zM240 99h306l4 106h94v-205h-591v97h84v508h-82v95h574v-201h-94l-4 105h-291v-198h297v-97h-297v-210z" />
    <glyph glyph-name="Ecaron" unicode="&#x11a;" horiz-adv-x="693" 
d="M559 904v-9l-151 -128h-57l-149 128v9h104l74 -63l78 63h101zM240 99h306l4 106h94v-205h-591v97h84v508h-82v95h574v-201h-94l-4 105h-291v-198h297v-97h-297v-210z" />
    <glyph glyph-name="Edotaccent" unicode="&#x116;" horiz-adv-x="693" 
d="M373 756c-31 0 -63 19 -63 59c0 39 31 59 63 59s64 -20 64 -59s-32 -59 -64 -59zM240 99h306l4 106h94v-205h-591v97h84v508h-82v95h574v-201h-94l-4 105h-291v-198h297v-97h-297v-210z" />
    <glyph glyph-name="Emacron" unicode="&#x112;" horiz-adv-x="693" 
d="M522 856v-83h-325v83h325zM240 99h306l4 106h94v-205h-591v97h84v508h-82v95h574v-201h-94l-4 105h-291v-198h297v-97h-297v-210z" />
    <glyph glyph-name="Eogonek" unicode="&#x118;" horiz-adv-x="693" 
d="M670 -160c-75 -53 -210 -73 -241 25c-12 42 4 118 48 135h-424v97h84v508h-82v95h574v-201h-94l-4 105h-291v-198h297v-97h-297v-210h306l4 106h94v-205c-116 0 -143 -64 -129 -103c16 -34 79 -33 133 14z" />
    <glyph glyph-name="Gbreve" unicode="&#x11e;" horiz-adv-x="730" 
d="M549 909c6 -88 -59 -137 -147 -137c-89 1 -152 51 -146 136h82c0 -29 12 -64 65 -65c54 -1 67 33 67 64zM412 712c92 0 173 -22 247 -81c0 -49 -1 -97 -2 -150h-95l-2 101c-43 21 -102 32 -148 32c-167 0 -260 -126 -260 -271c0 -130 78 -258 263 -258
c69 0 112 15 165 63v129h-208v89h300v-258c-63 -82 -150 -122 -259 -122c-255 0 -366 170 -366 357c-1 203 131 369 365 369z" />
    <glyph glyph-name="Gcircumflex" unicode="&#x11c;" horiz-adv-x="730" 
d="M234 785v7l149 138h57l147 -138v-7h-100l-76 71l-77 -71h-100zM412 712c92 0 172 -22 247 -81c0 -49 -1 -97 -3 -150h-94l-3 101c-42 21 -101 32 -147 32c-167 0 -260 -126 -261 -271c0 -130 79 -258 263 -258c70 0 113 15 165 63v129h-208v89h301v-258
c-64 -82 -150 -122 -259 -122c-255 0 -366 170 -366 357c-1 203 130 369 365 369z" />
    <glyph glyph-name="Gcommaaccent" unicode="&#x122;" horiz-adv-x="730" 
d="M411 712c92 0 173 -22 247 -81c0 -49 -1 -97 -2 -150h-94l-3 101c-43 21 -102 32 -148 32c-167 0 -260 -126 -260 -271c0 -130 79 -258 263 -258c70 0 113 15 165 63v129h-208v89h301v-258c-64 -82 -151 -122 -259 -122c-255 0 -366 170 -366 357c-1 203 130 369 364 369
zM423 -256h-64l30 74c-26 4 -45 24 -45 51c0 81 125 78 125 -2c0 -12 -26 -84 -46 -123z" />
    <glyph glyph-name="Gdotaccent" unicode="&#x120;" horiz-adv-x="730" 
d="M406 773c-33 0 -66 20 -66 59c0 41 33 61 66 61s66 -20 66 -61c0 -39 -33 -59 -66 -59zM412 712c92 0 173 -22 247 -81c0 -49 -1 -97 -2 -150h-95l-2 101c-43 21 -102 32 -148 32c-167 0 -260 -126 -260 -271c0 -130 78 -258 263 -258c69 0 112 15 165 63v129h-208v89
h300v-258c-63 -82 -150 -122 -259 -122c-255 0 -366 170 -366 357c-1 203 131 369 365 369z" />
    <glyph glyph-name="Hbar" unicode="&#x126;" horiz-adv-x="848" 
d="M241 407h361v65h-361v-65zM708 97h82v-97h-267v97h79v216h-361v-216h79v-97h-266v97h83v375h-81v71h81v60h-84v97h267v-97h-79v-60h361v60h-79v97h268v-97h-83v-60h80v-71h-80v-375z" />
    <glyph glyph-name="Hcircumflex" unicode="&#x124;" horiz-adv-x="842" 
d="M236 770v9l149 138h58l149 -139v-8h-100l-78 72l-78 -72h-100zM707 97h82v-97h-267v97h79v216h-361v-216h79v-97h-266v97h83v506h-84v97h267v-97h-79v-196h361v196h-79v97h268v-97h-83v-506z" />
    <glyph glyph-name="Eng" unicode="&#x14a;" horiz-adv-x="852" 
d="M323 0h-269v95h80v508h-84v97h161l411 -503v406h-84v97h268v-97h-80v-623c1 -121 -44 -190 -153 -190c-35 0 -63 8 -100 28l33 79c22 -10 43 -16 63 -15c51 2 60 40 60 98v52l-390 471v-408h84v-95z" />
    <glyph glyph-name="Scommaaccent" unicode="&#x218;" horiz-adv-x="656" 
d="M321 -15c-104 0 -183 22 -264 94c0 -14 0 126 0 138v0h95l5 -88c44 -29 112 -46 165 -46c86 0 189 23 189 116c1 90 -137 107 -193 114c-136 19 -262 55 -262 205c-3 150 148 196 266 197c93 0 171 -16 251 -81c0 -53 -1 -88 -1 -141h-93l-5 95c-46 25 -105 34 -149 34
c-80 0 -166 -32 -166 -107c0 -69 75 -91 170 -106c146 -20 288 -53 288 -210c-2 -168 -160 -214 -296 -214zM279 -274l22 85c-26 7 -44 24 -44 52c0 82 134 79 134 -1c0 -10 -18 -56 -45 -136h-67z" />
    <glyph glyph-name="Uogonek" unicode="&#x172;" horiz-adv-x="825" 
d="M414 81c104 0 191 74 191 207v316h-90v96h271v-96h-79v-318c0 -148 -73 -240 -169 -279c-39 -33 -45 -66 -33 -89c17 -31 69 -42 132 7l21 -73c-55 -54 -201 -70 -241 29c-14 30 -5 74 13 102h-16c-147 0 -298 94 -298 303v318h-78v96h272v-96h-90v-318
c0 -135 90 -205 194 -205z" />
    <glyph glyph-name="Wacute" unicode="&#x1e82;" horiz-adv-x="1141" 
d="M705 893l-88 -132h-89v5l59 127h118zM85 604h-71v96h267v-96h-78l150 -456l184 533h70l186 -533l146 456h-79v96h268v-96h-70l-213 -605h-101l-173 465l-169 -465h-107z" />
    <glyph glyph-name="Wdieresis" unicode="&#x1e84;" horiz-adv-x="1141" 
d="M713 762c-33 0 -65 21 -65 61c0 41 32 61 65 61c32 0 65 -20 65 -61c0 -40 -32 -61 -65 -61zM431 761c-33 0 -65 21 -65 62s32 61 65 61c32 0 65 -21 65 -62s-32 -61 -65 -61zM85 604h-71v96h267v-96h-78l150 -456l184 533h70l186 -533l146 456h-79v96h268v-96h-70
l-213 -605h-101l-174 465l-168 -465h-107z" />
    <glyph glyph-name="Wgrave" unicode="&#x1e80;" horiz-adv-x="1141" 
d="M531 760l-88 132h118l58 -126v-6h-88zM85 604h-71v96h267v-96h-78l150 -456l184 533h70l186 -533l146 456h-79v96h268v-96h-70l-213 -605h-101l-173 465l-169 -465h-107z" />
    <glyph glyph-name="uni021A" unicode="&#x21a;" horiz-adv-x="654" 
d="M466 0h-279v96h88v511h-147l-4 -107h-92v200h590v-200h-93l-5 107h-145v-511h87v-96zM285 -246l22 80c-28 5 -45 22 -45 52c0 81 141 83 137 -4c0 -8 -16 -50 -44 -128h-70z" />
    <glyph glyph-name="abreve" unicode="&#x103;" horiz-adv-x="683" 
d="M318 646c54 0 64 33 64 66h78c5 -94 -59 -141 -145 -141c-85 1 -149 49 -143 141h81c0 -32 7 -65 65 -66zM302 76c105 0 168 75 172 160c4 94 -56 172 -173 172c-90 0 -162 -66 -162 -165c0 -100 71 -167 163 -167zM567 88h78v-88h-165c0 -13 -12 81 -12 67
c-39 -62 -108 -80 -171 -81c-146 0 -256 97 -256 261c0 162 113 257 257 257c71 0 136 -29 172 -85l2 76h170v-90h-75v-317z" />
    <glyph glyph-name="amacron" unicode="&#x101;" horiz-adv-x="683" 
d="M170 608v85h287v-85h-287zM301 408c-90 0 -162 -66 -162 -165c0 -100 71 -167 163 -167c105 0 168 75 172 160c4 94 -56 172 -173 172zM567 88h78v-88h-165c0 -13 -12 81 -12 67c-39 -62 -108 -80 -171 -81c-146 0 -256 97 -256 261c0 162 113 257 257 257
c71 0 136 -29 172 -85l2 76h170v-90h-75v-317z" />
    <glyph glyph-name="aogonek" unicode="&#x105;" horiz-adv-x="683" 
d="M302 408c-91 0 -163 -66 -163 -165c0 -100 71 -167 163 -167c106 0 168 75 172 160c4 94 -56 172 -172 172zM568 88h77v-88c-118 11 -156 -58 -140 -102c14 -32 80 -26 134 19l23 -68c-75 -64 -209 -74 -240 25c-13 47 11 106 53 126h12l-19 67
c-39 -62 -108 -80 -171 -81c-146 0 -256 97 -256 261c0 162 114 257 258 257c70 0 135 -29 172 -85l1 76h170v-90h-74v-317z" />
    <glyph glyph-name="aringacute" unicode="&#x1fb;" horiz-adv-x="683" 
d="M275 744l73 95h117l-101 -98h-89v3zM209 628c0 59 53 91 109 91c54 0 108 -31 108 -90s-50 -91 -108 -91c-62 0 -109 32 -109 90zM315 666c-34 0 -46 -23 -46 -38c0 -18 13 -41 48 -41c36 0 48 23 47 40c0 16 -13 39 -49 39zM302 76c106 0 168 75 172 160
c4 94 -56 172 -172 172c-91 0 -163 -66 -163 -165c0 -100 71 -167 163 -167zM568 88h77v-88h-165c0 -13 -12 81 -12 67c-39 -62 -108 -80 -171 -81c-146 0 -256 97 -256 261c0 162 114 257 258 257c70 0 135 -29 172 -85l1 76h170v-90h-74v-317z" />
    <glyph glyph-name="aeacute" unicode="&#x1fd;" horiz-adv-x="1000" 
d="M634 705l-99 -129h-85v5l69 124h115zM558 288l310 -3c-7 83 -66 129 -149 129c-76 0 -145 -44 -161 -126zM303 406c-91 0 -164 -66 -164 -166c0 -99 72 -166 163 -166c112 0 171 87 171 167c0 79 -63 165 -170 165zM545 0h-76v72c-41 -59 -110 -87 -174 -87
c-144 0 -254 98 -254 261c0 161 114 257 255 255c68 0 134 -29 173 -81v75h79v-74c44 58 109 84 179 83c139 -1 267 -108 236 -296h-406c8 -74 75 -128 166 -128c51 0 115 19 146 54l64 -61c-51 -57 -137 -85 -213 -85c-80 0 -139 30 -175 83v-71z" />
    <glyph glyph-name="cacute" unicode="&#x107;" horiz-adv-x="527" 
d="M231 587v6l67 113h104l-91 -119h-80zM434 135l64 -67c-53 -55 -120 -77 -190 -77c-137 0 -267 90 -267 256c0 186 128 257 262 257c63 0 123 -16 178 -43l-6 -135h-88v79c-23 9 -61 11 -82 11c-102 -2 -165 -76 -165 -169c0 -105 88 -162 170 -162c43 0 93 14 124 50z
" />
    <glyph glyph-name="ccaron" unicode="&#x10d;" horiz-adv-x="527" 
d="M456 706v-9l-138 -129h-55l-135 130v8h98l68 -63l68 63h94zM434 135l64 -67c-53 -55 -120 -77 -190 -77c-137 0 -267 90 -267 256c0 186 128 257 262 257c63 0 123 -16 178 -43l-6 -135h-88v79c-23 9 -61 11 -82 11c-102 -2 -165 -76 -165 -169c0 -105 88 -162 170 -162
c43 0 93 14 124 50z" />
    <glyph glyph-name="ccircumflex" unicode="&#x109;" horiz-adv-x="527" 
d="M126 565v7l143 133h56l142 -133v-7h-99l-71 66l-70 -66h-101zM434 135l64 -67c-53 -55 -120 -77 -190 -77c-137 0 -267 90 -267 256c0 186 128 257 262 257c63 0 123 -16 178 -43l-6 -135h-88v79c-23 9 -61 11 -82 11c-102 -2 -165 -76 -165 -169
c0 -105 88 -162 170 -162c43 0 93 14 124 50z" />
    <glyph glyph-name="cdotaccent" unicode="&#x10b;" horiz-adv-x="527" 
d="M305 569c-32 0 -64 20 -64 60s32 60 63 60c32 0 64 -20 64 -60s-31 -60 -63 -60zM434 135l64 -67c-53 -55 -120 -77 -190 -77c-137 0 -267 90 -267 256c0 186 128 257 262 257c63 0 123 -16 178 -43l-6 -135h-88v79c-23 9 -61 11 -82 11c-102 -2 -165 -76 -165 -169
c0 -105 88 -162 170 -162c43 0 93 14 124 50z" />
    <glyph glyph-name="dcaron" unicode="&#x10f;" horiz-adv-x="668" 
d="M461 248c0 102 -75 166 -160 166c-88 0 -161 -55 -161 -166c0 -103 72 -162 160 -162c79 0 161 60 161 162zM389 700h175v-611h78v-89h-162c0 -13 -14 95 -14 82c-40 -61 -104 -90 -175 -90c-140 0 -250 90 -250 255c0 171 110 257 249 257c66 0 139 -27 175 -88v197h-76
v87zM618 553l28 148h99l-52 -148h-75z" />
    <glyph glyph-name="dcroat" unicode="&#x111;" horiz-adv-x="668" 
d="M301 414c-88 0 -161 -55 -161 -166c0 -103 72 -162 160 -162c79 0 161 60 161 162s-80 164 -160 166zM564 89h78v-89h-162l-14 82c-40 -61 -104 -90 -175 -90c-140 0 -250 90 -250 255c0 171 110 257 249 257c66 0 139 -27 175 -88v100h-79v71h79v38h-71v80h170v-118h74
v-71h-74v-427z" />
    <glyph glyph-name="ebreve" unicode="&#x115;" 
d="M444 697c6 -90 -58 -140 -144 -140c-89 1 -151 51 -146 140h81c0 -31 11 -66 63 -67c52 0 65 35 64 68zM453 135l65 -61c-51 -57 -137 -85 -213 -85c-160 0 -265 105 -265 261c0 148 108 257 260 257c157 0 266 -99 247 -298h-406c8 -74 75 -128 167 -128
c51 0 114 19 145 54zM141 291h311c-6 82 -65 127 -149 127c-76 0 -146 -46 -162 -127z" />
    <glyph glyph-name="ecaron" unicode="&#x11b;" 
d="M482 705v-8l-153 -132h-58l-151 132v8h101l79 -70l83 70h99zM453 135l65 -61c-51 -57 -137 -85 -213 -85c-160 0 -265 105 -265 261c0 148 108 257 260 257c157 0 266 -99 247 -298h-406c8 -74 75 -128 167 -128c51 0 114 19 145 54zM141 291h311c-6 82 -65 127 -149 127
c-76 0 -146 -46 -162 -127z" />
    <glyph glyph-name="edotaccent" unicode="&#x117;" 
d="M313 567c-31 0 -62 19 -62 57s31 57 61 57c31 0 62 -19 62 -57s-31 -57 -61 -57zM453 135l65 -61c-51 -57 -137 -85 -213 -85c-160 0 -265 105 -265 261c0 148 108 257 260 257c157 0 266 -99 247 -298h-406c8 -74 75 -128 167 -128c51 0 114 19 145 54zM141 291h311
c-6 82 -65 127 -149 127c-76 0 -146 -46 -162 -127z" />
    <glyph glyph-name="emacron" unicode="&#x113;" 
d="M163 681h276v-81h-276v81zM453 135l65 -61c-51 -57 -137 -85 -213 -85c-160 0 -265 105 -265 261c0 148 108 257 260 257c157 0 266 -99 247 -298h-406c8 -74 75 -128 167 -128c51 0 114 19 145 54zM141 291h311c-6 82 -65 127 -149 127c-76 0 -146 -46 -162 -127z" />
    <glyph glyph-name="eogonek" unicode="&#x119;" 
d="M453 135l65 -61c-26 -29 -68 -55 -107 -68c-46 -14 -65 -62 -51 -100c16 -36 70 -39 122 7l20 -65c-72 -49 -190 -70 -224 28c-12 46 6 103 36 117c-1 0 -12 -1 -14 -1c-157 5 -260 106 -260 258c0 148 107 257 259 257c157 0 267 -99 248 -298h-404
c8 -74 73 -128 164 -128c51 0 115 19 146 54zM142 295h308c-8 81 -67 125 -149 125c-76 0 -144 -44 -159 -125z" />
    <glyph glyph-name="gbreve" unicode="&#x11f;" horiz-adv-x="611" 
d="M307 644c52 0 64 35 63 68h80c6 -92 -58 -144 -143 -144c-88 1 -150 54 -145 144h81c0 -32 11 -68 64 -68zM139 260c3 -103 77 -160 168 -160c94 0 164 68 164 158c0 101 -77 158 -166 158c-82 0 -166 -52 -166 -156zM45 -76h95c2 -92 80 -127 163 -128
c79 0 161 26 161 107c0 67 -67 111 -159 111c-158 0 -264 92 -264 246c0 164 135 247 264 247c42 0 100 -10 135 -34l54 65l70 -56l-58 -68c41 -47 61 -91 61 -154c0 -86 -40 -161 -129 -195c99 -32 127 -99 127 -160c0 -131 -128 -199 -262 -199c-158 0 -261 83 -258 218z
" />
    <glyph glyph-name="gcircumflex" unicode="&#x11d;" horiz-adv-x="611" 
d="M127 580v7l149 132h58l147 -132v-7h-100l-78 68l-75 -68h-101zM139 260c0 -102 75 -156 165 -156c95 0 167 59 167 154c0 101 -77 156 -166 156c-82 0 -166 -50 -166 -154zM45 -77h98c-1 -81 77 -122 160 -123c79 0 161 30 161 103c0 67 -67 111 -159 111
c-158 0 -264 92 -264 246c0 164 135 247 264 247c42 0 100 -10 135 -34l54 65l70 -56l-58 -69c41 -47 61 -92 61 -155c0 -89 -44 -161 -133 -194c99 -33 131 -100 131 -161c0 -131 -128 -198 -262 -198c-158 -1 -261 83 -258 218z" />
    <glyph glyph-name="gcommaaccent" unicode="&#x123;" horiz-adv-x="611" 
d="M365 761l-30 -75c26 -5 45 -24 45 -51c0 -81 -124 -78 -124 3c0 12 25 84 45 123h64zM139 260c3 -103 77 -160 168 -160c94 0 164 68 164 158c0 101 -77 158 -166 158c-82 0 -166 -52 -166 -156zM45 -76h95c2 -92 80 -127 163 -128c79 0 161 26 161 107
c0 67 -67 111 -159 111c-158 0 -264 92 -264 246c0 164 135 247 264 247c42 0 100 -10 135 -34l54 65l70 -56l-58 -68c41 -47 61 -91 61 -154c0 -86 -40 -161 -129 -195c99 -32 127 -99 127 -160c0 -131 -128 -199 -262 -199c-158 0 -261 83 -258 218z" />
    <glyph glyph-name="gdotaccent" unicode="&#x121;" horiz-adv-x="613" 
d="M315 600c-32 0 -64 19 -64 58c0 38 32 57 63 57c32 0 64 -19 64 -57c0 -39 -32 -58 -63 -58zM139 264c0 -100 75 -154 166 -154c95 0 164 65 164 154c0 100 -77 155 -164 155c-82 0 -166 -49 -166 -155zM46 -76h96c-2 -79 79 -126 161 -125c79 0 161 35 161 108
c0 67 -67 111 -159 111c-158 0 -264 92 -264 246c0 164 135 247 266 247c41 0 99 -10 134 -34l57 61l70 -56l-58 -66c41 -47 57 -91 57 -154c0 -89 -40 -162 -129 -196c99 -32 131 -99 131 -160c0 -131 -128 -198 -262 -199c-159 0 -262 83 -261 217z" />
    <glyph glyph-name="hbar" unicode="&#x127;" horiz-adv-x="665" 
d="M48 505v70h59v40h-76v86h174v-126h92v-70h-92v-82c42 55 104 77 163 77c140 0 210 -98 210 -235v-179h78v-86h-235v86h60v177c0 91 -49 145 -130 144c-88 -1 -145 -67 -145 -151v-170h77v-86h-256v86h80v419h-59z" />
    <glyph glyph-name="hcircumflex" unicode="&#x125;" horiz-adv-x="665" 
d="M62 768v7l146 135h56l146 -135v-7h-104l-71 65l-72 -65h-101zM107 86v529h-76v86h174v-278c42 55 104 77 163 77c140 0 210 -98 210 -235v-179h78v-86h-235v86h60v177c0 91 -49 145 -130 144c-88 -1 -145 -67 -145 -151v-170h77v-86h-256v86h80z" />
    <glyph glyph-name="dotlessj" unicode="&#x237;" horiz-adv-x="283" 
d="M24 494h184v-551c0 -122 -44 -188 -153 -188c-36 0 -70 8 -103 29l33 79c21 -10 44 -16 64 -16c52 3 62 37 62 96v463h-87v88z" />
    <glyph glyph-name="kgreenlandic" unicode="&#x138;" horiz-adv-x="591" 
d="M117 408h-75v89h172v-210l88 79l60 47l-60 3v79h249v-82h-61l-153 -124l148 -200h82v-89h-179v55l-125 173l-49 -39v-100h66v-89h-240v89h77v319z" />
    <glyph glyph-name="lcaron" unicode="&#x13e;" horiz-adv-x="313" 
d="M241 553l28 148h99l-52 -148h-75zM33 612v88h174v-611h74v-89h-251v89h79v523h-76z" />
    <glyph glyph-name="eng" unicode="&#x14b;" horiz-adv-x="659" 
d="M595 -16c0 -122 -44 -183 -158 -181c-35 0 -61 9 -95 29l31 79c23 -11 40 -17 59 -16c55 0 62 35 62 89v283c0 94 -38 143 -138 143c-85 -1 -139 -67 -139 -148v-173h78v-89h-256v89h80v318h-78v87h168l6 -65c44 48 95 74 160 74c147 0 220 -98 220 -235v-284z" />
    <glyph glyph-name="scommaaccent" unicode="&#x219;" horiz-adv-x="513" 
d="M448 468l-2 -129h-84l-5 72c-20 11 -77 16 -100 16c-61 2 -112 -25 -110 -71c1 -42 56 -55 110 -60c94 -11 218 -29 216 -157c-2 -99 -93 -153 -213 -153c-81 0 -142 18 -213 60l3 130h86l4 -71c39 -19 80 -27 122 -27c41 0 112 7 115 65c1 46 -52 62 -125 69
c-101 13 -201 38 -201 144c-2 110 113 156 205 155c64 0 136 -15 192 -43zM221 -248l20 71c-24 6 -40 24 -40 49c0 76 122 73 122 -1c0 -11 -9 -57 -39 -119h-63z" />
    <glyph glyph-name="longs" unicode="&#x17f;" horiz-adv-x="344" 
d="M378 695l-27 -82c-14 5 -28 9 -44 9c-49 0 -83 -37 -83 -100v-434h86v-87h-262v87h78v317h-95v82h95v35c0 121 74 185 179 185c22 0 50 -5 73 -12z" />
    <glyph glyph-name="uni021B" unicode="&#x21b;" horiz-adv-x="387" 
d="M107 624l99 11v-142h145v-85h-146v-241c0 -53 21 -83 71 -83c21 0 42 5 62 15l28 -83c-34 -15 -61 -22 -95 -23c-106 -3 -164 61 -164 174v241h-96v85h96v131zM191 -269l23 86c-22 6 -37 22 -37 48c0 76 115 73 115 0c0 -8 -18 -59 -42 -134h-59z" />
    <glyph glyph-name="uogonek" unicode="&#x173;" horiz-adv-x="675" 
d="M567 496v-407h79v-89c2 0 -84 1 -82 1c-17 -34 -38 -67 -25 -93c18 -33 65 -44 122 -9l19 -63c-63 -38 -182 -50 -217 38c-16 39 -5 78 32 126h9l-27 68c-47 -53 -108 -73 -170 -74c-151 0 -218 93 -218 234v181h-74v87h173v-267c0 -93 39 -142 140 -142
c84 1 140 65 140 148v174h-80v87h179z" />
    <glyph glyph-name="wacute" unicode="&#x1e83;" horiz-adv-x="910" 
d="M483 575h-83v5l55 117h111zM232 -3l-142 412h-75v86h239v-86h-58l96 -309l122 395h83l122 -395l95 309h-65v86h244v-86h-72l-143 -412h-113l-68 182l-42 160l-45 -160l-65 -182h-113z" />
    <glyph glyph-name="wdieresis" unicode="&#x1e85;" horiz-adv-x="910" 
d="M324 579c-31 0 -61 20 -61 59c0 41 30 61 61 61c30 0 61 -20 61 -61c0 -39 -30 -59 -61 -59zM590 579c-30 0 -60 19 -60 58c0 40 30 61 60 61s60 -20 60 -60c0 -39 -30 -59 -60 -59zM232 -3l-142 412h-75v86h239v-86h-58l96 -309l122 395h83l122 -395l95 309h-65v86h244
v-86h-72l-143 -412h-113l-68 182l-42 160l-45 -160l-65 -182h-113z" />
    <glyph glyph-name="wgrave" unicode="&#x1e81;" horiz-adv-x="910" 
d="M491 568h-82l-91 124h112l61 -118v-6zM232 -3l-142 412h-75v86h239v-86h-58l96 -309l122 395h83l122 -395l95 309h-65v86h244v-86h-72l-143 -412h-113l-68 182l-42 160l-45 -160l-65 -182h-113z" />
    <glyph glyph-name="ygrave" unicode="&#x1ef3;" horiz-adv-x="610" 
d="M342 579h-85l-88 120h116l57 -114v-6zM421 408h-74v88h245v-88h-63l-220 -536c-50 -120 -151 -123 -251 -72l36 82c44 -20 94 -36 120 19l39 105l-171 402h-66v88h233v-87h-56l68 -153l51 -141l48 137z" />
    <glyph glyph-name="a.alt" 
d="M402 195c-43 26 -107 40 -148 41c-57 1 -118 -19 -119 -79c0 -61 70 -80 118 -80c79 1 147 52 149 118zM398 318c0 73 -73 92 -141 95c-32 0 -61 -3 -87 -8l-4 -59h-88l-1 122c52 24 118 35 185 35c116 0 234 -40 234 -186v-229h77v-88h-155l-12 65
c-39 -51 -106 -74 -167 -74c-105 0 -202 31 -202 153c0 179 241 176 361 135v39z" />
    <glyph glyph-name="aacute.alt" 
d="M305 577h-90v6l67 122h119zM402 195c-42 26 -106 40 -146 41c-57 2 -120 -19 -121 -79c0 -61 70 -80 118 -80c79 1 147 52 149 118zM398 318c0 73 -73 92 -141 95c-32 0 -61 -3 -87 -8l-4 -59h-88l-1 122c52 24 118 35 185 35c116 0 234 -40 234 -186v-229h77v-88h-155
l-12 65c-39 -51 -106 -74 -167 -74c-105 0 -202 31 -202 153c0 179 241 176 361 135v39z" />
    <glyph glyph-name="abreve.alt" 
d="M342 706h80c6 -93 -63 -141 -144 -141c-80 0 -149 49 -143 141h79c0 -38 24 -66 64 -66c41 0 64 28 64 66zM402 195c-43 26 -107 40 -147 41c-57 1 -119 -19 -120 -79c0 -61 70 -80 118 -80c79 1 147 52 149 118zM398 318c0 73 -73 92 -141 95c-32 0 -61 -3 -87 -8
l-4 -59h-88l-1 122c52 24 118 35 185 35c116 0 234 -40 234 -186v-229h77v-88h-155l-12 65c-39 -51 -106 -74 -167 -74c-105 0 -202 31 -202 153c0 179 241 176 361 135v39z" />
    <glyph glyph-name="acircumflex.alt" 
d="M114 566v8l148 136h58l147 -136v-8h-100l-76 68l-75 -68h-102zM402 195c-43 26 -107 40 -148 41c-57 1 -118 -19 -119 -79c0 -61 70 -80 118 -80c79 1 147 52 149 118zM398 318c0 73 -73 92 -141 95c-32 0 -61 -3 -87 -8l-4 -59h-88l-1 122c52 24 118 35 185 35
c116 0 234 -40 234 -186v-229h77v-88h-155l-12 65c-39 -51 -106 -74 -167 -74c-105 0 -202 31 -202 153c0 179 241 176 361 135v39z" />
    <glyph glyph-name="adieresis.alt" 
d="M178 577c-31 0 -62 20 -62 60c0 41 31 61 62 62c31 0 62 -21 62 -61c0 -41 -31 -61 -62 -61zM393 576c-31 0 -62 20 -62 61s31 61 62 61s62 -20 62 -61s-31 -61 -62 -61zM402 195c-43 26 -107 40 -147 41c-57 1 -119 -19 -120 -79c0 -61 70 -80 118 -80
c79 1 147 52 149 118zM398 318c0 73 -73 92 -141 95c-32 0 -61 -3 -87 -8l-4 -59h-88l-1 122c52 24 118 35 185 35c116 0 234 -40 234 -186v-229h77v-88h-155l-12 65c-39 -51 -106 -74 -167 -74c-105 0 -202 31 -202 153c0 179 241 176 361 135v39z" />
    <glyph glyph-name="agrave.alt" 
d="M255 578l-99 128h118l69 -123v-5h-88zM402 195c-43 26 -107 40 -148 41c-57 1 -118 -19 -119 -79c0 -61 70 -80 118 -80c79 1 147 52 149 118zM398 318c0 73 -73 92 -141 95c-32 0 -61 -3 -87 -8l-4 -59h-88l-1 122c52 24 118 35 185 35c116 0 234 -40 234 -186v-229h77
v-88h-155l-12 65c-39 -51 -106 -74 -167 -74c-105 0 -202 31 -202 153c0 179 241 176 361 135v39z" />
    <glyph glyph-name="amacron.alt" 
d="M130 608v83h298v-83h-298zM402 195c-43 26 -107 40 -147 41c-57 1 -119 -19 -120 -79c0 -61 70 -80 118 -80c79 1 147 52 149 118zM398 318c0 73 -73 92 -141 95c-32 0 -61 -3 -87 -8l-4 -59h-88l-1 122c52 24 118 35 185 35c116 0 234 -40 234 -186v-229h77v-88h-155
l-12 65c-39 -51 -106 -74 -167 -74c-105 0 -202 31 -202 153c0 179 241 176 361 135v39z" />
    <glyph glyph-name="aogonek.alt" horiz-adv-x="582" 
d="M402 199c-42 26 -105 29 -145 31c-58 1 -121 -19 -122 -75c0 -70 66 -78 118 -78c79 1 147 56 149 122zM398 318c0 73 -73 92 -141 95c-32 0 -61 -3 -87 -8l-4 -59h-88l-1 122c52 24 118 35 185 35c116 0 234 -40 234 -186v-233h80l1 -84c-108 10 -137 -43 -121 -86
c14 -33 71 -43 126 3l21 -69c-75 -55 -200 -56 -231 41c-13 47 10 91 55 111h3l-23 65c-39 -51 -107 -74 -168 -74c-105 0 -202 37 -202 158c0 175 241 171 361 130v39z" />
    <glyph glyph-name="aring.alt" 
d="M400 659c0 -67 -58 -99 -124 -99c-67 0 -117 41 -117 98c0 68 59 100 119 100s122 -32 122 -99zM335 661c0 19 -17 41 -57 41c-39 0 -53 -22 -53 -40c0 -19 14 -43 53 -43c41 0 57 23 57 42zM402 195c-43 26 -107 40 -147 41c-57 1 -119 -19 -120 -79
c0 -61 70 -80 118 -80c79 1 147 52 149 118zM398 318c0 73 -73 92 -141 95c-32 0 -61 -3 -87 -8l-4 -59h-88l-1 122c52 24 118 35 185 35c116 0 234 -40 234 -186v-229h77v-88h-155l-12 65c-39 -51 -106 -74 -167 -74c-105 0 -202 31 -202 153c0 179 241 176 361 135v39z
" />
    <glyph glyph-name="aringacute.alt" 
d="M227 747l74 95h118l-103 -98h-89v3zM273 537c-64 0 -109 30 -109 95c0 57 53 90 110 90c55 0 110 -31 110 -92c0 -60 -52 -93 -111 -93zM273 664c-30 0 -46 -24 -46 -35c0 -16 13 -37 45 -37c35 0 47 20 46 37c0 15 -12 35 -45 35zM402 195c-42 25 -105 39 -145 41
c-58 2 -121 -18 -122 -79c0 -61 70 -80 118 -80c79 1 147 52 149 118zM398 318c0 73 -73 92 -141 95c-32 0 -61 -3 -87 -8l-4 -59h-88l-1 122c52 24 118 35 185 35c116 0 234 -40 234 -186v-229h77v-88h-155l-12 65c-39 -51 -106 -74 -167 -74c-105 0 -202 31 -202 153
c0 179 241 176 361 135v39z" />
    <glyph glyph-name="atilde.alt" 
d="M255 681c16 -4 47 -26 60 -28c16 -4 39 0 51 28l65 -29c-19 -74 -77 -93 -123 -78c-16 4 -48 26 -64 28c-20 7 -47 1 -61 -30l-61 31c17 63 76 96 133 78zM402 195c-43 26 -107 40 -147 41c-57 1 -119 -19 -120 -79c0 -61 70 -80 118 -80c79 1 147 52 149 118zM398 318
c0 73 -73 92 -141 95c-32 0 -61 -3 -87 -8l-4 -59h-88l-1 122c52 24 118 35 185 35c116 0 234 -40 234 -186v-229h77v-88h-155l-12 65c-39 -51 -106 -74 -167 -74c-105 0 -202 31 -202 153c0 179 241 176 361 135v39z" />
    <glyph glyph-name="g.alt" horiz-adv-x="672" 
d="M306 409c-88 0 -165 -61 -165 -165c0 -98 72 -167 164 -167c109 0 166 86 166 166c0 88 -62 166 -165 166zM569 -9c0 -177 -122 -248 -250 -248c-151 0 -246 68 -247 190h95c6 -67 70 -99 153 -99c78 0 150 47 150 157v87c-39 -61 -109 -90 -174 -91
c-145 0 -255 98 -255 261c0 162 114 256 257 253c71 0 136 -28 173 -85c0 -14 4 93 4 80h169v-88h-75v-417z" />
    <glyph glyph-name="gbreve.alt" horiz-adv-x="672" 
d="M373 709l78 -1c6 -91 -63 -139 -143 -139c-79 0 -148 48 -142 139h79c0 -37 23 -65 65 -65c40 0 63 28 63 66zM306 409c-88 0 -165 -61 -165 -165c0 -98 72 -167 164 -167c109 0 166 86 166 166c0 88 -62 166 -165 166zM569 -9c0 -177 -122 -248 -250 -248
c-151 0 -246 68 -247 190h95c6 -67 70 -99 153 -99c78 0 150 47 150 157v87c-39 -61 -109 -90 -174 -91c-145 0 -255 98 -255 261c0 162 114 256 257 253c71 0 136 -28 173 -85c0 -14 4 93 4 80h169v-88h-75v-417z" />
    <glyph glyph-name="gcircumflex.alt" horiz-adv-x="672" 
d="M353 720l148 -140v-6h-100l-79 71l-78 -71h-101v6l149 140h61zM306 409c-88 0 -165 -61 -165 -165c0 -98 72 -167 164 -167c109 0 166 86 166 166c0 88 -62 166 -165 166zM569 -9c0 -177 -122 -248 -250 -248c-151 0 -246 68 -247 190h95c6 -67 70 -99 153 -99
c78 0 150 47 150 157v87c-39 -61 -109 -90 -174 -91c-145 0 -255 98 -255 261c0 162 114 256 257 253c71 0 136 -28 173 -85c0 -14 4 93 4 80h169v-88h-75v-417z" />
    <glyph glyph-name="gcommaaccent.alt" horiz-adv-x="672" 
d="M294 755h64l-23 -76c21 -5 39 -21 39 -49c1 -81 -121 -78 -122 0c-1 6 18 49 42 125zM306 409c-88 0 -165 -61 -165 -165c0 -98 72 -167 164 -167c109 0 166 86 166 166c0 88 -62 166 -165 166zM569 -9c0 -177 -122 -248 -250 -248c-151 0 -246 68 -247 190h95
c6 -67 70 -99 153 -99c78 0 150 47 150 157v87c-39 -61 -109 -90 -174 -91c-145 0 -255 98 -255 261c0 162 114 256 257 253c71 0 136 -28 173 -85c0 -14 4 93 4 80h169v-88h-75v-417z" />
    <glyph glyph-name="gdotaccent.alt" horiz-adv-x="672" 
d="M316 598c-31 0 -61 21 -61 62c0 40 30 60 61 60c30 0 61 -20 61 -61s-30 -61 -61 -61zM306 409c-88 0 -165 -61 -165 -165c0 -98 72 -167 164 -167c109 0 166 86 166 166c0 88 -62 166 -165 166zM569 -9c0 -177 -122 -248 -250 -248c-151 0 -246 68 -247 190h95
c6 -67 70 -99 153 -99c78 0 150 47 150 157v87c-39 -61 -109 -90 -174 -91c-145 0 -255 98 -255 261c0 162 114 256 257 253c71 0 136 -28 173 -85c0 -14 4 93 4 80h169v-88h-75v-417z" />
    <glyph glyph-name="y.alt" horiz-adv-x="637" 
d="M468 68c-45 -56 -98 -75 -165 -74c-124 0 -216 87 -216 234v180h-79v88h177v-267c0 -84 52 -144 140 -145c85 1 138 69 138 151v173h-81v88h180v-504c0 -174 -110 -246 -234 -246c-136 0 -223 67 -232 192h96c13 -72 59 -98 133 -98c75 0 143 46 143 154v74z" />
    <glyph glyph-name="yacute.alt" horiz-adv-x="637" 
d="M247 570v5l73 125h120l-103 -130h-90zM468 68c-45 -56 -98 -75 -165 -74c-124 0 -216 87 -216 234v180h-79v88h177v-267c0 -84 52 -144 140 -145c85 1 138 69 138 151v173h-81v88h180v-504c0 -174 -110 -246 -234 -246c-136 0 -223 67 -232 192h96c13 -72 59 -98 133 -98
c75 0 143 46 143 154v74z" />
    <glyph glyph-name="ycircumflex.alt" horiz-adv-x="637" 
d="M339 707l144 -132v-7h-104l-71 62l-72 -62h-101v7l145 132h59zM468 68c-45 -56 -98 -75 -165 -74c-124 0 -216 87 -216 234v180h-79v88h177v-267c0 -84 52 -144 140 -145c85 1 138 69 138 151v173h-81v88h180v-504c0 -174 -110 -246 -234 -246c-136 0 -223 67 -232 192
h96c13 -72 59 -98 133 -98c75 0 143 46 143 154v74z" />
    <glyph glyph-name="ydieresis.alt" horiz-adv-x="637" 
d="M419 581c-30 0 -61 20 -61 61s31 61 61 61c31 0 62 -20 62 -61s-31 -61 -62 -61zM179 581c-31 0 -62 20 -62 61s31 61 62 61c30 0 61 -20 61 -61s-31 -61 -61 -61zM468 68c-45 -56 -98 -75 -165 -74c-124 0 -216 87 -216 234v180h-79v88h177v-267c0 -84 52 -144 140 -145
c85 1 138 69 138 151v173h-81v88h180v-504c0 -174 -110 -246 -234 -246c-136 0 -223 67 -232 192h96c13 -72 59 -98 133 -98c75 0 143 46 143 154v74z" />
    <glyph glyph-name="ygrave.alt" horiz-adv-x="637" 
d="M342 575v-5h-90l-93 130h121zM467 68c-44 -56 -97 -75 -165 -74c-124 0 -216 87 -216 234v180h-78v88h177v-267c0 -84 52 -144 140 -145c85 1 137 69 137 151v173h-80v88h180v-504c0 -174 -110 -246 -234 -246c-136 0 -223 67 -232 192h96c12 -72 59 -98 133 -98
c75 0 142 46 142 154v74z" />
    <glyph glyph-name="_375" unicode="&#x394;" horiz-adv-x="693" 
d="M370 700l309 -700h-687l310 700h68zM335 581l-209 -495h420z" />
    <glyph glyph-name="zero.denom" horiz-adv-x="452" 
d="M68 152v54c0 108 84 160 159 160s157 -54 157 -160v-54c0 -216 -316 -216 -316 0zM145 204v-53c0 -117 160 -118 160 0v53c0 61 -42 92 -79 92s-81 -30 -81 -92z" />
    <glyph glyph-name="one.denom" horiz-adv-x="311" 
d="M59 0v66h63v212l-53 -15v68l131 32v-297h64v-66h-205z" />
    <glyph glyph-name="two.denom" horiz-adv-x="368" 
d="M114 261h-76c0 82 73 110 141 110c80 0 147 -29 147 -116c0 -99 -90 -100 -141 -104c-26 -2 -70 -5 -70 -60v-19h138l2 49h72v-121h-292v92c0 79 60 116 129 122c48 4 85 4 85 43c0 34 -30 48 -70 48c-34 0 -64 -10 -65 -44z" />
    <glyph glyph-name="three.denom" horiz-adv-x="364" 
d="M112 300l-2 -34h-67v101h279v-18l-89 -124c53 -4 96 -30 96 -107c0 -99 -83 -123 -151 -123s-143 30 -145 113h79c6 -40 46 -40 67 -40c27 0 69 5 69 50c0 21 -8 51 -65 50c1 0 -51 0 -50 0l-8 16l78 116h-91z" />
    <glyph glyph-name="four.denom" horiz-adv-x="368" 
d="M189 364h105v-227h42v-69h-42v-67h-77v67h-192l-2 65zM106 137h111v155z" />
    <glyph glyph-name="five.denom" horiz-adv-x="359" 
d="M115 235l66 -2c86 0 150 -37 148 -123c0 -80 -64 -119 -146 -119c-77 0 -148 28 -149 114h75c1 -33 34 -44 71 -44c47 0 70 19 70 51c0 30 -19 55 -70 55h-139v197h265v-68h-191v-61z" />
    <glyph glyph-name="six.denom" horiz-adv-x="376" 
d="M120 251v-46c19 17 48 23 73 23c73 0 150 -22 150 -117c0 -85 -78 -117 -150 -117c-73 0 -149 36 -149 119v138c0 82 73 118 146 118c78 0 146 -30 148 -103h-77c-3 25 -29 35 -70 35c-38 0 -71 -13 -71 -50zM193 60c25 0 72 10 72 51c0 36 -34 53 -72 53
s-74 -15 -74 -52c0 -39 36 -52 74 -52z" />
    <glyph glyph-name="seven.denom" horiz-adv-x="329" 
d="M314 364l4 -33l-148 -331h-89l133 292h-107l-5 -52h-73v124h285z" />
    <glyph glyph-name="eight.denom" horiz-adv-x="382" 
d="M35 104c0 42 25 71 65 84c-36 15 -57 42 -57 77c0 77 75 107 148 107c72 0 149 -30 149 -107c0 -33 -17 -62 -56 -77c39 -13 63 -51 63 -86c0 -86 -81 -113 -157 -111c-76 0 -157 27 -155 113zM261 263c0 32 -38 46 -70 46c-33 0 -70 -14 -70 -44c0 -32 29 -46 70 -46
c40 0 70 10 70 44zM267 103c0 33 -37 50 -76 50s-76 -16 -76 -51c0 -27 33 -48 76 -48c41 0 76 21 76 49z" />
    <glyph glyph-name="nine.denom" horiz-adv-x="375" 
d="M183 303c-36 0 -72 -13 -72 -52c0 -35 35 -53 72 -53c39 0 75 15 74 51c0 37 -38 54 -74 54zM256 111v46c-19 -17 -48 -23 -73 -23c-72 0 -150 23 -150 117c0 87 79 117 150 117c73 0 149 -36 149 -118v-139c0 -90 -72 -120 -144 -120c-78 0 -146 31 -148 105h77
c3 -25 29 -35 70 -35c38 0 69 13 69 50z" />
    <glyph glyph-name="zero.num" horiz-adv-x="388" 
d="M36 496v55c0 108 84 161 159 160c75 0 157 -54 157 -161v-54c0 -216 -316 -216 -316 0zM112 551v-55c0 -117 159 -118 159 0v55c0 60 -42 92 -79 92s-80 -31 -80 -92z" />
    <glyph glyph-name="one.num" horiz-adv-x="326" 
d="M66 347v68h63v210l-53 -14v68l131 32v-296h64v-68h-205z" />
    <glyph glyph-name="two.num" horiz-adv-x="368" 
d="M114 599h-76c0 83 74 111 141 111c81 0 147 -29 147 -116c0 -99 -90 -100 -140 -104c-27 -2 -71 -6 -71 -61v-19h138l3 50h71v-121h-291v91c0 80 60 117 128 123c48 3 85 4 85 42c0 35 -29 48 -70 48c-34 0 -64 -9 -65 -44z" />
    <glyph glyph-name="three.num" horiz-adv-x="364" 
d="M112 639l-2 -34h-67v101h278v-18l-89 -124c54 -3 97 -29 97 -107c0 -99 -83 -123 -151 -123c-69 0 -144 30 -145 113h79c5 -39 46 -40 67 -40c27 0 69 5 69 50c0 21 -8 51 -65 50c1 0 -51 0 -50 0l-8 16l77 116h-90z" />
    <glyph glyph-name="four.num" horiz-adv-x="365" 
d="M188 702h105v-227h40v-69h-40v-66h-77v66h-192l-2 65zM104 475h112v155z" />
    <glyph glyph-name="five.num" horiz-adv-x="359" 
d="M116 572l63 -1c86 0 150 -37 150 -123c0 -80 -65 -120 -146 -120c-76 0 -148 29 -149 114h76c0 -32 34 -43 70 -43c48 0 71 19 71 51c0 30 -19 54 -72 54h-137v197h265v-67h-191v-62z" />
    <glyph glyph-name="six.num" horiz-adv-x="376" 
d="M119 587v-45c19 16 48 22 74 22c72 0 150 -22 150 -117c0 -85 -79 -117 -151 -117c-73 0 -148 36 -148 120v137c0 82 73 119 145 119c78 0 146 -31 148 -103h-77c-3 24 -29 35 -70 35c-38 0 -71 -13 -71 -51zM192 396c26 0 73 10 73 51c0 37 -35 53 -72 53
c-39 0 -75 -15 -75 -52c0 -38 36 -52 74 -52z" />
    <glyph glyph-name="seven.num" horiz-adv-x="331" 
d="M315 701l4 -32l-148 -331h-90l133 292h-107l-4 -52h-74v123h286z" />
    <glyph glyph-name="eight.num" horiz-adv-x="382" 
d="M35 437c0 42 25 71 65 85c-36 14 -57 42 -57 76c0 77 75 107 148 107c72 0 149 -29 149 -107c0 -32 -17 -62 -56 -76c39 -14 63 -51 63 -86c0 -86 -81 -113 -157 -112c-76 0 -157 27 -155 113zM261 597c0 32 -38 46 -70 46c-33 0 -70 -14 -70 -45s29 -45 70 -45
c40 0 70 10 70 44zM267 437c0 33 -37 50 -76 50s-76 -16 -76 -51c0 -27 33 -48 76 -48c41 0 76 21 76 49z" />
    <glyph glyph-name="nine.num" horiz-adv-x="379" 
d="M183 642c-36 0 -73 -14 -73 -53c0 -35 35 -52 73 -52s74 14 74 50c0 38 -38 55 -74 55zM256 449v46c-19 -16 -48 -22 -73 -22c-73 0 -151 23 -151 116c0 87 79 118 151 118c73 0 149 -37 149 -119v-139c0 -90 -71 -119 -143 -119c-78 0 -147 30 -149 104h77
c3 -25 30 -35 70 -35c39 0 69 13 69 50z" />
    <glyph glyph-name="zero.tf" horiz-adv-x="700" 
d="M60 290v121c0 200 147 301 289 301c142 -1 291 -101 291 -301v-121c0 -200 -150 -300 -291 -301c-140 0 -289 101 -289 301zM166 411v-122c0 -134 95 -201 183 -201c87 1 184 68 184 202v121c0 132 -96 198 -184 199c-89 0 -183 -66 -183 -199z" />
    <glyph glyph-name="one.tf" horiz-adv-x="700" 
d="M100 0v91h209v475l-180 -44v97l285 81v-609h210v-91h-524z" />
    <glyph glyph-name="two.tf" horiz-adv-x="700" 
d="M178 174v-77h344l5 99h95v-196h-550v175c0 158 144 205 280 205c63 0 165 23 165 114c0 93 -72 122 -158 122c-79 0 -178 -15 -179 -114h-105c9 161 135 207 284 207c130 0 262 -56 262 -213c0 -161 -128 -214 -268 -215c-71 0 -175 -18 -175 -107z" />
    <glyph glyph-name="three.tf" horiz-adv-x="700" 
d="M272 376v-1c-2 -2 -2 -3 0 1zM352 -8c-124 0 -280 39 -280 206h105c1 -106 115 -109 177 -109c112 0 167 56 167 120c0 147 -128 147 -234 141l-15 25c17 23 153 207 171 230l-245 -1l-3 -100h-97v196h505v-42l-181 -228c122 -15 204 -79 204 -216
c0 -136 -109 -222 -274 -222z" />
    <glyph glyph-name="four.tf" horiz-adv-x="700" 
d="M449 0v141h-394l-15 117l340 442h175v-457h83v-102h-83v-141h-106zM159 243h290v376z" />
    <glyph glyph-name="five.tf" horiz-adv-x="700" 
d="M196 444l166 1c161 0 272 -74 270 -221c0 -143 -117 -231 -273 -231c-145 0 -281 51 -282 212h107c0 -91 99 -111 174 -111c91 0 167 45 167 129c0 81 -67 122 -165 122h-269v355h501v-101h-396v-155z" />
    <glyph glyph-name="six.tf" horiz-adv-x="700" 
d="M178 492v-127c42 57 120 76 185 76c138 0 284 -59 284 -227c0 -156 -147 -226 -285 -226c-140 0 -288 72 -288 230v275c0 149 141 219 281 219c148 0 278 -60 281 -197h-104c-2 73 -87 108 -175 108c-92 1 -179 -48 -179 -131zM362 83c90 1 180 38 180 131
c0 95 -85 134 -177 134c-93 0 -185 -43 -185 -134c1 -93 93 -131 182 -131z" />
    <glyph glyph-name="seven.tf" horiz-adv-x="700" 
d="M204 604l-3 -100h-94v196h511l7 -61l-330 -639h-118l318 604h-291z" />
    <glyph glyph-name="eight.tf" horiz-adv-x="700" 
d="M52 205c0 67 45 132 121 157c-68 30 -105 75 -105 147c0 143 138 204 281 204c141 0 283 -61 284 -204c0 -61 -41 -120 -110 -145c72 -24 123 -94 124 -162c2 -170 -151 -218 -298 -217c-145 0 -299 45 -297 220zM526 512c2 76 -91 114 -179 114
c-94 0 -175 -45 -173 -114c1 -75 95 -110 175 -110c81 0 177 35 177 110zM349 321c-86 3 -192 -31 -192 -115s91 -125 190 -125s195 40 195 124c0 83 -108 116 -193 116z" />
    <glyph glyph-name="nine.tf" horiz-adv-x="700" 
d="M340 620c-87 -1 -178 -39 -178 -132s86 -134 177 -134c92 0 184 43 183 134c0 93 -91 132 -182 132zM524 210v131c-41 -62 -117 -80 -185 -80c-138 0 -284 59 -284 227c0 156 147 226 285 226c141 0 288 -72 288 -230v-275c0 -149 -141 -219 -281 -219
c-148 0 -279 60 -282 197h104c2 -69 89 -104 176 -104c88 -1 179 44 179 127z" />
    <glyph glyph-name="uni2153" unicode="&#x2153;" horiz-adv-x="784" 
d="M43 343v67h63v211l-53 -13v68l131 32v-298h63v-67h-204zM209 -3h-88l382 709h90zM529 298l-2 -34h-68v101h279v-18l-89 -124c54 -3 96 -29 96 -107c0 -99 -83 -123 -151 -123s-143 30 -144 113h78c6 -39 47 -40 68 -40c26 0 68 5 68 50c0 21 -8 52 -66 50
c2 0 -50 0 -49 0l-7 16l77 116h-90z" />
    <glyph glyph-name="uni2154" unicode="&#x2154;" horiz-adv-x="862" 
d="M122 598h-76c0 82 73 110 141 110c80 0 147 -28 147 -115c0 -100 -90 -100 -141 -105c-26 -2 -70 -5 -70 -60v-19h138l2 50h72v-122h-292v92c0 80 60 117 129 123c48 3 85 4 85 42c0 35 -30 48 -70 48c-34 0 -64 -9 -65 -44zM290 -3h-89l383 709h91zM606 298l-2 -34h-67
v101h278v-18l-89 -124c54 -4 97 -30 97 -107c0 -99 -83 -123 -151 -123c-69 0 -144 30 -145 113h79c5 -40 46 -40 67 -40c27 0 69 5 69 50c0 21 -7 51 -65 50c1 0 -51 0 -50 0l-8 16l77 116h-90z" />
    <glyph glyph-name="oneeighth" unicode="&#x215b;" horiz-adv-x="790" 
d="M45 343v67h63v211l-53 -13v68l131 32v-298h63v-67h-204zM207 -3h-87l381 709h90zM442 103c0 28 24 74 66 85c-37 14 -57 42 -57 78c0 77 74 107 147 107c72 0 149 -30 149 -107c0 -33 -16 -62 -54 -77c39 -13 63 -51 63 -86c0 -86 -81 -113 -158 -113
c-75 0 -156 27 -156 113zM668 263c0 32 -37 46 -68 46c-33 0 -70 -14 -69 -46c0 -32 29 -46 69 -46s68 14 68 46zM676 103c0 33 -37 52 -76 52s-76 -16 -76 -52c0 -27 33 -48 76 -48c41 0 76 21 76 48z" />
    <glyph glyph-name="threeeighths" unicode="&#x215c;" horiz-adv-x="835" 
d="M269 -3h-88l381 709h91zM115 634l-2 -34h-67v101h279v-18l-89 -121c53 -4 96 -30 96 -108c0 -98 -83 -123 -151 -123s-143 30 -145 113h79c6 -39 46 -40 67 -40c27 0 69 5 69 50c0 22 -8 52 -66 51c2 -1 -50 -1 -49 -1l-8 16l78 114h-91zM488 103c0 28 24 74 65 85
c-36 14 -57 42 -57 78c0 77 74 107 148 107c72 0 149 -30 149 -107c0 -33 -17 -62 -55 -77c39 -13 63 -51 63 -86c0 -86 -81 -113 -157 -113s-157 27 -156 113zM714 263c0 32 -38 46 -69 46c-33 0 -70 -14 -69 -46s29 -46 69 -46s69 14 69 46zM721 103c0 33 -37 52 -76 52
s-76 -16 -76 -52c0 -27 33 -48 76 -48c41 0 76 21 76 48z" />
    <glyph glyph-name="fiveeighths" unicode="&#x215d;" horiz-adv-x="837" 
d="M272 -3h-88l382 709h90zM120 572h63c86 0 150 -37 150 -123c0 -80 -65 -120 -146 -120c-76 0 -148 29 -149 114h76c0 -32 34 -43 70 -43c48 0 71 19 71 51c0 30 -19 54 -72 54h-137v196h263v-68h-189v-61zM490 103c0 28 24 74 65 85c-36 14 -57 42 -57 78
c0 77 74 107 148 107c72 0 149 -30 149 -107c0 -33 -17 -62 -55 -77c39 -13 63 -51 63 -86c0 -86 -81 -113 -157 -113s-157 27 -156 113zM716 263c0 32 -38 46 -69 46c-33 0 -70 -14 -69 -46s29 -46 69 -46s69 14 69 46zM723 103c0 33 -37 52 -76 52s-76 -16 -76 -52
c0 -27 33 -48 76 -48c41 0 76 21 76 48z" />
    <glyph glyph-name="seveneighths" unicode="&#x215e;" horiz-adv-x="785" 
d="M195 -3h-88l381 709h91zM320 701l4 -33l-148 -331h-88l131 292h-108l-4 -52h-73v124h286zM438 103c0 28 24 74 65 85c-36 14 -57 42 -57 78c0 77 74 107 148 107c72 0 149 -30 149 -107c0 -33 -17 -62 -55 -77c39 -13 63 -51 63 -86c0 -86 -81 -113 -157 -113
s-157 27 -156 113zM664 263c0 32 -38 46 -69 46c-33 0 -70 -14 -69 -46s29 -46 69 -46s69 14 69 46zM671 103c0 33 -37 52 -76 52s-76 -16 -76 -52c0 -27 33 -48 76 -48c41 0 76 21 76 48z" />
    <glyph glyph-name="eightinferior" unicode="&#x2088;" horiz-adv-x="382" 
d="M35 21c0 42 25 71 65 85c-36 14 -57 42 -57 76c0 77 75 107 148 107c72 0 149 -29 149 -107c0 -32 -17 -62 -56 -76c39 -14 63 -51 63 -86c0 -86 -81 -113 -157 -112c-76 0 -157 27 -155 113zM261 181c0 32 -38 46 -70 46c-33 0 -70 -14 -70 -45s29 -45 70 -45
c40 0 70 10 70 44zM267 21c0 33 -37 50 -76 50s-76 -16 -76 -51c0 -27 33 -48 76 -48c41 0 76 21 76 49z" />
    <glyph glyph-name="fiveinferior" unicode="&#x2085;" horiz-adv-x="359" 
d="M115 151l66 -2c86 0 150 -37 148 -123c0 -80 -64 -119 -146 -119c-77 0 -148 28 -149 114h75c1 -33 34 -44 71 -44c47 0 70 19 70 51c0 30 -19 55 -70 55h-139v197h265v-68h-191v-61z" />
    <glyph glyph-name="fourinferior" unicode="&#x2084;" horiz-adv-x="364" 
d="M188 278h105v-228h39v-69h-39v-66h-77v66h-192l-2 66zM105 50h111v157z" />
    <glyph glyph-name="nineinferior" unicode="&#x2089;" horiz-adv-x="377" 
d="M183 221c-36 0 -72 -14 -72 -53c0 -35 35 -52 72 -52c39 0 75 14 74 50c0 38 -38 55 -74 55zM256 28v46c-19 -16 -48 -22 -73 -22c-72 0 -150 23 -150 116c0 87 79 118 150 118c73 0 149 -37 149 -119v-139c0 -90 -72 -119 -144 -119c-78 0 -146 30 -148 104h77
c3 -25 29 -35 70 -35c38 0 69 13 69 50z" />
    <glyph glyph-name="oneinferior" unicode="&#x2081;" horiz-adv-x="261" 
d="M34 -85v68h63v209l-53 -13v68l131 32v-296h64v-68h-205z" />
    <glyph glyph-name="seveninferior" unicode="&#x2087;" horiz-adv-x="330" 
d="M315 280l4 -33l-148 -331h-90l133 292h-107l-4 -52h-74v124h286z" />
    <glyph glyph-name="sixinferior" unicode="&#x2086;" horiz-adv-x="376" 
d="M120 180v-46c19 17 48 23 73 23c73 0 150 -22 150 -117c0 -85 -78 -117 -150 -117c-73 0 -149 36 -149 119v138c0 82 73 118 146 118c78 0 146 -30 148 -103h-77c-3 25 -29 35 -70 35c-38 0 -71 -13 -71 -50zM193 -11c25 0 72 10 72 51c0 36 -34 53 -72 53
s-74 -15 -74 -52c0 -39 36 -52 74 -52z" />
    <glyph glyph-name="threeinferior" unicode="&#x2083;" horiz-adv-x="364" 
d="M112 214l-2 -34h-67v101h278v-18l-89 -124c54 -3 97 -29 97 -107c0 -99 -83 -123 -151 -123c-69 0 -144 30 -145 113h79c5 -39 46 -40 67 -40c27 0 69 5 69 50c0 21 -8 51 -66 50c2 0 -51 0 -49 0l-8 16l77 116h-90z" />
    <glyph glyph-name="twoinferior" unicode="&#x2082;" horiz-adv-x="368" 
d="M114 177h-76c0 83 73 111 141 111c80 0 147 -29 147 -116c0 -99 -90 -100 -141 -104c-26 -2 -70 -6 -70 -61v-19h138l2 50h72v-121h-292v91c0 80 60 117 129 123c48 3 85 4 85 42c0 35 -30 48 -70 48c-34 0 -64 -9 -65 -44z" />
    <glyph glyph-name="zeroinferior" unicode="&#x2080;" horiz-adv-x="388" 
d="M36 71v53c0 108 84 161 159 161c75 -1 157 -55 157 -161v-53c0 -215 -316 -215 -316 0zM112 123v-54c0 -117 159 -118 159 0v54c0 60 -42 91 -79 91s-80 -30 -80 -91z" />
    <glyph glyph-name="zerosuperior" unicode="&#x2070;" horiz-adv-x="383" 
d="M34 613v55c0 108 83 160 158 160s157 -55 157 -161v-54c0 -216 -315 -216 -315 0zM109 668v-55c0 -117 160 -118 160 0v55c0 60 -42 91 -79 91s-81 -30 -81 -91z" />
    <glyph glyph-name="foursuperior" unicode="&#x2074;" horiz-adv-x="365" 
d="M189 822h105v-227h41v-69h-41v-66h-77v66h-192l-2 65zM105 595h112v155z" />
    <glyph glyph-name="fivesuperior" unicode="&#x2075;" horiz-adv-x="363" 
d="M118 693l66 -3c86 0 149 -37 148 -121c0 -81 -65 -120 -147 -120c-76 0 -148 28 -149 113h76c0 -33 34 -44 70 -44c48 0 71 19 71 52c0 30 -19 55 -70 55h-139v196h265v-68h-191v-60z" />
    <glyph glyph-name="sixsuperior" unicode="&#x2076;" horiz-adv-x="375" 
d="M118 701v-46c19 16 48 22 73 22c72 0 150 -22 150 -116c0 -85 -79 -118 -150 -118c-73 0 -149 37 -149 120v138c0 82 73 118 145 118c78 0 147 -31 149 -103h-77c-3 25 -30 35 -70 35c-39 0 -71 -13 -71 -50zM191 510c25 0 72 10 72 51c0 36 -35 52 -72 52
c-39 0 -75 -14 -74 -51c0 -39 35 -52 74 -52z" />
    <glyph glyph-name="sevensuperior" unicode="&#x2077;" horiz-adv-x="332" 
d="M315 821l4 -33l-148 -331h-89l132 292h-106l-5 -52h-74v124h286z" />
    <glyph glyph-name="eightsuperior" unicode="&#x2078;" horiz-adv-x="380" 
d="M34 559c0 42 25 71 65 85c-36 14 -57 42 -57 76c0 77 76 107 148 107c70 0 149 -29 149 -107c0 -32 -17 -62 -56 -76c39 -14 63 -51 63 -86c0 -86 -81 -113 -158 -112c-75 0 -156 27 -154 113zM260 719c0 32 -40 46 -70 46c-31 0 -70 -14 -70 -45s28 -45 70 -45
c40 0 70 10 70 44zM266 559c0 33 -37 50 -76 50s-76 -16 -76 -51c0 -27 33 -48 76 -48c41 0 76 21 76 49z" />
    <glyph glyph-name="ninesuperior" unicode="&#x2079;" horiz-adv-x="375" 
d="M184 762c-36 0 -73 -14 -73 -52c0 -36 35 -53 73 -53s74 15 74 50c0 38 -38 55 -74 55zM257 570v45c-19 -16 -48 -22 -73 -22c-73 0 -151 23 -151 117c0 87 79 117 151 117c73 0 149 -36 149 -118v-139c0 -90 -71 -120 -143 -120c-78 0 -147 31 -149 104h77
c3 -24 30 -35 70 -35c39 0 69 13 69 51z" />
    <glyph glyph-name="bullet.case" horiz-adv-x="352" 
d="M177 213c-69 0 -120 45 -120 117c0 70 51 117 121 117c66 0 117 -47 117 -117s-52 -117 -118 -117z" />
    <glyph glyph-name="periodcentered.case" horiz-adv-x="265" 
d="M197 334c0 -85 -129 -85 -129 -1c0 85 129 85 129 1z" />
    <glyph glyph-name="braceleft.case" horiz-adv-x="345" 
d="M36 383c64 0 73 51 73 94v129c0 122 48 186 195 161v-75c-82 15 -96 -14 -96 -90v-125c0 -58 2 -112 -71 -132c74 -20 72 -76 72 -133v-137c0 -76 10 -98 96 -87l-1 -75c-152 -22 -195 39 -195 160v142c0 42 -9 94 -73 94v74z" />
    <glyph glyph-name="braceright.case" horiz-adv-x="345" 
d="M309 383v-75c-64 0 -73 -52 -73 -95v-141c0 -121 -43 -182 -195 -160v77c87 -11 97 12 97 86v138c0 58 -2 113 70 133c-73 21 -72 74 -72 131v127c0 75 -13 105 -95 90v73c146 25 195 -39 195 -159v-131c0 -43 9 -94 73 -94z" />
    <glyph glyph-name="bracketleft.case" horiz-adv-x="357" 
d="M96 -96v887h222v-89h-121v-707h121v-91h-222z" />
    <glyph glyph-name="bracketright.case" horiz-adv-x="357" 
d="M261 791v-887h-222v91h122v707h-122v89h222z" />
    <glyph glyph-name="parenleft.case" horiz-adv-x="352" 
d="M275 799l50 -69c-117 -89 -176 -234 -177 -374c0 -151 58 -286 177 -377l-53 -74c-153 100 -228 276 -228 447c0 169 78 345 231 447z" />
    <glyph glyph-name="parenright.case" horiz-adv-x="351" 
d="M27 736l50 66c154 -101 231 -277 231 -445c0 -171 -74 -347 -228 -446l-52 75c120 91 176 225 176 376c-1 140 -60 285 -177 374z" />
    <glyph glyph-name="emdash.case" horiz-adv-x="704" 
d="M70 287v93h564v-93h-564z" />
    <glyph glyph-name="endash.case" horiz-adv-x="604" 
d="M70 285v93h464v-93h-464z" />
    <glyph glyph-name="hyphen.case" horiz-adv-x="498" 
d="M68 290v95h362v-95h-362z" />
    <glyph glyph-name="guillemotleft.case" horiz-adv-x="511" 
d="M345 121l-140 221l140 221h105l-137 -221l137 -221h-105zM52 342l138 221h107l-138 -221l138 -221h-107z" />
    <glyph glyph-name="guillemotright.case" horiz-adv-x="511" 
d="M320 567l138 -220l-138 -222h-105l136 222l-136 220h105zM304 347l-138 -222h-105l136 222l-136 220h105z" />
    <glyph glyph-name="guilsinglleft.case" horiz-adv-x="356" 
d="M190 121l-138 221l138 221h106l-138 -221l138 -221h-106z" />
    <glyph glyph-name="guilsinglright.case" horiz-adv-x="360" 
d="M308 341l-139 -221h-106l138 221l-138 220h106z" />
    <glyph glyph-name=".null" horiz-adv-x="0" 
 />
    <glyph glyph-name="florin.tf" horiz-adv-x="700" 
d="M383 -3c0 -122 -68 -189 -174 -187c-42 0 -72 13 -106 35l39 73c25 -19 40 -23 64 -23c51 -1 79 35 79 104l-2 401h-144v86h144v35c0 121 74 187 178 186c42 0 82 -14 117 -37l-38 -74c-28 15 -48 25 -76 25c-48 0 -81 -35 -81 -100v-35h170v-86h-170v-403z" />
    <glyph glyph-name="Euro" unicode="&#x20ac;" horiz-adv-x="605" 
d="M38 369v84h66c31 148 142 258 340 258c37 0 74 -7 110 -18l-31 -93c-26 7 -52 10 -77 10c-123 0 -197 -56 -229 -157h240l-20 -84h-242v-23c0 -4 -1 -15 0 -19h224l-17 -82h-187c27 -102 103 -157 233 -157c30 0 64 6 94 17l30 -103c-39 -13 -84 -20 -126 -20
c-205 0 -308 101 -343 259h-63v82h51c-1 0 0 20 0 20v26h-53z" />
    <glyph glyph-name="increment" unicode="&#x2206;" horiz-adv-x="790" 
d="M454 700l314 -700h-746l314 700h118zM396 584l-214 -487h426z" />
    <glyph glyph-name="uni2215" unicode="&#x2215;" horiz-adv-x="462" 
d="M85 -3h-92l383 709h92z" />
    <glyph glyph-name="uni2219" unicode="&#x2219;" horiz-adv-x="250" 
d="M125 252c-31 0 -63 20 -63 61c0 42 32 62 63 63c32 0 63 -21 63 -62s-31 -62 -63 -62z" />
    <glyph glyph-name="afii61289" unicode="&#x2113;" horiz-adv-x="407" 
d="M213 242v-95c0 -60 70 -68 129 -56v-79c-126 -41 -239 -15 -244 145c0 4 0 -14 0 -10l-49 -24l-14 49c21 9 42 19 62 30v341c0 93 42 172 167 172c120 0 127 -108 112 -200c-14 -106 -91 -208 -163 -273zM209 316c44 56 105 143 118 209c8 51 21 135 -61 135
c-40 0 -55 -71 -55 -117c0 -56 -2 -155 -2 -227z" />
    <glyph glyph-name="estimated" unicode="&#x212e;" horiz-adv-x="631" 
d="M514 133l37 -29c-60 -85 -134 -111 -227 -111c-148 0 -268 102 -268 296c0 196 119 297 267 297s282 -80 262 -323h-402v-170c38 -35 88 -53 141 -53c78 0 142 24 190 93zM464 311v184c-36 29 -85 43 -141 43c-54 0 -101 -13 -139 -46v-181h280z" />
    <glyph glyph-name="uni2117" unicode="&#x2117;" horiz-adv-x="818" 
d="M409 715c232 0 361 -167 361 -365s-129 -365 -361 -365c-231 0 -361 167 -361 365s130 365 361 365zM137 352c0 -159 98 -286 272 -286c173 0 272 127 272 285c0 159 -99 285 -272 285c-172 0 -272 -117 -272 -284zM363 338h91c75 0 76 115 1 115h-92v-115zM364 269v-112
h-82v373h174c176 0 182 -262 -1 -262z" />
    <glyph glyph-name="arrowdown" unicode="&#x2193;" horiz-adv-x="517" 
d="M486 302l-227 -228l-228 228l51 53l133 -130v387h90v-388l134 128z" />
    <glyph glyph-name="arrowleft" unicode="&#x2190;" horiz-adv-x="617" 
d="M255 123l-228 228l228 226l53 -50l-131 -132h388v-90h-389l129 -135z" />
    <glyph glyph-name="arrowright" unicode="&#x2192;" horiz-adv-x="617" 
d="M362 579l228 -228l-228 -228l-53 51l130 133h-387v90h388l-128 134z" />
    <glyph glyph-name="arrowup" unicode="&#x2191;" horiz-adv-x="521" 
d="M34 398l228 228l226 -229l-50 -52l-133 130v-387h-90v387l-135 -129z" />
    <glyph glyph-name="uni2196" unicode="&#x2196;" horiz-adv-x="508" 
d="M63 218v321h324l1 -74h-187l275 -275l-64 -64l-273 275l-6 -186z" />
    <glyph glyph-name="uni2197" unicode="&#x2197;" horiz-adv-x="510" 
d="M445 538v-322l-75 -1v186l-274 -275l-64 64l276 274l-186 4l1 70h322z" />
    <glyph glyph-name="uni2198" unicode="&#x2198;" horiz-adv-x="565" 
d="M462 480v-323h-322l-3 69l187 6l-275 273l64 64l275 -273v185z" />
    <glyph glyph-name="uni2199" unicode="&#x2199;" horiz-adv-x="565" 
d="M104 157v323l75 1v-185l274 273l63 -64l-275 -273l187 -5l-3 -70h-321z" />
    <glyph glyph-name="cent.tf" horiz-adv-x="700" 
d="M338 -89l1 72c-122 22 -210 119 -210 252c0 125 84 229 210 253v68h93v-68c52 -9 101 -35 140 -74l-61 -63c-32 31 -82 50 -123 50c-89 0 -162 -66 -162 -166c0 -101 73 -166 162 -166c41 0 88 24 120 55l63 -72c-40 -38 -87 -62 -141 -71v-70h-92z" />
    <glyph glyph-name="dollar.tf" horiz-adv-x="700" 
d="M405 -106h-96v92c-89 5 -160 30 -231 93c0 -14 0 126 0 138v0h95l5 -88c44 -29 112 -45 165 -45c86 0 189 22 189 115c1 90 -137 107 -193 114c-136 19 -262 55 -262 205c-3 136 122 186 231 195v94h98v-96c67 -6 126 -28 188 -77c0 -53 -1 -88 -1 -141h-93l-5 95
c-46 25 -105 34 -149 34c-80 0 -166 -32 -166 -107c0 -69 75 -91 170 -106c146 -20 288 -49 288 -210c-2 -136 -115 -196 -233 -210v-95z" />
    <glyph glyph-name="Euro.tf" horiz-adv-x="700" 
d="M87 369v84h66c31 148 142 258 338 258c38 0 75 -7 110 -18l-32 -93c-26 7 -52 10 -78 10c-123 0 -197 -56 -229 -157h240l-20 -84h-242v-23c0 -4 -1 -15 0 -19h224l-17 -82h-187c27 -102 105 -157 233 -157c30 0 64 6 93 17l34 -103c-39 -13 -85 -20 -126 -20
c-202 0 -308 101 -344 259h-63v82h52c-1 0 -1 20 -1 20c0 9 0 18 1 26h-52z" />
    <glyph glyph-name="sterling.tf" horiz-adv-x="700" 
d="M74 0l3 98c78 45 98 117 91 190h-92v83h74c-9 36 -21 74 -21 115c0 144 101 223 249 223c133 0 232 -56 236 -201h-94c-4 84 -65 109 -142 109c-97 0 -148 -54 -148 -128c0 -41 9 -76 17 -115h229v-84h-210c5 -62 -5 -155 -72 -197h333l4 106h94v-199h-551z" />
    <glyph glyph-name="yen.tf" horiz-adv-x="700" 
d="M136 302v81h94l-146 221h-68v96h270v-96h-80l142 -223l146 223h-79v96h270v-96h-68l-151 -221h93v-81h-147l-11 -12v-42h162v-79h-162v-74h87v-95h-281v95h87v74h-158v79h158v42l-11 12h-147z" />
    <glyph glyph-name="bar.case" horiz-adv-x="292" 
d="M97 754h98v-834h-98v834z" />
    <glyph glyph-name="commaaccentcomb" unicode="&#x326;" horiz-adv-x="-94" 
d="M299 -297h-64l27 99c-21 5 -39 21 -40 50c-1 81 122 78 123 -1c1 -6 -22 -70 -46 -148z" />
    <glyph glyph-name="commaaccentcomb.alt" horiz-adv-x="523" 
d="M284 784l-24 -95c24 -5 41 -21 41 -49c0 -79 -123 -76 -123 3c0 10 13 44 45 141h61z" />
    <glyph glyph-name="_0004" horiz-adv-x="0" 
 />
    <glyph glyph-name="_181" unicode="&#xb5;" horiz-adv-x="613" 
d="M529 0h-86l-9 45c-30 -48 -98 -73 -148 -71c-51 0 -118 13 -142 74v-268h-91v714h98v-291c0 -90 73 -141 141 -142c67 0 139 48 139 154v279h98v-494z" />
    <glyph glyph-name="Itilde" unicode="&#x128;" horiz-adv-x="382" 
d="M167 870c14 -4 44 -23 58 -25c14 -5 36 -1 46 25l62 -28c-16 -73 -71 -94 -115 -80c-14 4 -43 24 -55 28c-16 5 -40 0 -53 -30l-62 32c14 60 64 95 119 78zM243 97h87v-97h-279v97h86v506h-84v97h275v-97h-85v-506z" />
    <glyph glyph-name="itilde" unicode="&#x129;" horiz-adv-x="320" 
d="M137 709c18 -7 31 -24 42 -26c22 -9 38 -3 45 27l59 -29c-15 -80 -67 -96 -106 -78c-13 8 -31 20 -41 25c-16 9 -37 8 -48 -23l-65 23c12 67 68 98 114 81zM41 409v87h174v-407h73v-89h-249v89h76v320h-74z" />
    <glyph glyph-name="Imacron" unicode="&#x12a;" horiz-adv-x="382" 
d="M64 758v82h258v-82h-258zM243 97h87v-97h-279v97h86v506h-84v97h275v-97h-85v-506z" />
    <glyph glyph-name="imacron" unicode="&#x12b;" horiz-adv-x="320" 
d="M55 596v83h216v-83h-216zM41 409v87h174v-407h73v-89h-249v89h77v320h-75z" />
    <glyph glyph-name="Ibreve" unicode="&#x12c;" horiz-adv-x="383" 
d="M327 879c7 -89 -42 -131 -136 -131c-85 1 -142 49 -135 133h78c0 -30 7 -60 58 -60c49 -1 60 28 59 58h76zM244 97h87v-97h-279v97h87v506h-84v97h274v-97h-85v-506z" />
    <glyph glyph-name="ibreve" unicode="&#x12d;" horiz-adv-x="320" 
d="M216 705h79c4 -85 -53 -141 -131 -140c-79 -1 -135 54 -131 140h78c-1 -23 4 -61 53 -61c47 0 53 33 52 61zM41 496h174v-407h73v-89h-249v89h77v320h-75v87z" />
    <glyph glyph-name="Iogonek" unicode="&#x12e;" horiz-adv-x="382" 
d="M53 700h275v-97h-85v-506h87v-97c-36 -1 -43 -6 -66 -14c-56 -24 -66 -64 -58 -87c14 -31 76 -36 132 13l21 -72c-75 -53 -209 -69 -242 30c-12 42 15 114 57 130h-123v97h86v506h-84v97z" />
    <glyph glyph-name="iogonek" unicode="&#x12f;" horiz-adv-x="319" 
d="M167 577c-32 0 -62 22 -62 63c0 40 30 61 62 61s62 -22 62 -63c0 -39 -30 -61 -62 -61zM120 0h-81v89h77v320h-75v87h174v-407h73v-89h5c-122 0 -150 -67 -135 -106c15 -34 80 -39 134 7l22 -70c-75 -54 -214 -67 -245 31c-13 42 6 120 51 138z" />
    <glyph glyph-name="Idotaccent" unicode="&#x130;" horiz-adv-x="382" 
d="M121 822c0 42 33 63 67 63c33 -1 67 -22 67 -65c0 -41 -33 -62 -67 -62c-33 0 -67 21 -67 64zM243 97h87v-97h-279v97h86v506h-84v97h275v-97h-85v-506z" />
    <glyph glyph-name="IJ" unicode="&#x132;" horiz-adv-x="1056" 
d="M243 97h87v-97h-279v97h86v506h-84v97h275v-97h-85v-506zM645 604v96h321v-412c4 -178 -108 -301 -291 -301c-171 0 -277 111 -277 295h106c0 -124 50 -196 171 -196c123 0 187 82 187 202v316h-217z" />
    <glyph glyph-name="ij" unicode="&#x133;" horiz-adv-x="604" 
d="M167 577c-32 0 -62 22 -62 63c0 40 30 61 62 61s62 -22 62 -63c0 -39 -30 -61 -62 -61zM41 496h174v-407h73v-89h-249v89h77v320h-75v87zM481 581c-32 0 -62 22 -62 63c0 40 30 61 61 61c32 0 63 -22 63 -63c0 -39 -31 -61 -62 -61zM345 494h184v-551
c0 -122 -45 -188 -154 -188c-35 0 -69 8 -102 29l33 79c21 -10 44 -16 63 -16c52 3 62 37 62 96v463h-86v88z" />
    <glyph glyph-name="Jcircumflex" unicode="&#x134;" horiz-adv-x="704" 
d="M228 778v8l149 138h58l149 -139v-7h-100l-78 71l-78 -71h-100zM290 602v98h324v-412c0 -178 -113 -302 -296 -302c-173 0 -297 109 -297 296h105c0 -124 69 -194 191 -194c123 0 190 81 190 200v314h-217z" />
    <glyph glyph-name="jcircumflex" unicode="&#x135;" horiz-adv-x="284" 
d="M167 714l129 -142v-6h-92l-62 67l-59 -67h-92v6l127 142h49zM25 494h184v-551c0 -122 -45 -188 -154 -188c-35 0 -69 8 -103 29l33 79c22 -10 44 -16 64 -16c52 3 62 37 62 96v463h-86v88z" />
    <glyph glyph-name="kcommaaccent" unicode="&#x137;" horiz-adv-x="581" 
d="M204 189v-100h66v-89h-240v89h77v522h-75v89h172v-413l88 79l60 47l-60 3v79h249v-82h-61l-153 -124l148 -200h82v-89h-179v55l-125 173zM274 -228l31 73c-27 4 -46 25 -46 51c0 79 126 76 126 -2c0 -24 -25 -83 -47 -122h-64z" />
    <glyph glyph-name="Kcommaaccent" unicode="&#x136;" horiz-adv-x="721" 
d="M343 -243l33 76c-28 4 -47 25 -47 54c0 85 133 82 133 -1c0 -20 -23 -83 -51 -129h-68zM241 95h90v-95h-277v95h83v508h-84v97h257v-97h-69v-232l251 232h-76v97h273v-97h-65l-232 -223l199 -285h112v-95h-231v89l-155 227l-76 -72v-149z" />
    <glyph glyph-name="lacute" unicode="&#x13a;" horiz-adv-x="314" 
d="M93 769l70 117h114l-98 -123h-86v6zM208 700v-611h74v-89h-252v89h80v523h-76v88h174z" />
    <glyph glyph-name="Lacute" unicode="&#x139;" horiz-adv-x="641" 
d="M217 753h-88v5l72 126h117zM135 603h-84v97h269v-97h-80v-507h276l4 107h93v-203h-556v95h78v508z" />
    <glyph glyph-name="lcommaaccent" unicode="&#x13c;" horiz-adv-x="313" 
d="M33 612v88h174v-611h74v-89h-251v89h79v523h-76zM109 -231l27 70c-25 4 -42 23 -42 50c0 79 121 76 121 -2c0 -12 -24 -80 -45 -118h-61z" />
    <glyph glyph-name="Lcommaaccent" unicode="&#x13b;" horiz-adv-x="641" 
d="M135 603h-84v97h269v-97h-80v-507h276l4 107h93v-203h-556v95h78v508zM286 -247l31 74c-26 4 -45 23 -45 50c0 81 125 78 125 -1c0 -12 -26 -85 -47 -123h-64z" />
    <glyph glyph-name="Lcaron" unicode="&#x13d;" horiz-adv-x="642" 
d="M135 603h-84v97h269v-97h-80v-507h276l4 107h93v-203h-556v95h78v508zM490 541h-81l32 158h107z" />
    <glyph glyph-name="Ldot" unicode="&#x13f;" horiz-adv-x="641" 
d="M240 96h276l4 107h93v-203h-556v95h78v508h-84v97h269v-97h-80v-507zM396 263c-32 0 -64 21 -64 63s32 63 64 63c31 0 63 -21 63 -63s-31 -63 -63 -63z" />
    <glyph glyph-name="ldot" unicode="&#x140;" horiz-adv-x="339" 
d="M33 612v88h174v-611h74v-89h-251v89h79v523h-76zM317 265c-32 0 -64 21 -64 63s32 63 64 63c31 0 63 -21 63 -63s-31 -63 -63 -63z" />
    <glyph glyph-name="nacute" unicode="&#x144;" horiz-adv-x="678" 
d="M407 574h-85v4l71 126h115zM218 262v-173h78v-89h-256v89h80v319h-78v88h167l7 -67c48 55 90 74 154 74c148 0 218 -86 218 -235v-179h80v-89h-246v89h67v178c0 100 -31 143 -128 143c-83 0 -143 -55 -143 -148z" />
    <glyph glyph-name="Nacute" unicode="&#x143;" horiz-adv-x="852" 
d="M365 780l63 121h123l-94 -127h-92v6zM239 503v-408h84v-95h-269v95h80v508h-84v97h161l411 -503v406h-84v97h268v-97h-80v-603h-71z" />
    <glyph glyph-name="ncommaaccent" unicode="&#x146;" horiz-adv-x="678" 
d="M218 262v-173h78v-89h-256v89h80v319h-78v88h167l7 -67c48 55 90 74 154 74c148 0 218 -86 218 -235v-179h80v-89h-246v89h67v178c0 100 -31 143 -128 143c-83 0 -143 -55 -143 -148zM320 -231l29 70c-25 4 -42 22 -42 46c0 79 120 76 120 0c0 -12 -24 -79 -44 -116h-63z
" />
    <glyph glyph-name="Ncommaaccent" unicode="&#x145;" horiz-adv-x="852" 
d="M239 503v-408h84v-95h-269v95h80v508h-84v97h161l411 -503v406h-84v97h268v-97h-80v-603h-71zM405 -240l34 76c-29 4 -49 25 -49 53c0 85 136 82 136 -1c0 -12 -28 -88 -52 -128h-69z" />
    <glyph glyph-name="ncaron" unicode="&#x148;" horiz-adv-x="678" 
d="M528 701v-7l-148 -128h-57l-142 128v7h96l75 -64l79 64h97zM218 262v-173h78v-89h-256v89h80v319h-78v88h167l7 -67c48 55 90 74 154 74c148 0 218 -86 218 -235v-179h80v-89h-246v89h67v178c0 100 -31 143 -128 143c-83 0 -143 -55 -143 -148z" />
    <glyph glyph-name="Ncaron" unicode="&#x147;" horiz-adv-x="852" 
d="M589 899v-8l-153 -138h-57l-150 138v8h103l76 -69l81 69h100zM323 0h-269v95h80v508h-84v97h161l411 -503v406h-84v97h268v-97h-80v-603h-71l-416 503v-408h84v-95z" />
    <glyph glyph-name="napostrophe" unicode="&#x149;" horiz-adv-x="678" 
d="M218 262v-173h78v-89h-256v89h80v319h-78v88h167l7 -67c48 55 90 74 154 74c148 0 218 -86 218 -235v-179h80v-89h-246v89h67v178c0 100 -31 143 -128 143c-83 0 -143 -55 -143 -148z" />
    <glyph glyph-name="omacron" unicode="&#x14d;" horiz-adv-x="597" 
d="M132 606v84h325v-84h-325zM40 246c0 150 107 260 258 260c156 0 259 -109 259 -260c0 -146 -105 -256 -259 -256c-153 0 -258 110 -258 256zM459 246c0 100 -68 170 -160 170c-95 0 -160 -70 -160 -170c0 -92 63 -163 159 -163c97 0 160 71 161 163z" />
    <glyph glyph-name="Omacron" unicode="&#x14c;" horiz-adv-x="806" 
d="M227 793v85h349v-85h-349zM406 713c237 -2 355 -180 354 -366c-1 -182 -114 -362 -356 -362c-243 0 -358 178 -358 362c0 213 146 366 360 366zM655 347c1 132 -76 267 -249 270c-166 0 -254 -121 -254 -270c-1 -134 78 -263 253 -263c176 0 249 135 250 263z" />
    <glyph glyph-name="obreve" unicode="&#x14f;" horiz-adv-x="597" 
d="M358 706l81 -2c5 -91 -59 -141 -145 -139c-87 0 -148 50 -142 141h80c0 -31 11 -67 63 -67c51 0 63 34 63 67zM40 246c0 150 107 260 258 260c156 0 259 -109 259 -260c0 -146 -105 -256 -259 -256c-153 0 -258 110 -258 256zM459 246c0 100 -68 170 -160 170
c-95 0 -160 -70 -160 -170c0 -92 63 -163 159 -163c97 0 160 71 161 163z" />
    <glyph glyph-name="Obreve" unicode="&#x14e;" horiz-adv-x="806" 
d="M546 917c6 -89 -59 -136 -147 -136c-89 0 -152 49 -146 136h83c0 -30 11 -63 63 -63s66 32 65 63h82zM406 713c237 -2 355 -180 354 -366c-1 -182 -114 -362 -356 -362c-243 0 -358 178 -358 362c0 213 146 366 360 366zM655 347c1 132 -76 267 -249 270
c-166 0 -254 -121 -254 -270c-1 -134 78 -263 253 -263c176 0 249 135 250 263z" />
    <glyph glyph-name="Ohungarumlaut" unicode="&#x150;" horiz-adv-x="806" 
d="M505 785h-83l81 128h110zM349 786h-84l80 127h109zM406 713c237 -2 355 -180 354 -366c-1 -182 -114 -362 -356 -362c-243 0 -358 178 -358 362c0 213 146 366 360 366zM655 347c1 132 -76 267 -249 270c-166 0 -254 -121 -254 -270c-1 -134 78 -263 253 -263
c176 0 249 135 250 263z" />
    <glyph glyph-name="ohungarumlaut" unicode="&#x151;" horiz-adv-x="597" 
d="M157 586l78 110h105l-101 -110h-82zM310 586l78 109h104l-103 -109h-79zM40 246c0 150 107 260 258 260c156 0 259 -109 259 -260c0 -146 -105 -256 -259 -256c-153 0 -258 110 -258 256zM459 246c0 100 -68 170 -160 170c-95 0 -160 -70 -160 -170
c0 -92 63 -163 159 -163c97 0 160 71 161 163z" />
    <glyph glyph-name="rcommaaccent" unicode="&#x157;" horiz-adv-x="492" 
d="M119 87v321h-76v88h161l12 -52c34 48 92 62 147 62c50 0 90 -16 124 -41l-45 -85c-27 18 -52 29 -87 29c-92 -2 -137 -44 -137 -139v-183h76v-87h-256v87h81zM127 -224l27 68c-23 4 -41 23 -41 48c0 77 117 74 117 -1c0 -12 -23 -79 -43 -115h-60z" />
    <glyph glyph-name="Rcommaaccent" unicode="&#x156;" horiz-adv-x="755" 
d="M351 -234l34 75c-28 5 -49 24 -49 51c0 82 135 79 135 -1c0 -12 -28 -86 -51 -125h-69zM514 86l-151 180h-121v-168h90v-98h-277v98h82v506h-84v96h393c132 0 242 -60 243 -211c0 -138 -84 -203 -211 -220l155 -171h84v-98h-203v86zM242 355h201c99 0 139 56 140 130
c0 82 -60 119 -137 119h-204v-249z" />
    <glyph glyph-name="racute" unicode="&#x155;" horiz-adv-x="492" 
d="M302 578h-84v5l69 120h113zM119 87v321h-76v88h161l12 -52c34 48 92 62 147 62c50 0 90 -16 124 -41l-45 -85c-27 18 -52 29 -87 29c-92 -2 -137 -44 -137 -139v-183h76v-87h-256v87h81z" />
    <glyph glyph-name="Racute" unicode="&#x154;" horiz-adv-x="755" 
d="M306 771l72 126h119l-102 -132h-89v6zM514 86l-151 180h-121v-168h90v-98h-277v98h82v506h-84v96h393c132 0 242 -60 243 -211c0 -138 -84 -203 -211 -220l155 -171h84v-98h-203v86zM242 355h201c99 0 139 56 140 130c0 82 -60 119 -137 119h-204v-249z" />
    <glyph glyph-name="rcaron" unicode="&#x159;" horiz-adv-x="492" 
d="M451 705v-8l-141 -132h-55l-138 133v7h98l68 -62l72 62h96zM119 87v321h-76v88h161l12 -52c34 48 92 62 147 62c50 0 90 -16 124 -41l-45 -85c-27 18 -52 29 -87 29c-92 -2 -137 -44 -137 -139v-183h76v-87h-256v87h81z" />
    <glyph glyph-name="Rcaron" unicode="&#x158;" horiz-adv-x="755" 
d="M181 894v7h104l75 -67l78 67h100v-7l-150 -135h-58zM514 86l-151 180h-121v-168h90v-98h-277v98h82v506h-84v96h393c132 0 242 -60 243 -211c0 -138 -84 -203 -211 -220l155 -171h84v-98h-203v86zM242 355h201c99 0 139 56 140 130c0 82 -60 119 -137 119h-204v-249z" />
    <glyph glyph-name="sacute" unicode="&#x15b;" horiz-adv-x="513" 
d="M271 696h112l-98 -127h-83v5zM448 468l-2 -129h-84l-5 72c-21 11 -77 16 -100 16c-62 2 -112 -25 -111 -71c2 -42 57 -55 111 -60c94 -11 218 -29 216 -157c-2 -99 -94 -153 -214 -153c-80 0 -141 18 -212 60l3 130h86l4 -71c39 -19 80 -27 121 -27c42 0 113 7 115 65
c2 46 -51 62 -124 69c-101 13 -202 38 -202 144c-1 110 114 156 206 155c63 0 136 -15 192 -43z" />
    <glyph glyph-name="Sacute" unicode="&#x15a;" horiz-adv-x="656" 
d="M270 789l73 132h123l-106 -138h-90v6zM321 -15c-104 0 -183 22 -264 94c0 -14 0 126 0 138v0h95l5 -88c44 -29 112 -46 165 -46c86 0 189 23 189 116c1 90 -137 107 -193 114c-136 19 -262 55 -262 205c-3 150 148 196 266 197c93 0 171 -16 251 -81
c0 -53 -1 -88 -1 -141h-93l-5 95c-46 25 -105 34 -149 34c-80 0 -166 -32 -166 -107c0 -69 75 -91 170 -106c146 -20 288 -53 288 -210c-2 -168 -160 -214 -296 -214z" />
    <glyph glyph-name="scircumflex" unicode="&#x15d;" horiz-adv-x="513" 
d="M93 566v7l143 134h56l144 -134v-7h-97l-75 68l-72 -68h-99zM448 468l-2 -129h-84l-5 72c-21 11 -77 16 -100 16c-62 2 -112 -25 -111 -71c2 -42 57 -55 111 -60c94 -11 218 -29 216 -157c-2 -99 -94 -153 -214 -153c-80 0 -141 18 -212 60l3 130h86l4 -71
c39 -19 80 -27 121 -27c42 0 113 7 115 65c2 46 -51 62 -124 69c-101 13 -202 38 -202 144c-1 110 114 156 206 155c63 0 136 -15 192 -43z" />
    <glyph glyph-name="Scircumflex" unicode="&#x15c;" horiz-adv-x="656" 
d="M157 783v7l153 142h58l153 -142v-7h-102l-80 74l-81 -74h-101zM321 -15c-104 0 -183 22 -264 94c0 -14 0 126 0 138v0h95l5 -88c44 -29 112 -46 165 -46c86 0 189 23 189 116c1 90 -137 107 -193 114c-136 19 -262 55 -262 205c-3 150 148 196 266 197
c93 0 171 -16 251 -81c0 -53 -1 -88 -1 -141h-93l-5 95c-46 25 -105 34 -149 34c-80 0 -166 -32 -166 -107c0 -69 75 -91 170 -106c146 -20 288 -53 288 -210c-2 -168 -160 -214 -296 -214z" />
    <glyph glyph-name="Scedilla" unicode="&#x15e;" horiz-adv-x="655" 
d="M450 -166c-14 -60 -73 -87 -130 -86c-49 2 -98 22 -120 65l49 38c18 -27 44 -34 72 -34c25 0 49 10 53 29c11 37 -39 64 -88 42l-22 16l30 82c-92 4 -164 28 -237 93c0 -14 0 126 0 138v0h95l5 -88c44 -29 112 -45 165 -45c86 0 189 22 189 115c1 90 -137 107 -193 114
c-136 19 -262 55 -262 205c-3 150 148 196 266 197c93 0 171 -16 251 -81c0 -53 -1 -88 -1 -141h-93l-5 95c-46 25 -105 34 -149 34c-80 0 -166 -32 -166 -107c0 -69 75 -91 170 -106c146 -20 288 -49 288 -210c-2 -143 -127 -202 -251 -212l-15 -44c88 -1 109 -58 99 -109z
" />
    <glyph glyph-name="scedilla" unicode="&#x15f;" horiz-adv-x="513" 
d="M447 456l-2 -127h-84l-5 70c-21 10 -76 12 -99 12c-61 2 -110 -21 -109 -63s55 -55 109 -60c93 -11 217 -29 215 -156c-2 -88 -84 -143 -192 -149l-10 -34c91 2 107 -51 98 -95c-13 -54 -70 -78 -124 -77c-46 2 -93 20 -113 58l46 34c17 -24 40 -31 66 -30
c23 0 46 9 51 27c11 32 -36 55 -82 34l-20 14l24 70c-59 6 -109 22 -167 57l2 128h87l4 -68c37 -19 78 -24 120 -24c41 0 111 5 113 59c2 46 -51 63 -123 69c-101 13 -200 37 -200 143c-1 109 112 152 204 151c62 0 135 -15 191 -43z" />
    <glyph glyph-name="Tcaron" unicode="&#x164;" horiz-adv-x="654" 
d="M513 909v-8l-155 -140h-59l-151 140v8h101l80 -75l85 75h99zM466 0h-279v96h88v511h-147l-4 -107h-92v200h590v-200h-93l-5 107h-145v-511h87v-96z" />
    <glyph glyph-name="tcaron" unicode="&#x165;" horiz-adv-x="434" 
d="M101 493v131l98 11l-1 -142h107v-85h-107v-241c0 -53 21 -83 72 -83c21 0 42 5 63 15l29 -83c-34 -15 -61 -22 -96 -23c-107 -3 -165 61 -165 174v241h-81v85h81zM418 458h-72l42 173h93z" />
    <glyph glyph-name="Tbar" unicode="&#x166;" horiz-adv-x="655" 
d="M157 287v85h118v235h-146l-4 -107h-93v200h590v-200h-92l-6 107h-145v-235h129v-85h-129v-191h87v-96h-279v96h88v191h-118z" />
    <glyph glyph-name="tbar" unicode="&#x167;" horiz-adv-x="389" 
d="M109 624l99 11v-142h145v-85h-146v-95h110v-71h-110v-75c0 -53 21 -83 71 -83c21 0 42 5 62 15l28 -83c-34 -15 -61 -22 -95 -23c-106 -3 -164 61 -164 174v75h-75v71h75v95h-96v85h96v131z" />
    <glyph glyph-name="uhungarumlaut" unicode="&#x171;" horiz-adv-x="675" 
d="M407 582h-78l77 122h102zM259 583h-78l75 121h103zM567 496v-407h79v-89h-156l-18 68c-47 -53 -103 -73 -165 -74c-151 0 -218 93 -218 234v181h-74v87h173v-267c0 -93 39 -142 140 -142c84 1 140 65 140 148v174h-80v87h179z" />
    <glyph glyph-name="Uhungarumlaut" unicode="&#x170;" horiz-adv-x="823" 
d="M347 775h-81l80 128h106zM502 775h-80l79 127h108zM414 81c104 0 191 74 191 207v316h-90v96h271v-96h-79v-318c0 -206 -140 -303 -293 -303c-147 0 -298 94 -298 303v318h-78v96h272v-96h-90v-318c0 -135 90 -205 194 -205z" />
    <glyph glyph-name="uring" unicode="&#x16f;" horiz-adv-x="675" 
d="M422 643c0 -66 -56 -98 -120 -98c-66 0 -116 41 -116 97c0 66 58 101 117 101s119 -34 119 -100zM358 646c0 17 -16 41 -55 41c-38 0 -50 -24 -50 -41c0 -18 12 -42 50 -42c40 0 55 24 55 42zM567 496v-407h79v-89h-156l-18 68c-47 -53 -103 -73 -165 -74
c-151 0 -218 93 -218 234v181h-74v87h173v-267c0 -93 39 -142 140 -142c84 1 140 65 140 148v174h-80v87h179z" />
    <glyph glyph-name="Uring" unicode="&#x16e;" horiz-adv-x="823" 
d="M533 840c0 -66 -58 -102 -122 -102c-69 0 -123 35 -123 102s61 102 123 102c60 0 122 -33 122 -102zM465 841c-1 19 -10 46 -56 46c-36 0 -51 -27 -51 -46c0 -20 13 -47 51 -47c41 0 56 27 56 47zM414 81c104 0 191 74 191 207v316h-90v96h271v-96h-79v-318
c0 -206 -140 -303 -293 -303c-147 0 -298 94 -298 303v318h-78v96h272v-96h-90v-318c0 -135 90 -205 194 -205z" />
    <glyph glyph-name="ubreve" unicode="&#x16d;" horiz-adv-x="675" 
d="M449 699c5 -88 -59 -137 -142 -137c-86 0 -147 52 -140 138h79c0 -30 11 -65 62 -65s63 34 62 65zM567 496v-407h79v-89h-156l-18 68c-47 -53 -103 -73 -165 -74c-151 0 -218 93 -218 234v181h-74v87h173v-267c0 -93 39 -142 140 -142c84 1 140 65 140 148v174h-80v87
h179z" />
    <glyph glyph-name="Ubreve" unicode="&#x16c;" horiz-adv-x="823" 
d="M487 919h87c5 -94 -63 -142 -156 -142c-94 0 -159 52 -154 142h85c0 -33 13 -65 69 -65s70 31 69 65zM605 604h-90v96h271v-96h-79v-318c0 -206 -140 -303 -293 -303c-147 0 -298 94 -298 303v318h-78v96h272v-96h-90v-318c0 -135 90 -205 194 -205s191 74 191 207v316z
" />
    <glyph glyph-name="Utilde" unicode="&#x168;" horiz-adv-x="823" 
d="M317 773l-66 32c15 61 68 94 126 79c16 -4 48 -23 61 -26c16 -4 39 -1 49 26l66 -27c-17 -73 -76 -95 -121 -80c-16 4 -48 24 -61 27c-18 4 -42 0 -54 -31zM605 604h-90v96h271v-96h-79v-318c0 -206 -140 -303 -293 -303c-147 0 -298 94 -298 303v318h-78v96h272v-96h-90
v-318c0 -135 90 -205 194 -205s191 74 191 207v316z" />
    <glyph glyph-name="Umacron" unicode="&#x16a;" horiz-adv-x="823" 
d="M266 779v84h293v-84h-293zM414 81c104 0 191 74 191 207v316h-90v96h271v-96h-79v-318c0 -206 -140 -303 -293 -303c-147 0 -298 94 -298 303v318h-78v96h272v-96h-90v-318c0 -135 90 -205 194 -205z" />
    <glyph glyph-name="umacron" unicode="&#x16b;" horiz-adv-x="675" 
d="M181 596v81h281v-81h-281zM567 496v-407h79v-89h-156l-18 68c-47 -53 -103 -73 -165 -74c-151 0 -218 93 -218 234v181h-74v87h173v-267c0 -93 39 -142 140 -142c84 1 140 65 140 148v174h-80v87h179z" />
    <glyph glyph-name="utilde" unicode="&#x169;" horiz-adv-x="675" 
d="M281 705c16 -4 47 -23 61 -26c16 -3 39 0 48 26l67 -28c-17 -71 -77 -91 -122 -77c-16 6 -47 26 -60 29c-18 3 -42 -2 -54 -31l-65 31c15 59 68 93 125 76zM567 496v-407h79v-89h-156l-18 68c-47 -53 -103 -73 -165 -74c-151 0 -218 93 -218 234v181h-74v87h173v-267
c0 -93 39 -142 140 -142c84 1 140 65 140 148v174h-80v87h179z" />
    <glyph glyph-name="wcircumflex" unicode="&#x175;" horiz-adv-x="910" 
d="M274 566v7l150 132h58l149 -132v-7h-100l-78 70l-78 -70h-101zM232 -3l-142 412h-75v86h239v-86h-58l96 -309l122 395h83l122 -395l95 309h-65v86h244v-86h-72l-143 -412h-113l-68 182l-42 160l-45 -160l-65 -182h-113z" />
    <glyph glyph-name="Wcircumflex" unicode="&#x174;" horiz-adv-x="1141" 
d="M379 760v9l158 139h61l158 -139v-9h-107l-83 73l-80 -73h-107zM1058 604l-213 -605h-101l-173 465l-169 -465h-107l-210 605h-71v96h267v-96h-78l150 -456l184 533h70l186 -533l146 456h-79v96h268v-96h-70z" />
    <glyph glyph-name="Ycircumflex" unicode="&#x176;" horiz-adv-x="704" 
d="M178 778v8l151 133h58l152 -134v-7h-103l-78 70l-78 -70h-102zM404 95h87v-95h-280v95h86v191l-209 318h-69v96h271v-96h-76l54 -84l83 -133l90 137l53 80h-76v96h270v-96h-68l-216 -318v-191z" />
    <glyph glyph-name="ycircumflex" unicode="&#x177;" horiz-adv-x="610" 
d="M130 569v7l149 134h57l148 -134v-7h-101l-76 69l-76 -69h-101zM421 408h-74v88h245v-88h-63l-220 -536c-50 -120 -151 -123 -251 -72l36 82c44 -20 94 -36 120 19l39 105l-171 402h-66v88h233v-87h-56l68 -153l51 -141l48 137z" />
    <glyph glyph-name="zdotaccent" unicode="&#x17c;" horiz-adv-x="503" 
d="M257 564c-31 0 -61 21 -61 61c0 41 30 61 60 61c31 0 62 -20 62 -61c0 -40 -31 -61 -61 -61zM143 405l-2 -65h-89v156h389v-58l-251 -345h173l5 85h89v-178h-418v39l264 366h-160z" />
    <glyph glyph-name="Zdotaccent" unicode="&#x17b;" horiz-adv-x="621" 
d="M317 766c-32 0 -65 21 -65 62c0 42 32 63 64 63s65 -21 65 -63c0 -41 -32 -62 -64 -62zM162 602l-2 -99h-98v197h495v-46l-370 -554h289l3 115h96v-215h-537v57l363 545h-239z" />
    <glyph glyph-name="zacute" unicode="&#x17a;" horiz-adv-x="503" 
d="M276 580h-86v5l71 117h117zM143 405l-2 -65h-89v156h389v-58l-251 -345h173l5 85h89v-178h-418v39l264 366h-160z" />
    <glyph glyph-name="Zacute" unicode="&#x179;" horiz-adv-x="621" 
d="M255 775l73 130h122l-105 -136h-90v6zM162 602l-2 -99h-98v197h495v-46l-369 -554h288l4 115h95v-215h-536v57l363 545h-240z" />
    <glyph glyph-name="AEacute" unicode="&#x1fc;" horiz-adv-x="964" 
d="M596 771h-90v6l74 132h121zM312 271h184l1 310zM337 605v95h563v-201h-94l-4 104h-206v-197h211v-98h-211v-209h221l4 106h94v-205h-499v96h80v92h-236l-59 -92h63v-96h-255v96h73l326 509h-71z" />
    <glyph glyph-name="Oslashacute" unicode="&#x1fe;" horiz-adv-x="806" 
d="M447 784h-90v4l74 132h121zM153 347c0 -76 27 -151 82 -201l261 456c-27 10 -57 15 -90 15c-175 0 -255 -133 -253 -270zM655 347c0 77 -26 156 -82 208l-261 -456c28 -8 58 -13 94 -13c175 0 249 133 249 261zM405 714c53 0 101 -10 143 -26l43 77h105l-72 -121
c91 -69 136 -181 136 -297c-1 -182 -113 -362 -356 -362c-55 0 -103 9 -144 25l-48 -84h-103l73 128c-91 68 -135 179 -135 294c0 191 120 366 358 366z" />
    <glyph glyph-name="oslashacute" unicode="&#x1ff;" horiz-adv-x="589" 
d="M330 578h-82v4l66 118h109zM183 130l161 273c-15 5 -32 9 -48 9c-96 0 -156 -76 -156 -167c0 -47 15 -87 43 -115zM413 354l-161 -268c13 -5 29 -7 45 -7c97 0 156 73 156 164c0 44 -16 82 -40 111zM67 -62l63 107c-57 45 -90 117 -90 201c0 146 103 257 254 257
c36 0 67 -6 96 -17l37 63h95l-60 -103c55 -47 88 -118 88 -200c0 -146 -102 -256 -254 -256c-33 0 -65 6 -94 15l-41 -67h-94z" />
    <glyph glyph-name="Ygrave" unicode="&#x1ef2;" horiz-adv-x="704" 
d="M303 757l-79 119h120l49 -113v-6h-90zM290 604h-76l54 -84l83 -133l90 137l53 80h-76v96h270v-96h-68l-216 -318v-191h87v-95h-280v95h86v191l-209 318h-69v96h271v-96z" />
    <glyph glyph-name="Tcommaaccent" unicode="&#x162;" horiz-adv-x="654" 
d="M466 0h-108l-10 -40c91 9 111 -51 99 -107c-22 -99 -169 -109 -233 -47l33 52c29 -35 115 -31 125 9c9 37 -44 65 -92 42l-17 16l23 75h-99v96h89v511h-147l-4 -107h-93v200h591v-200h-93l-5 107h-146v-511h87v-96z" />
    <glyph glyph-name="tcommaaccent" unicode="&#x163;" horiz-adv-x="388" 
d="M95 -169l47 37c18 -25 42 -38 70 -39c29 0 53 10 60 34c11 35 -38 56 -92 35l-18 17l28 93c-64 27 -83 93 -83 191v209h-96v85h96v131l99 11v-142h145v-85h-146v-209c0 -69 9 -115 72 -115c21 0 42 5 63 14l27 -82c-34 -15 -60 -22 -94 -23c-6 0 -11 0 -16 1l-13 -43
c89 2 117 -49 105 -100c-14 -53 -67 -85 -121 -86c-52 -3 -110 23 -133 66z" />
    <glyph glyph-name="asterisk.alt" horiz-adv-x="396" 
d="M198 516l-42 -63c-20 -42 -96 2 -62 42l49 60l-80 17c-36 12 -11 84 23 72l78 -27l-5 70c0 40 74 40 77 0l-5 -70l77 28c34 12 60 -60 23 -72l-79 -18l50 -60c34 -39 -41 -85 -62 -42z" />
    <glyph glyph-name="_127" horiz-adv-x="500" 
 />
    <glyph glyph-name="_129" horiz-adv-x="500" 
 />
    <glyph glyph-name="_141" horiz-adv-x="500" 
 />
    <glyph glyph-name="_143" horiz-adv-x="500" 
 />
    <glyph glyph-name="_144" horiz-adv-x="500" 
 />
    <glyph glyph-name="_157" horiz-adv-x="500" 
 />
    <glyph glyph-name="uni00A0" unicode="&#xa0;" horiz-adv-x="244" 
 />
    <glyph glyph-name="bullet" unicode="&#x2022;" horiz-adv-x="392" 
d="M197 213c-69 0 -120 45 -120 117c0 70 51 117 121 117c66 0 117 -47 117 -117s-52 -117 -118 -117z" />
    </font>
</defs>
</svg>
