<?xml version="1.0" encoding="utf-8"?>
<!-- Generator: Adobe Illustrator 16.0.0, SVG Export Plug-In . SVG Version: 6.00 Build 0)  -->
<!DOCTYPE svg PUBLIC "-//W3C//DTD SVG 1.1//EN" "http://www.w3.org/Graphics/SVG/1.1/DTD/svg11.dtd">
<svg version="1.1" id="Layer_1" xmlns="http://www.w3.org/2000/svg" xmlns:xlink="http://www.w3.org/1999/xlink" x="0px" y="0px"
	 width="559.279px" height="98.729px" viewBox="0 0 559.279 98.729" enable-background="new 0 0 559.279 98.729"
	 xml:space="preserve">
<g>
	<path fill="#333334" d="M412.871,26.478c-19.919,0-36.123,16.204-36.123,36.12c0,19.918,16.204,36.122,36.123,36.122
		c19.917,0,36.121-16.204,36.121-36.122C448.992,42.681,432.788,26.478,412.871,26.478z M412.871,96.031
		c-18.437,0-33.436-14.998-33.436-33.434c0-18.434,14.999-33.432,33.436-33.432c18.436,0,33.434,14.998,33.434,33.432
		C446.305,81.033,431.307,96.031,412.871,96.031z"/>
	<path fill="#333334" d="M369.979,26.589c-0.868,0-1.684,0.33-2.319,0.918c-0.008,0.007-0.019,0.009-0.027,0.016l-32.86,29.066
		l-3.584-13.384c-0.001-0.002,0-0.005-0.001-0.008c-0.001-0.004-0.003-0.008-0.004-0.013l-0.003-0.009
		c-0.002-0.007-0.006-0.013-0.007-0.019c-0.397-1.499-1.747-2.543-3.302-2.543c-1.225,0-2.362,0.661-2.972,1.726l-0.001,0.001
		l-14.615,25.632l-37.927-40.187c-0.011-0.012-0.026-0.015-0.038-0.026c-0.65-0.739-1.568-1.171-2.558-1.171
		c-1.884,0-3.417,1.533-3.417,3.418c0,0.399,0.071,0.787,0.205,1.157c0.003,0.01,0.004,0.02,0.008,0.03l0.002,0.005c0,0,0,0,0,0l0,0
		l24.12,65.361c0.002,0.006,0.006,0.01,0.008,0.014c0.004,0.01,0.004,0.02,0.008,0.029c0.527,1.291,1.77,2.125,3.164,2.125
		c1.246,0,2.387-0.678,2.988-1.767c0.002-0.003,0.004-0.005,0.006-0.007l0.01-0.018c0.002-0.004,0.005-0.008,0.007-0.012
		c0.001-0.001,0.001-0.002,0.001-0.002l13.951-24.467l2.377,2.52c0.007,0.007,0.017,0.009,0.023,0.016
		c0.008,0.009,0.011,0.021,0.02,0.029c0.64,0.619,1.482,0.961,2.374,0.961c0.802,0,1.582-0.285,2.197-0.803
		c0.004-0.004,0.006-0.009,0.01-0.012c0.005-0.004,0.011-0.006,0.016-0.01l15.461-13.676l9.3,34.732
		c0.001,0.003,0.003,0.005,0.003,0.008c0.001,0,0.001,0.002,0.001,0.002c0.408,1.475,1.763,2.504,3.293,2.504
		c1.396,0,2.633-0.85,3.155-2.127c0.01-0.023,0.026-0.041,0.035-0.064l24.13-65.427c0.008-0.02,0.009-0.041,0.016-0.061
		c0.003-0.009,0.01-0.016,0.013-0.025c0.103-0.332,0.154-0.674,0.154-1.017C373.397,28.122,371.864,26.589,369.979,26.589z
		 M294.516,95.623c-0.003,0.006-0.002,0.014-0.006,0.02c-0.003,0.005-0.008,0.008-0.011,0.013c-0.1,0.186-0.32,0.384-0.642,0.384
		c-0.297,0-0.561-0.176-0.674-0.449l-24.106-65.327c0-0.001-0.001-0.001-0.001-0.002c0-0.001,0-0.002-0.001-0.003
		c-0.029-0.078-0.043-0.162-0.043-0.251c0-0.402,0.327-0.729,0.729-0.729c0.223,0,0.431,0.1,0.571,0.274
		c0.012,0.015,0.029,0.021,0.041,0.034s0.016,0.032,0.028,0.045l38.489,40.782L294.516,95.623z M316.08,73.123
		c-0.173,0.146-0.669,0.244-0.961-0.027l-2.907-3.08l15.022-26.343l0,0c0.133-0.232,0.37-0.371,0.637-0.371
		c0.335,0,0.627,0.227,0.708,0.551l0,0c0.002,0.006,0.001,0.012,0.003,0.018l3.938,14.709L316.08,73.123z M345.895,96.039
		c-0.326,0-0.614-0.218-0.702-0.531l-9.644-36.016l33.864-29.955c0.01-0.008,0.013-0.02,0.021-0.029
		c0.01-0.008,0.021-0.011,0.03-0.02c0.139-0.136,0.321-0.211,0.514-0.211c0.403,0,0.731,0.327,0.731,0.729
		c0,0.073-0.012,0.148-0.035,0.223l0,0l-24.091,65.321C346.482,95.844,346.207,96.039,345.895,96.039z"/>
	<path fill="#333334" d="M559.086,31.067c0.129-0.36,0.193-0.745,0.193-1.144c0-1.886-1.534-3.421-3.42-3.421
		c-0.92,0-1.808,0.381-2.448,1.041c-0.006,0.006-0.013,0.007-0.019,0.013l-21.007,21.29l0.997-33.882
		c0-0.002-0.001-0.003-0.001-0.005c0.002-0.045,0.003-0.093,0.003-0.115c0-1.886-1.534-3.42-3.42-3.42
		c-1.219,0-2.355,0.656-2.965,1.713c-0.001,0.001-0.001,0.003-0.002,0.005c-0.001,0.002-0.003,0.003-0.004,0.005l-32.445,57.322
		l-36.372-42.717c-0.007-0.008-0.018-0.011-0.024-0.019c-0.653-0.779-1.601-1.23-2.618-1.23c-1.886,0-3.42,1.535-3.42,3.421
		c0,0.404,0.07,0.802,0.209,1.183c0.002,0.004,0.005,0.007,0.006,0.011l24.146,65.431c0.002,0.005,0.005,0.008,0.007,0.013
		c0.004,0.011,0.005,0.022,0.01,0.033c0.528,1.29,1.771,2.123,3.164,2.123c1.237,0,2.374-0.669,2.979-1.745
		c0.001-0.003,0.004-0.006,0.006-0.008l0.008-0.014c0.002-0.004,0.004-0.006,0.006-0.01c0.001-0.001,0-0.002,0.001-0.002
		l12.339-21.801l4.581,5.38c0.002,0.003,0.002,0.005,0.004,0.008c0.005,0.006,0.012,0.011,0.017,0.017l0.001,0.001
		c0.002,0.002,0.004,0.003,0.006,0.005c0.652,0.787,1.606,1.241,2.629,1.241c0.924,0,1.787-0.364,2.434-1.022
		c0.002-0.002,0.004-0.002,0.006-0.004l0.006-0.006c0.001,0,0.001-0.001,0.001-0.001v-0.001l24.82-25.154l-1.167,39.656
		c0,0.008,0.004,0.014,0.004,0.021c0,0.007-0.004,0.012-0.004,0.019c0,1.886,1.533,3.42,3.419,3.42c1.397,0,2.639-0.853,3.16-2.133
		c0.009-0.021,0.024-0.036,0.032-0.058l0.042-0.114c0.001-0.003,0.002-0.005,0.003-0.007c0-0.001,0-0.002,0.001-0.004l24.091-65.322
		C559.081,31.075,559.084,31.072,559.086,31.067z M480.301,95.641c-0.001,0.002-0.001,0.004-0.003,0.008c0,0-0.001,0-0.001,0.001
		c-0.271,0.493-1.1,0.45-1.315-0.069l-24.133-65.399c0-0.001-0.001-0.002-0.001-0.003c-0.03-0.083-0.046-0.167-0.046-0.254
		c0-0.404,0.329-0.732,0.732-0.732c0.305,0,0.489,0.173,0.572,0.276c0.004,0.005,0.01,0.007,0.015,0.012
		c0.004,0.005,0.005,0.012,0.009,0.017l37.009,43.464L480.301,95.641z M502.757,78.876c-0.001,0.001-0.001,0.003-0.003,0.004
		c-0.001,0.001-0.003,0.001-0.004,0.003c-0.289,0.299-0.819,0.275-1.085-0.052c-0.002-0.003-0.006-0.005-0.009-0.007
		c-0.006-0.008-0.007-0.017-0.013-0.023l-5.239-6.152l32.925-58.169c0.133-0.23,0.37-0.367,0.636-0.367
		c0.403,0,0.732,0.328,0.734,0.71c-0.001,0.014,0.002,0.027,0.001,0.041c0,0.008-0.005,0.014-0.005,0.021l-1.082,36.771
		L502.757,78.876z M531.75,96.029c-0.401,0-0.728-0.326-0.73-0.727l1.251-42.512l23.036-23.347c0.004-0.004,0.005-0.009,0.009-0.013
		c0.004-0.004,0.01-0.005,0.014-0.01c0.08-0.086,0.257-0.23,0.53-0.23c0.403,0,0.732,0.329,0.732,0.732
		c0,0.087-0.013,0.165-0.036,0.231l-24.114,65.388C532.338,95.834,532.063,96.029,531.75,96.029z"/>
</g>
<path fill="#333334" d="M79.138,62.62c0,18.423,14.986,33.411,33.406,33.411c10.585,0,20.32-4.865,26.709-13.348
	c0.446-0.594,1.29-0.711,1.88-0.266c0.592,0.447,0.712,1.289,0.266,1.882c-6.902,9.163-17.418,14.418-28.855,14.418
	c-19.901,0-36.092-16.194-36.092-36.098c0-19.904,16.191-36.098,36.092-36.098c11.464,0,21.988,5.265,28.872,14.443
	c0.444,0.593,0.324,1.436-0.269,1.881c-0.593,0.445-1.435,0.325-1.881-0.268c-6.372-8.498-16.112-13.37-26.722-13.37
	C94.124,29.208,79.138,44.197,79.138,62.62z M36.092,29.208c10.61,0,20.35,4.872,26.722,13.37c0.445,0.592,1.287,0.713,1.88,0.268
	c0.594-0.445,0.714-1.288,0.27-1.881c-6.885-9.178-17.409-14.443-28.872-14.443C16.19,26.522,0,42.716,0,62.62
	c0,19.903,16.19,36.098,36.092,36.098c11.436,0,21.953-5.255,28.854-14.418c0.446-0.593,0.328-1.435-0.265-1.882
	c-0.592-0.445-1.435-0.327-1.881,0.266c-6.389,8.482-16.123,13.348-26.708,13.348c-18.419,0-33.406-14.988-33.406-33.411
	C2.686,44.197,17.672,29.208,36.092,29.208z M191.139,96.031h-32.148c-1.176,0-2.133-0.957-2.133-2.134
	c0-0.397,0.11-0.784,0.316-1.118c0.009-0.015,0.017-0.028,0.025-0.043l34.041-53.568c0.018-0.027,0.035-0.057,0.05-0.085
	l0.066-0.119c0.333-0.601,1.115-2.007,1.115-4.146c0-4.575-3.723-8.296-8.296-8.296h-28.65c-0.742,0-1.343,0.602-1.343,1.344
	c0,0.742,0.601,1.343,1.343,1.343h28.65c3.093,0,5.609,2.517,5.609,5.61c0,1.441-0.505,2.353-0.777,2.841l-0.056,0.103
	l-34.054,53.585c-0.016,0.025-0.031,0.051-0.046,0.078c-0.445,0.746-0.68,1.598-0.68,2.472c0,2.657,2.161,4.82,4.819,4.82h32.148
	c0.743,0,1.343-0.602,1.343-1.344C192.482,96.633,191.882,96.031,191.139,96.031z"/>
<path fill="#FFFFFF" d="M254.674,26.519h-20.033l14.56-14.56c1.049-1.049,1.049-2.75,0.001-3.799c-1.049-1.048-2.751-1.049-3.8,0
	l-13.217,13.217V2.687c0-1.483-1.203-2.687-2.687-2.687s-2.686,1.203-2.686,2.687v20.59L212.647,9.11
	c-0.524-0.524-1.375-0.524-1.899,0c-0.524,0.525-0.524,1.375,0,1.9l14.165,14.167h-20.586c-1.484,0-2.688,1.202-2.688,2.687
	c0,1.483,1.203,2.686,2.688,2.686h20.586l-14.166,14.164c-0.525,0.525-0.525,1.375,0,1.9c0.262,0.262,0.606,0.394,0.949,0.394
	c0.345,0,0.688-0.131,0.95-0.394l15.509-15.508v21.932c0,0.741,0.601,1.343,1.342,1.343c0.743,0,1.343-0.602,1.343-1.343V33.004
	l14.56,14.559c0.525,0.525,1.212,0.787,1.9,0.787c0.687,0,1.375-0.262,1.9-0.788c1.048-1.048,1.048-2.749-0.001-3.798l-14.56-14.558
	h20.033c0.742,0,1.344-0.601,1.344-1.342C256.018,27.12,255.417,26.519,254.674,26.519z"/>
</svg>
